<?xml version="1.0" standalone="no"?><!DOCTYPE svg PUBLIC "-//W3C//DTD SVG 1.1//EN" "http://www.w3.org/Graphics/SVG/1.1/DTD/svg11.dtd"><svg height="2000" legacy-metrics="false" node-id="1" sillyvg="true" template-height="2000" template-width="1400" version="1.1" viewBox="0 0 1400 2000" width="1400" xmlns="http://www.w3.org/2000/svg" xmlns:xlink="http://www.w3.org/1999/xlink"><defs node-id="34"></defs><path d="M 0.00 0.00 L 1400.00 0.00 L 1400.00 2000.00 L 0.00 2000.00 Z" fill="#f5d484" fill-rule="nonzero" node-id="37" stroke="none" target-height="2000" target-width="1400" target-x="0" target-y="0"></path><path d="M 50.00 50.00 L 1350.00 50.00 L 1350.00 1950.00 L 50.00 1950.00 Z" fill="#f1e9d4" fill-rule="nonzero" node-id="39" stroke="none" target-height="1900" target-width="1300" target-x="50" target-y="50"></path><path d="M 1098.92 1062.81 L 1102.92 1058.84 L 1106.25 1055.07 L 1108.98 1051.47 L 1111.36 1047.64 L 1113.05 1044.08 L 1114.14 1040.75 L 1114.60 1038.15 L 1114.69 1035.70 L 1114.42 1033.37 L 1113.80 1031.13 L 1112.73 1028.88 L 1111.29 1026.79 L 1109.44 1024.86 L 1107.14 1023.07 L 1103.78 1021.14 L 1099.73 1019.45 L 1094.85 1018.04 L 1089.87 1017.07 L 1084.24 1016.39 L 1077.89 1016.04 L 1078.17 1014.02 L 1078.12 1012.01 L 1077.74 1010.03 L 1077.02 1008.12 L 1075.81 1006.28 L 1074.23 1004.66 L 1072.22 1003.25 L 1069.71 1002.06 L 1066.18 1000.99 L 1061.95 1000.28 L 1056.87 1000.00 L 1051.80 1000.17 L 1046.13 1000.75 L 1039.80 1001.81 L 1033.56 1003.20 L 1026.90 1005.03 L 1019.80 1007.34 L 1012.82 1009.94 L 1005.61 1012.97 L 998.17 1016.46 L 989.43 1021.04 L 981.46 1025.73 L 974.19 1030.51 L 967.17 1035.70 L 961.16 1040.72 L 956.06 1045.57 L 952.39 1049.55 L 949.43 1053.26 L 947.09 1056.71 L 945.31 1059.94 L 938.93 1064.95 L 933.56 1069.74 L 929.11 1074.34 L 925.97 1078.12 L 923.48 1081.67 L 921.58 1085.01 L 920.18 1088.18 L 919.18 1091.58 L 918.80 1094.72 L 918.98 1097.66 L 919.69 1100.47 L 920.90 1102.96 L 922.57 1105.24 L 924.75 1107.34 L 927.50 1109.27 L 930.41 1110.80 L 933.79 1112.16 L 937.70 1113.33 L 942.20 1114.30 L 948.14 1115.11 L 954.86 1115.54 L 962.43 1115.54 L 964.34 1117.31 L 966.76 1118.92 L 969.78 1120.35 L 973.50 1121.59 L 978.50 1122.68 L 984.38 1123.40 L 991.26 1123.67 L 998.12 1123.48 L 1005.63 1122.83 L 1013.86 1121.68 L 1021.99 1120.14 L 1030.51 1118.10 L 1039.43 1115.54 L 1047.23 1112.93 L 1054.55 1110.15 L 1061.39 1107.22 L 1068.12 1103.99 L 1074.18 1100.73 L 1079.64 1097.44 L 1084.93 1093.85 L 1089.40 1090.37 L 1093.15 1087.01 L 1096.60 1083.32 L 1099.14 1079.90 L 1100.90 1076.71 L 1101.85 1074.13 L 1102.30 1071.74 L 1102.29 1069.49 L 1101.85 1067.34 L 1101.12 1065.67 L 1100.15 1064.16 L 1098.92 1062.81 Z" fill="#fffdf3" fill-rule="nonzero" node-id="41" stroke-linecap="butt" stroke-width="1" target-height="123.66919" target-width="195.88739" target-x="918.8016" target-y="1000.00085"></path><path d="M 514.82 1950.00 L 513.92 1945.25 L 511.07 1932.15 L 508.94 1923.35 L 506.06 1912.37 L 502.75 1900.80 L 498.64 1887.64 L 494.03 1874.14 L 488.60 1859.63 L 484.68 1849.95 L 480.39 1840.10 L 475.72 1830.06 L 470.77 1820.17 L 465.46 1810.35 L 459.77 1800.62 L 453.72 1791.10 L 447.31 1781.90 L 440.52 1773.00 L 432.36 1763.16 L 423.61 1753.12 L 414.25 1742.89 L 399.84 1727.74 L 384.66 1712.26 L 353.68 1681.09 L 338.24 1665.26 L 323.23 1649.33 L 313.46 1638.53 L 304.13 1627.73 L 295.25 1616.94 L 286.70 1605.88 L 278.85 1594.86 L 271.66 1583.88 L 266.60 1575.39 L 262.05 1566.94 L 257.98 1558.51 L 254.40 1550.11 L 251.46 1541.97 L 248.71 1533.07 L 246.20 1523.37 L 244.04 1513.60 L 242.08 1503.30 L 240.35 1492.46 L 238.21 1476.05 L 236.50 1459.04 L 235.22 1441.90 L 234.31 1424.78 L 233.72 1407.75 L 233.42 1391.36 L 233.34 1375.27 L 233.46 1360.43 L 234.10 1333.67 L 234.44 1331.57 L 235.14 1329.85 L 236.19 1328.45 L 237.55 1327.31 L 239.06 1326.52 L 240.75 1326.05 L 242.50 1325.93 L 244.18 1326.18 L 245.84 1326.80 L 247.30 1327.77 L 248.53 1329.15 L 249.54 1331.03 L 259.52 1356.08 L 265.16 1369.73 L 271.29 1384.13 L 277.66 1398.59 L 284.28 1413.03 L 291.11 1427.25 L 297.92 1440.65 L 304.94 1453.53 L 311.64 1464.84 L 316.34 1472.08 L 320.74 1478.26 L 324.87 1483.47 L 331.43 1491.43 L 339.81 1501.98 L 348.62 1513.40 L 358.72 1526.82 L 369.10 1540.90 L 380.27 1556.39 L 391.54 1572.32 L 403.13 1589.06 L 414.62 1606.06 L 425.96 1623.24 L 437.01 1640.49 L 447.42 1657.31 L 457.35 1674.01 L 466.19 1689.65 L 474.32 1705.01 L 480.93 1718.67 L 484.90 1727.76 L 487.99 1735.74 L 490.31 1742.74 L 497.80 1769.07 L 505.91 1799.31 L 514.14 1831.46 L 522.04 1863.48 L 529.13 1893.37 L 534.95 1919.10 L 539.02 1938.65 L 540.35 1946.06 L 540.87 1950.00 Z" fill="#577a5e" fill-rule="nonzero" node-id="43" stroke-linecap="butt" stroke-width="1" target-height="624.0686" target-width="307.5263" target-x="233.34369" target-y="1325.9314"></path><path d="M 684.18 1638.74 L 683.88 1631.68 L 683.69 1623.95 L 683.61 1611.78 L 683.76 1598.22 L 684.30 1580.94 L 685.28 1562.53 L 686.91 1541.08 L 688.32 1526.47 L 690.14 1510.83 L 692.37 1494.12 L 694.94 1477.48 L 698.02 1460.10 L 701.63 1441.95 L 705.67 1423.92 L 710.33 1405.44 L 715.63 1386.50 L 719.94 1372.44 L 724.65 1358.28 L 729.77 1344.03 L 735.31 1329.68 L 741.34 1315.46 L 747.54 1302.12 L 753.90 1289.63 L 760.41 1277.95 L 767.45 1266.30 L 774.52 1255.43 L 781.62 1245.32 L 788.74 1235.91 L 796.32 1226.58 L 803.78 1217.95 L 811.14 1209.99 L 818.39 1202.66 L 828.51 1193.13 L 838.17 1184.70 L 847.40 1177.29 L 856.94 1170.20 L 865.74 1164.09 L 873.86 1158.89 L 885.94 1151.80 L 895.83 1146.58 L 905.02 1142.19 L 911.38 1139.43 L 918.57 1136.56 L 919.95 1137.53 L 921.54 1138.40 L 924.22 1139.48 L 927.31 1140.34 L 931.58 1140.99 L 934.56 1141.15 L 938.09 1141.05 L 942.23 1140.62 L 946.31 1139.90 L 951.00 1138.70 L 956.39 1136.95 L 972.90 1130.80 L 983.26 1126.68 L 988.64 1124.39 L 990.17 1123.67 L 990.93 1121.01 L 991.43 1118.11 L 991.71 1113.59 L 991.61 1110.40 L 991.13 1106.64 L 990.22 1102.22 L 988.92 1097.93 L 986.94 1093.12 L 984.17 1087.73 L 980.96 1082.62 L 976.72 1077.05 L 971.30 1070.94 L 967.04 1066.73 L 962.02 1062.30 L 956.13 1057.61 L 949.31 1052.67 L 946.25 1054.92 L 938.60 1061.14 L 933.91 1065.39 L 928.66 1070.58 L 923.57 1076.23 L 918.71 1082.46 L 915.75 1086.87 L 913.20 1091.38 L 911.04 1096.01 L 909.36 1100.82 L 908.33 1105.62 L 907.94 1110.47 L 903.10 1112.33 L 897.87 1114.52 L 889.78 1118.20 L 880.92 1122.57 L 869.81 1128.52 L 858.23 1135.28 L 845.01 1143.73 L 836.21 1149.80 L 826.94 1156.64 L 817.19 1164.29 L 807.74 1172.24 L 798.07 1181.01 L 788.18 1190.63 L 778.69 1200.61 L 769.22 1211.45 L 759.79 1223.19 L 753.09 1232.21 L 746.53 1241.74 L 740.11 1251.80 L 733.83 1262.42 L 728.02 1273.14 L 722.46 1284.42 L 717.16 1296.29 L 712.14 1308.76 L 704.76 1328.82 L 698.15 1347.80 L 692.29 1365.72 L 687.12 1382.65 L 682.17 1400.06 L 677.83 1416.54 L 674.06 1432.12 L 670.84 1446.85 L 666.97 1466.83 L 663.87 1485.44 L 661.50 1502.76 L 659.58 1520.18 L 658.19 1536.50 L 657.27 1551.78 L 656.50 1574.46 L 656.34 1595.32 L 656.90 1634.76 Z" fill="#577a5e" fill-rule="nonzero" node-id="45" stroke-linecap="butt" stroke-width="1" target-height="586.06995" target-width="335.3672" target-x="656.3426" target-y="1052.67"></path><path d="M 514.02 1950.00 L 515.93 1943.24 L 517.87 1935.80 L 520.73 1924.02 L 523.66 1910.85 L 527.05 1893.98 L 530.26 1875.91 L 533.50 1854.73 L 535.41 1840.23 L 537.16 1824.63 L 538.72 1807.88 L 539.94 1791.14 L 540.81 1773.54 L 541.32 1755.06 L 541.37 1736.60 L 540.91 1717.55 L 539.91 1697.88 L 538.80 1683.20 L 537.30 1668.33 L 535.41 1653.25 L 533.13 1637.97 L 530.46 1622.82 L 527.32 1607.60 L 523.70 1592.31 L 519.60 1576.93 L 515.03 1561.75 L 509.90 1546.60 L 504.21 1531.49 L 497.93 1516.40 L 486.74 1491.60 L 474.86 1466.47 L 462.29 1441.03 L 449.37 1415.77 L 436.02 1390.35 L 422.24 1364.76 L 401.23 1326.54 L 379.85 1288.32 L 337.20 1212.41 L 316.33 1174.72 L 296.35 1137.75 L 283.36 1113.04 L 271.04 1088.81 L 259.38 1065.07 L 248.12 1041.10 L 237.79 1017.77 L 228.35 995.08 L 221.63 977.77 L 215.58 960.91 L 210.15 944.49 L 205.34 928.49 L 199.49 906.72 L 194.29 885.20 L 189.73 863.90 L 185.80 842.82 L 182.49 821.95 L 179.79 801.28 L 177.62 780.32 L 176.04 759.49 L 175.03 738.80 L 174.59 718.23 L 174.71 697.78 L 175.40 677.43 L 176.64 657.06 L 178.40 636.73 L 180.69 616.44 L 183.51 596.18 L 186.85 575.95 L 190.74 555.74 L 195.09 535.73 L 199.93 515.68 L 205.27 495.59 L 211.12 475.45 L 217.47 455.26 L 224.34 435.02 L 228.35 424.32 L 232.65 413.98 L 237.24 403.99 L 242.13 394.34 L 247.30 385.02 L 254.28 373.53 L 261.56 362.56 L 269.13 352.08 L 277.01 342.09 L 285.31 332.33 L 293.75 323.07 L 302.32 314.29 L 311.03 305.97 L 323.07 295.26 L 335.03 285.42 L 346.91 276.40 L 359.12 267.79 L 370.89 260.05 L 382.22 253.13 L 393.80 246.54 L 404.55 240.82 L 414.53 235.90 L 424.67 231.26 L 433.59 227.48 L 441.39 224.46 L 452.63 220.64 L 460.36 218.55 L 465.39 217.66 L 467.93 217.59 L 469.02 217.91 L 470.38 219.25 L 471.44 221.07 L 472.18 223.46 L 472.54 225.98 L 472.65 228.89 L 472.46 232.26 L 471.77 237.35 L 470.59 242.89 L 469.08 248.44 L 467.29 253.92 L 465.29 259.22 L 463.27 263.91 L 461.72 266.75 L 457.85 273.01 L 446.61 290.12 L 430.85 313.49 L 411.89 341.34 L 391.03 371.93 L 369.58 403.47 L 348.86 434.22 L 330.18 462.41 L 314.83 486.27 L 308.55 496.48 L 304.14 504.04 L 298.74 513.13 L 291.83 523.97 L 276.13 548.06 L 267.77 561.34 L 259.14 575.80 L 253.59 585.68 L 248.19 595.97 L 242.96 606.66 L 238.11 617.52 L 233.68 628.68 L 229.69 640.13 L 227.05 648.84 L 224.80 657.66 L 222.92 666.62 L 221.42 675.70 L 220.37 684.82 L 219.82 694.04 L 219.78 703.38 L 220.26 712.84 L 221.29 722.20 L 222.97 731.67 L 225.30 741.28 L 228.31 751.04 L 232.44 762.46 L 237.30 775.05 L 242.96 788.89 L 252.01 809.85 L 262.48 832.92 L 273.61 856.51 L 285.82 881.65 L 298.50 907.12 L 311.92 933.58 L 325.64 960.20 L 339.74 987.23 L 368.23 1041.12 L 396.33 1093.76 L 423.00 1143.67 L 447.19 1189.36 L 461.71 1217.43 L 476.61 1247.08 L 491.34 1277.27 L 506.11 1308.50 L 520.58 1340.10 L 534.75 1372.18 L 548.46 1404.46 L 561.56 1436.68 L 569.99 1458.25 L 578.00 1479.55 L 585.60 1500.57 L 592.91 1521.71 L 599.67 1542.32 L 605.90 1562.41 L 611.76 1582.64 L 616.95 1602.08 L 621.50 1620.77 L 626.31 1642.95 L 630.88 1666.56 L 635.06 1690.55 L 638.94 1715.15 L 642.49 1739.85 L 645.73 1764.35 L 648.69 1788.67 L 651.31 1811.98 L 655.74 1855.85 L 659.09 1893.77 L 661.41 1923.56 L 662.75 1943.04 L 663.19 1950.02 Z" fill="#899f57" fill-rule="nonzero" node-id="47" stroke-linecap="butt" stroke-width="1" target-height="1732.4338" target-width="488.60022" target-x="174.58978" target-y="217.58623"></path><path d="M 892.08 1950.00 L 893.02 1945.18 L 895.57 1931.89 L 899.31 1911.91 L 903.83 1887.02 L 908.71 1858.99 L 913.53 1829.60 L 917.87 1800.62 L 919.76 1786.64 L 921.33 1773.83 L 922.62 1761.50 L 923.48 1751.00 L 924.89 1726.70 L 926.42 1695.58 L 928.13 1659.52 L 930.07 1620.42 L 932.29 1580.17 L 934.83 1540.66 L 936.26 1521.56 L 937.75 1503.78 L 939.41 1486.60 L 941.10 1471.44 L 943.02 1457.11 L 944.93 1445.51 L 947.82 1431.03 L 951.53 1415.00 L 954.32 1404.22 L 957.49 1393.03 L 961.07 1381.41 L 964.92 1369.90 L 969.20 1358.24 L 973.89 1346.43 L 978.94 1334.77 L 984.43 1323.21 L 990.36 1311.74 L 996.73 1300.52 L 1003.55 1289.63 L 1010.83 1279.06 L 1016.63 1271.36 L 1022.70 1263.97 L 1029.04 1256.87 L 1035.66 1250.06 L 1042.59 1243.57 L 1049.82 1237.47 L 1057.35 1231.77 L 1065.19 1226.45 L 1083.13 1215.14 L 1097.06 1206.54 L 1109.80 1198.87 L 1119.22 1193.40 L 1127.70 1188.71 L 1133.54 1185.71 L 1138.67 1183.34 L 1141.85 1182.14 L 1144.57 1181.44 L 1146.02 1181.35 L 1147.20 1181.61 L 1147.91 1182.02 L 1148.10 1182.43 L 1147.96 1183.36 L 1147.11 1185.29 L 1145.44 1188.24 L 1142.72 1192.53 L 1135.81 1202.70 L 1127.46 1214.79 L 1118.75 1227.77 L 1114.56 1234.34 L 1110.76 1240.62 L 1107.81 1245.88 L 1103.47 1254.07 L 1098.85 1263.21 L 1093.25 1274.72 L 1087.50 1286.99 L 1081.16 1301.06 L 1074.84 1315.70 L 1068.30 1331.58 L 1061.96 1347.84 L 1055.75 1364.75 L 1049.92 1381.87 L 1044.59 1399.06 L 1041.33 1410.60 L 1038.44 1421.91 L 1035.90 1433.00 L 1033.70 1444.16 L 1031.99 1454.84 L 1030.76 1465.04 L 1029.41 1476.88 L 1027.27 1492.52 L 1024.71 1509.32 L 1021.44 1529.18 L 1013.65 1573.05 L 1004.29 1622.20 L 993.76 1674.67 L 982.44 1728.51 L 970.73 1781.77 L 959.01 1832.50 L 953.20 1856.64 L 947.68 1878.76 L 942.17 1900.04 L 937.14 1918.59 L 932.11 1936.03 L 927.76 1950.04 Z" fill="#899f57" fill-rule="nonzero" node-id="49" stroke-linecap="butt" stroke-width="1" target-height="768.69006" target-width="256.01886" target-x="892.08" target-y="1181.35"></path><path d="M 620.82 661.49 L 608.27 682.50 L 597.13 701.95 L 587.30 719.94 L 577.85 738.15 L 569.57 755.06 L 562.37 770.73 L 555.58 786.62 L 549.71 801.46 L 544.70 815.32 L 540.11 829.35 L 536.21 842.62 L 532.97 855.16 L 530.11 867.82 L 527.73 880.00 L 525.82 891.71 L 523.87 905.56 L 522.05 920.56 L 520.36 936.78 L 518.96 953.01 L 517.75 970.69 L 516.75 989.91 L 516.07 1009.14 L 515.65 1030.12 L 515.52 1052.95 L 515.70 1075.78 L 516.24 1100.67 L 517.16 1127.72 L 518.39 1154.79 L 520.06 1184.20 L 522.19 1216.09 L 524.83 1248.03 L 528.08 1279.82 L 531.87 1311.43 L 536.07 1342.26 L 540.65 1372.70 L 545.40 1401.75 L 550.40 1430.19 L 555.35 1456.62 L 560.40 1482.24 L 565.15 1505.23 L 574.07 1545.92 L 581.37 1577.04 L 586.29 1596.92 L 588.10 1603.92 L 610.58 1599.83 L 609.20 1593.27 L 605.41 1574.84 L 599.73 1546.41 L 592.69 1509.83 L 584.81 1466.99 L 576.63 1419.75 L 572.60 1395.16 L 568.66 1369.98 L 564.91 1344.70 L 561.43 1319.54 L 558.24 1294.50 L 555.46 1270.30 L 553.10 1246.45 L 551.29 1224.13 L 548.95 1187.32 L 547.15 1150.31 L 546.27 1125.60 L 545.68 1101.15 L 545.40 1076.97 L 545.43 1052.77 L 545.82 1029.21 L 546.55 1006.25 L 547.69 983.29 L 549.22 961.31 L 551.12 940.29 L 552.90 924.41 L 554.92 909.29 L 557.16 894.90 L 559.62 881.23 L 562.51 867.33 L 565.64 854.40 L 568.99 842.37 L 572.55 831.19 L 579.39 812.15 L 586.80 793.22 L 594.62 774.55 L 602.58 756.62 L 610.72 739.13 L 618.54 723.01 L 626.32 707.53 L 633.32 694.04 L 645.57 671.32 L 653.91 656.49 L 656.99 651.19 Z" fill="#577a5e" fill-rule="nonzero" node-id="51" stroke-linecap="butt" stroke-width="1" target-height="952.73004" target-width="141.47394" target-x="515.51605" target-y="651.19"></path><path d="M 782.87 1950.00 L 783.43 1942.03 L 784.19 1933.34 L 785.61 1919.67 L 787.45 1904.48 L 790.15 1885.19 L 793.44 1864.69 L 797.78 1840.91 L 801.05 1824.74 L 804.86 1807.48 L 809.24 1789.10 L 813.96 1770.84 L 819.29 1751.84 L 825.28 1732.08 L 831.69 1712.48 L 838.80 1692.50 L 846.62 1672.12 L 852.82 1657.01 L 859.45 1641.88 L 866.51 1626.72 L 874.00 1611.53 L 881.85 1596.58 L 890.16 1581.78 L 898.93 1567.12 L 908.18 1552.60 L 917.84 1538.40 L 928.01 1524.51 L 938.68 1510.92 L 949.87 1497.63 L 965.21 1480.37 L 979.30 1465.01 L 992.20 1451.39 L 1005.32 1438.00 L 1017.33 1426.13 L 1028.31 1415.66 L 1044.66 1400.68 L 1058.94 1388.20 L 1072.75 1376.62 L 1084.86 1366.78 L 1106.83 1349.17 L 1116.70 1340.99 L 1125.61 1333.14 L 1131.30 1327.77 L 1136.74 1322.21 L 1141.96 1316.46 L 1146.91 1310.49 L 1151.80 1303.98 L 1156.64 1296.90 L 1161.13 1289.62 L 1165.72 1281.42 L 1170.40 1272.23 L 1174.73 1262.89 L 1179.27 1252.26 L 1184.01 1240.22 L 1183.16 1234.66 L 1180.99 1219.31 L 1178.10 1196.17 L 1176.60 1182.60 L 1175.08 1167.26 L 1173.72 1151.44 L 1172.52 1134.58 L 1171.60 1117.50 L 1171.00 1100.14 L 1170.82 1082.81 L 1171.13 1065.94 L 1171.64 1054.75 L 1172.43 1044.10 L 1173.48 1033.99 L 1175.05 1022.47 L 1176.97 1010.70 L 1179.25 998.67 L 1183.16 980.74 L 1187.62 963.01 L 1192.56 945.55 L 1197.75 929.05 L 1203.31 913.09 L 1208.79 898.85 L 1212.69 889.62 L 1216.39 881.52 L 1219.91 874.46 L 1223.74 867.53 L 1227.18 862.09 L 1230.25 857.93 L 1232.96 854.91 L 1235.27 852.96 L 1237.25 851.82 L 1238.97 851.31 L 1240.52 851.38 L 1242.29 851.99 L 1244.36 853.26 L 1246.81 855.42 L 1249.61 858.56 L 1252.76 862.84 L 1256.32 868.49 L 1259.55 874.29 L 1262.94 881.09 L 1266.53 889.01 L 1269.82 897.02 L 1273.13 905.83 L 1276.44 915.50 L 1279.47 925.24 L 1282.35 935.55 L 1285.09 946.47 L 1287.50 957.44 L 1289.64 968.75 L 1291.48 980.40 L 1292.95 992.10 L 1294.01 1003.91 L 1294.65 1015.82 L 1294.83 1027.74 L 1294.48 1039.54 L 1293.61 1051.22 L 1291.96 1065.09 L 1289.72 1079.38 L 1286.89 1094.11 L 1283.44 1109.30 L 1279.56 1124.21 L 1275.14 1139.39 L 1270.16 1154.87 L 1264.60 1170.64 L 1258.68 1186.13 L 1252.27 1201.75 L 1245.35 1217.50 L 1237.91 1233.38 L 1230.14 1249.01 L 1221.94 1264.60 L 1213.29 1280.15 L 1204.20 1295.68 L 1194.77 1310.97 L 1184.98 1326.06 L 1174.82 1340.97 L 1164.28 1355.69 L 1142.24 1386.09 L 1115.82 1423.19 L 1086.24 1465.24 L 1054.75 1510.51 L 1022.58 1557.26 L 990.98 1603.76 L 961.17 1648.26 L 934.39 1689.03 L 922.27 1707.89 L 911.89 1724.34 L 902.31 1739.92 L 894.90 1752.43 L 888.50 1763.90 L 884.65 1771.59 L 881.82 1778.17 L 878.92 1785.65 L 875.97 1794.11 L 871.87 1807.06 L 867.81 1821.29 L 864.01 1835.83 L 860.38 1850.77 L 856.98 1865.73 L 853.87 1880.19 L 848.47 1907.19 L 844.37 1929.40 L 841.77 1944.46 L 840.86 1950.00 Z" fill="#577a5e" fill-rule="nonzero" node-id="53" stroke-linecap="butt" stroke-width="1" target-height="1098.69" target-width="511.95612" target-x="782.87006" target-y="851.31"></path><path d="M 839.65 847.76 L 826.23 868.23 L 814.28 887.20 L 803.71 904.75 L 793.51 922.56 L 784.53 939.10 L 776.69 954.46 L 769.23 970.05 L 762.75 984.63 L 757.17 998.26 L 752.00 1012.09 L 747.55 1025.18 L 743.78 1037.56 L 740.40 1050.09 L 737.52 1062.15 L 735.12 1073.76 L 732.59 1087.52 L 730.14 1102.43 L 727.78 1118.57 L 725.70 1134.73 L 723.76 1152.34 L 721.95 1171.51 L 720.46 1190.69 L 719.17 1211.63 L 718.08 1234.44 L 717.31 1257.27 L 716.81 1282.17 L 716.59 1309.24 L 716.69 1336.34 L 717.12 1365.80 L 717.92 1397.76 L 719.55 1456.96 L 720.97 1518.12 L 722.19 1579.32 L 723.23 1638.63 L 724.08 1694.11 L 724.77 1743.84 L 725.28 1785.87 L 725.64 1818.29 L 725.85 1839.16 L 725.92 1846.54 L 751.65 1844.63 L 751.63 1837.75 L 751.56 1818.42 L 751.42 1788.59 L 751.21 1750.22 L 750.91 1705.27 L 750.52 1655.70 L 750.01 1603.46 L 749.38 1550.52 L 748.62 1498.82 L 747.72 1450.33 L 746.65 1407.01 L 745.85 1370.14 L 745.59 1333.09 L 745.74 1308.36 L 746.18 1283.92 L 746.91 1259.74 L 747.95 1235.57 L 749.33 1212.04 L 751.02 1189.14 L 753.11 1166.24 L 755.56 1144.35 L 758.34 1123.42 L 760.78 1107.63 L 763.43 1092.60 L 766.27 1078.33 L 769.30 1064.76 L 772.77 1051.00 L 776.44 1038.21 L 780.29 1026.33 L 784.31 1015.31 L 791.94 996.57 L 800.13 977.97 L 808.74 959.64 L 817.44 942.06 L 826.31 924.93 L 834.79 909.15 L 843.21 894.01 L 850.77 880.82 L 863.95 858.64 L 872.91 844.17 L 876.21 839.00 Z" fill="#577a5e" fill-rule="nonzero" node-id="55" stroke-linecap="butt" stroke-width="1" target-height="1007.54004" target-width="159.61743" target-x="716.5926" target-y="839"></path><path d="M 60.23 1097.54 L 63.26 1099.65 L 66.70 1101.68 L 72.28 1104.45 L 76.33 1106.17 L 81.26 1107.92 L 87.18 1109.69 L 93.15 1111.10 L 100.01 1112.24 L 107.85 1113.09 L 115.69 1113.43 L 124.44 1113.22 L 134.20 1112.38 L 141.34 1111.36 L 149.01 1109.87 L 157.25 1107.86 L 166.10 1105.28 L 174.55 1102.40 L 183.57 1098.86 L 193.19 1094.59 L 203.46 1089.54 L 216.69 1082.38 L 228.01 1075.78 L 237.62 1069.70 L 247.01 1063.23 L 254.83 1057.36 L 261.26 1052.03 L 267.45 1046.37 L 272.41 1041.34 L 276.31 1036.87 L 279.94 1032.13 L 282.69 1028.04 L 284.68 1024.51 L 286.41 1020.82 L 287.58 1017.78 L 288.28 1015.30 L 288.93 1011.72 L 289.04 1009.53 L 288.87 1007.54 L 242.87 866.54 L 241.41 862.97 L 239.66 859.25 L 236.77 853.81 L 233.28 848.08 L 228.59 841.41 L 225.10 837.05 L 221.08 832.62 L 216.48 828.10 L 211.60 823.91 L 206.15 819.95 L 200.09 816.21 L 195.39 813.77 L 190.33 811.59 L 184.89 809.69 L 179.04 808.08 L 173.21 806.93 L 166.94 806.19 L 160.21 805.89 L 152.96 806.06 L 152.89 809.74 L 153.09 819.61 L 153.45 826.11 L 154.14 833.97 L 155.14 842.16 L 156.62 851.10 L 158.58 860.11 L 161.14 869.25 L 163.20 875.27 L 165.58 881.09 L 168.28 886.73 L 171.36 892.15 L 174.80 897.17 L 178.62 901.80 L 184.66 908.71 L 190.91 916.43 L 197.02 924.44 L 203.06 932.75 L 208.92 941.16 L 214.43 949.34 L 224.39 964.76 L 232.29 977.55 L 237.50 986.28 L 239.38 989.51 L 183.98 1035.85 L 180.30 1035.64 L 176.32 1035.57 L 170.25 1035.69 L 163.57 1036.09 L 155.33 1036.99 L 146.71 1038.39 L 137.04 1040.55 L 130.57 1042.38 L 123.85 1044.64 L 116.89 1047.39 L 110.10 1050.51 L 103.26 1054.20 L 96.37 1058.49 L 91.42 1061.99 L 86.55 1065.87 L 81.74 1070.16 L 76.98 1074.87 L 72.57 1079.79 L 68.31 1085.19 L 64.20 1091.09 L 60.23 1097.54 Z" fill="#fffdf3" fill-rule="nonzero" node-id="57" stroke-linecap="butt" stroke-width="1" target-height="307.54395" target-width="228.8129" target-x="60.23001" target-y="805.88684"></path><path d="M 453.89 1054.15 L 459.14 1058.47 L 473.69 1070.99 L 483.45 1079.70 L 495.73 1091.01 L 508.64 1103.29 L 523.45 1117.86 L 538.60 1133.36 L 555.04 1150.87 L 565.96 1162.92 L 577.17 1175.74 L 588.70 1189.34 L 602.20 1205.88 L 616.00 1223.53 L 630.11 1242.33 L 643.80 1261.40 L 657.51 1281.43 L 671.23 1302.48 L 681.16 1318.41 L 690.94 1334.81 L 700.57 1351.70 L 710.06 1369.07 L 719.14 1386.54 L 727.93 1404.41 L 736.42 1422.68 L 744.61 1441.38 L 752.34 1460.20 L 759.63 1479.35 L 766.49 1498.85 L 772.91 1518.70 L 779.65 1541.22 L 786.20 1564.43 L 792.55 1588.35 L 798.55 1612.34 L 804.26 1636.71 L 809.67 1661.46 L 814.72 1686.29 L 819.39 1711.17 L 823.68 1736.12 L 827.57 1761.13 L 831.00 1785.88 L 833.98 1810.38 L 836.50 1834.94 L 838.50 1858.92 L 839.97 1882.32 L 840.93 1905.78 L 841.29 1928.33 L 841.08 1950.00 L 814.08 1950.00 L 813.88 1942.81 L 813.07 1922.54 L 811.32 1891.13 L 810.03 1872.37 L 808.30 1850.54 L 806.25 1827.80 L 803.69 1802.71 L 800.72 1776.98 L 797.16 1749.60 L 793.10 1721.85 L 788.39 1693.16 L 784.92 1673.98 L 781.14 1654.70 L 777.05 1635.33 L 772.63 1616.03 L 767.88 1596.94 L 762.80 1578.06 L 757.32 1559.29 L 751.50 1541.05 L 745.34 1523.30 L 733.53 1491.43 L 722.67 1463.41 L 711.79 1436.69 L 701.61 1413.10 L 694.66 1397.81 L 687.92 1383.61 L 681.38 1370.45 L 674.58 1357.40 L 667.86 1345.11 L 661.23 1333.53 L 654.34 1322.09 L 647.39 1311.06 L 640.38 1300.42 L 629.48 1284.71 L 618.09 1269.19 L 606.26 1253.80 L 593.58 1237.91 L 580.43 1221.86 L 566.10 1204.66 L 546.47 1181.59 L 529.85 1162.70 L 514.00 1145.32 L 500.90 1131.53 L 488.52 1119.06 L 478.64 1109.59 L 469.41 1101.22 L 462.42 1095.27 L 456.03 1090.21 L 451.62 1087.01 L 447.75 1084.46 L 445.61 1083.21 L 443.74 1082.30 L 442.75 1083.60 L 441.58 1084.85 L 439.68 1086.50 L 437.43 1088.02 L 434.43 1089.48 L 432.27 1090.21 L 429.76 1090.74 L 426.86 1091.03 L 423.96 1090.99 L 420.65 1090.54 L 416.85 1089.63 L 413.19 1088.35 L 409.02 1086.43 L 404.29 1083.77 L 390.82 1075.83 L 380.63 1070.39 L 371.44 1065.97 L 365.78 1063.54 L 360.63 1061.62 L 391.54 1000.00 L 394.01 1001.48 L 400.51 1005.32 L 409.65 1010.65 L 420.02 1016.59 L 430.25 1022.25 L 438.95 1026.76 L 442.52 1028.82 L 445.45 1031.05 L 447.82 1033.43 L 449.89 1036.11 L 451.48 1038.76 L 452.66 1041.38 L 453.88 1045.41 L 454.38 1048.87 L 454.34 1052.08 L 453.89 1054.15 Z" fill="#577a5e" fill-rule="nonzero" node-id="59" stroke-linecap="butt" stroke-width="1" target-height="950" target-width="480.65826" target-x="360.63" target-y="1000"></path><path d="M 229.94 887.07 L 229.94 887.07 L 228.94 886.95 L 228.10 886.49 L 227.46 885.77 L 227.12 884.83 L 226.05 880.45 L 224.50 876.40 L 222.46 872.62 L 219.95 869.15 L 217.06 866.12 L 213.78 863.50 L 210.16 861.39 L 206.25 859.83 L 201.99 858.83 L 198.29 858.53 L 194.72 858.68 L 191.25 859.26 L 187.86 860.30 L 184.61 861.72 L 181.57 863.50 L 178.71 865.64 L 176.02 868.15 L 173.64 870.93 L 171.56 873.97 L 169.78 877.29 L 168.29 880.93 L 167.82 881.77 L 167.12 882.37 L 166.25 882.70 L 165.29 882.71 L 165.04 882.71 L 162.30 882.58 L 159.58 882.93 L 156.83 883.80 L 154.02 885.21 L 151.47 886.97 L 148.92 889.15 L 146.39 891.82 L 143.85 895.04 L 140.92 899.53 L 138.18 904.70 L 135.64 910.64 L 133.55 916.74 L 131.83 923.35 L 130.48 930.49 L 129.63 937.59 L 129.34 944.66 L 129.60 951.74 L 130.41 958.84 L 130.73 961.87 L 130.73 964.88 L 130.43 967.87 L 129.83 970.82 L 128.93 973.69 L 127.72 976.49 L 124.78 983.44 L 122.38 990.53 L 120.51 997.78 L 119.17 1005.20 L 118.32 1012.35 L 117.92 1019.10 L 117.95 1025.47 L 118.40 1031.83 L 119.23 1037.53 L 120.39 1042.62 L 122.03 1047.59 L 123.92 1051.66 L 126.02 1054.95 L 127.96 1057.18 L 129.98 1058.85 L 132.10 1060.02 L 134.35 1060.75 L 135.52 1061.29 L 136.35 1062.28 L 138.75 1067.19 L 140.49 1070.41 L 142.72 1074.14 L 145.20 1077.84 L 148.00 1081.46 L 151.08 1084.79 L 154.33 1087.52 L 156.67 1089.01 L 159.03 1090.04 L 161.43 1090.65 L 165.14 1090.95 L 168.71 1090.81 L 172.18 1090.22 L 175.57 1089.18 L 178.83 1087.75 L 181.88 1085.97 L 184.74 1083.83 L 187.43 1081.31 L 188.28 1080.69 L 189.26 1080.45 L 190.25 1080.57 L 191.17 1081.09 L 193.00 1082.66 L 193.82 1083.14 L 194.76 1083.31 L 250.01 1083.31 L 250.86 1083.17 L 251.59 1082.80 L 252.18 1082.21 L 252.57 1081.45 L 297.82 942.42 L 297.95 941.60 L 297.83 940.81 L 297.49 940.08 L 296.93 939.47 L 231.82 887.65 L 230.94 887.18 L 229.94 887.07 Z" fill="#f5d084" fill-rule="nonzero" node-id="61" stroke-linecap="butt" stroke-width="1" target-height="232.42743" target-width="180.03217" target-x="117.91687" target-y="858.5274"></path><path d="M 161.74 946.42 L 162.74 947.01 L 163.61 948.22 L 164.31 950.35 L 164.65 952.61 L 164.78 955.46 L 164.62 959.01 L 163.94 964.39 L 162.61 970.56 L 160.78 976.60 L 158.77 981.63 L 157.19 984.81 L 155.70 987.24 L 154.30 989.06 L 152.65 990.58 L 151.31 991.22 L 150.14 991.24 L 149.14 990.66 L 148.27 989.44 L 147.57 987.31 L 147.23 985.05 L 147.10 982.20 L 147.25 978.65 L 147.94 973.28 L 149.27 967.11 L 151.10 961.06 L 153.10 956.03 L 154.69 952.86 L 156.18 950.42 L 157.58 948.61 L 159.22 947.09 L 160.57 946.44 L 161.74 946.42 Z" fill="#f0a63b" fill-rule="nonzero" node-id="63" stroke-linecap="butt" stroke-width="1" target-height="44.825195" target-width="17.673462" target-x="147.1026" target-y="946.4192"></path><path d="M 185.27 933.18 C 185.27 935.37 179.96 937.14 173.40 937.14 C 166.84 937.14 161.53 935.37 161.53 933.18 C 161.53 930.99 166.84 929.22 173.40 929.22 C 179.96 929.22 185.27 930.99 185.27 933.18 Z" fill="#f0a63b" fill-rule="nonzero" node-id="65" stroke="none" target-height="7.920044" target-width="23.740005" target-x="161.53" target-y="929.22"></path><path d="M 391.82 1001.26 L 389.73 997.84 L 387.64 994.09 L 384.74 988.37 L 381.86 981.99 L 378.79 974.08 L 376.96 968.57 L 375.30 962.61 L 373.83 956.17 L 372.72 949.67 L 372.04 942.91 L 371.78 935.86 L 372.06 928.82 L 372.99 921.66 L 374.59 914.35 L 376.83 905.92 L 379.21 896.11 L 381.33 885.85 L 383.10 874.57 L 383.93 866.91 L 384.41 858.97 L 384.51 850.72 L 384.14 842.49 L 383.21 834.10 L 381.69 825.53 L 380.16 819.21 L 378.20 812.85 L 375.79 806.44 L 372.91 799.97 L 369.68 793.77 L 365.88 787.54 L 361.47 781.29 L 356.43 775.00 L 351.11 769.16 L 345.06 763.32 L 338.21 757.47 L 330.51 751.61 L 322.71 746.34 L 313.98 741.10 L 304.23 735.91 L 293.40 730.77 L 290.47 734.49 L 282.91 744.86 L 278.13 751.91 L 272.53 760.71 L 266.96 770.14 L 261.16 780.88 L 257.50 788.28 L 253.99 796.04 L 250.64 804.17 L 247.62 812.43 L 245.00 820.85 L 242.77 829.43 L 241.04 838.12 L 239.92 846.80 L 239.39 855.48 L 239.45 862.01 L 239.96 868.45 L 240.92 874.82 L 242.33 881.15 L 246.79 897.10 L 250.52 909.22 L 254.24 920.07 L 257.22 927.82 L 260.19 934.55 L 262.44 938.90 L 264.65 942.48 L 266.16 944.41 L 267.61 945.80 L 268.40 946.30 L 269.14 946.49 L 267.55 945.19 L 265.68 943.95 L 262.46 942.22 L 258.69 940.63 L 253.40 938.97 L 249.65 938.10 L 245.18 937.38 L 239.88 936.84 L 234.60 936.61 L 228.48 936.71 L 221.44 937.21 L 214.47 938.07 L 206.55 939.48 L 197.59 941.49 L 170.15 948.61 L 151.06 953.96 L 139.02 957.66 L 132.75 959.80 L 130.95 960.49 L 133.09 963.85 L 139.14 972.82 L 148.52 985.76 L 154.18 993.05 L 160.68 1000.99 L 167.57 1008.90 L 175.05 1016.87 L 182.89 1024.55 L 191.05 1031.74 L 196.72 1036.25 L 202.42 1040.31 L 208.14 1043.95 L 214.08 1047.20 L 219.94 1049.81 L 225.74 1051.83 L 222.30 1053.22 L 218.67 1054.87 L 213.27 1057.57 L 207.50 1060.80 L 200.62 1065.13 L 196.05 1068.31 L 191.27 1071.96 L 186.29 1076.14 L 181.53 1080.54 L 176.85 1085.44 L 172.23 1090.85 L 167.98 1096.54 L 164.03 1102.76 L 160.40 1109.52 L 158.04 1114.73 L 155.97 1120.27 L 154.20 1126.15 L 152.74 1132.39 L 149.65 1149.69 L 147.43 1165.07 L 145.77 1179.79 L 144.73 1192.25 L 144.08 1203.90 L 143.81 1212.93 L 143.86 1226.08 L 144.06 1230.69 L 148.73 1231.04 L 161.34 1231.46 L 169.68 1231.41 L 179.83 1231.03 L 190.42 1230.22 L 202.09 1228.81 L 209.94 1227.53 L 217.92 1225.88 L 226.05 1223.87 L 234.07 1221.46 L 241.92 1218.60 L 249.63 1215.28 L 255.25 1212.46 L 260.63 1209.32 L 265.79 1205.88 L 270.73 1202.12 L 275.38 1198.03 L 279.68 1193.57 L 283.65 1188.71 L 287.29 1183.45 L 293.14 1173.69 L 298.25 1164.55 L 302.66 1155.99 L 308.80 1143.16 L 313.97 1131.54 L 323.38 1110.02 L 326.49 1103.38 L 329.71 1097.18 L 333.01 1091.37 L 336.64 1085.78 L 340.65 1080.50 L 345.04 1075.54 L 348.56 1072.09 L 352.48 1068.76 L 356.81 1065.54 L 361.59 1062.45 Z" fill="#fffdf3" fill-rule="nonzero" node-id="67" stroke-linecap="butt" stroke-width="1" target-height="500.68933" target-width="260.87" target-x="130.95001" target-y="730.77"></path><path d="M 683.10 1950.00 L 681.64 1943.43 L 677.50 1925.27 L 671.02 1897.79 L 662.55 1863.32 L 652.44 1824.13 L 646.90 1803.59 L 641.04 1782.54 L 634.94 1761.50 L 628.69 1740.83 L 622.21 1720.46 L 615.75 1701.30 L 609.04 1682.76 L 602.55 1666.26 L 597.98 1655.56 L 593.62 1646.18 L 589.46 1638.00 L 580.62 1621.22 L 573.32 1606.98 L 560.72 1582.29 L 555.07 1571.80 L 549.99 1563.16 L 546.44 1557.74 L 542.93 1552.98 L 539.46 1548.84 L 535.69 1544.99 L 531.69 1541.57 L 527.46 1538.57 L 522.97 1535.98 L 517.94 1533.64 L 512.32 1531.59 L 506.57 1529.93 L 499.96 1528.44 L 492.38 1527.13 L 487.94 1526.78 L 483.50 1526.96 L 479.04 1527.68 L 474.52 1528.97 L 470.18 1530.68 L 465.80 1532.81 L 461.38 1535.40 L 456.91 1538.46 L 451.27 1542.89 L 445.64 1547.89 L 440.03 1553.49 L 434.68 1559.35 L 429.47 1565.51 L 424.39 1571.97 L 417.16 1581.89 L 410.48 1591.80 L 404.24 1601.71 L 398.80 1610.87 L 393.81 1619.73 L 389.84 1627.09 L 384.10 1638.37 L 382.08 1642.59 L 379.88 1647.39 L 373.75 1660.49 L 364.39 1679.97 L 352.50 1703.91 L 338.77 1730.39 L 331.44 1743.97 L 323.92 1757.47 L 316.22 1770.74 L 308.63 1783.23 L 300.90 1795.22 L 293.61 1805.74 L 289.80 1810.65 L 285.53 1815.54 L 280.78 1820.43 L 275.53 1825.31 L 268.28 1831.42 L 260.44 1837.44 L 251.98 1843.36 L 243.30 1848.97 L 234.31 1854.41 L 225.00 1859.68 L 210.84 1867.13 L 196.67 1874.03 L 182.48 1880.47 L 169.03 1886.21 L 155.87 1891.51 L 144.16 1895.98 L 124.10 1903.12 L 110.93 1907.42 L 109.57 1907.63 L 108.58 1907.43 L 107.83 1906.88 L 107.28 1905.91 L 106.95 1904.35 L 106.94 1901.59 L 107.50 1897.57 L 108.85 1891.88 L 111.55 1883.16 L 115.69 1871.86 L 120.53 1859.92 L 126.53 1846.12 L 133.06 1831.90 L 140.44 1816.51 L 148.19 1800.93 L 156.46 1784.86 L 164.99 1768.84 L 173.67 1753.03 L 182.49 1737.48 L 191.11 1722.84 L 199.77 1708.70 L 207.84 1696.13 L 215.88 1684.34 L 222.93 1674.76 L 244.57 1646.56 L 256.59 1631.31 L 269.95 1615.08 L 279.21 1604.35 L 289.08 1593.48 L 299.58 1582.47 L 310.39 1571.79 L 321.84 1561.25 L 333.95 1550.86 L 343.27 1543.40 L 352.97 1536.18 L 363.07 1529.18 L 373.57 1522.40 L 384.26 1516.07 L 395.37 1510.09 L 406.92 1504.48 L 418.94 1499.23 L 428.61 1495.45 L 438.60 1491.98 L 448.91 1488.83 L 459.55 1486.00 L 470.55 1483.49 L 479.23 1481.94 L 487.59 1480.85 L 495.62 1480.19 L 503.37 1479.96 L 510.83 1480.14 L 520.31 1480.91 L 529.38 1482.21 L 538.09 1484.03 L 546.45 1486.36 L 554.71 1489.21 L 562.66 1492.46 L 570.31 1496.10 L 577.68 1500.14 L 584.86 1504.56 L 591.76 1509.26 L 598.41 1514.23 L 604.79 1519.48 L 613.00 1526.86 L 620.75 1534.49 L 628.07 1542.37 L 635.08 1550.53 L 641.65 1558.68 L 647.78 1566.81 L 656.50 1579.15 L 664.20 1590.80 L 677.61 1612.33 L 683.46 1621.86 L 688.27 1629.40 L 690.73 1633.43 L 693.66 1638.90 L 697.15 1646.09 L 702.20 1657.41 L 708.06 1671.56 L 713.97 1686.61 L 720.43 1703.72 L 733.69 1740.47 L 747.27 1779.72 L 760.61 1819.35 L 773.14 1857.29 L 784.29 1891.42 L 793.50 1919.65 L 800.19 1939.88 L 803.80 1950.02 Z" fill="#899f57" fill-rule="nonzero" node-id="69" stroke-linecap="butt" stroke-width="1" target-height="470.05518" target-width="696.85876" target-x="106.94119" target-y="1479.9648"></path><path d="M 952.21 482.76 L 951.72 480.33 L 950.74 477.77 L 949.23 475.05 L 947.09 472.14 L 943.89 468.65 L 939.84 464.99 L 934.82 461.14 L 929.57 457.64 L 923.61 454.11 L 916.89 450.57 L 910.04 447.34 L 902.69 444.23 L 894.82 441.25 L 886.85 438.57 L 878.61 436.14 L 870.10 433.97 L 861.52 432.13 L 852.90 430.65 L 844.24 429.54 L 835.54 428.82 L 827.05 428.57 L 818.73 428.76 L 822.90 421.39 L 826.66 413.53 L 830.02 405.16 L 832.90 396.61 L 835.39 387.84 L 837.49 378.85 L 839.21 369.78 L 840.56 360.80 L 841.55 351.91 L 842.22 342.98 L 842.57 334.49 L 842.60 326.43 L 842.33 318.34 L 841.79 311.04 L 841.02 304.49 L 839.90 297.94 L 838.62 292.55 L 837.22 288.17 L 835.80 284.87 L 834.39 282.45 L 832.98 280.73 L 831.59 279.58 L 828.54 277.97 L 825.09 276.71 L 821.18 275.82 L 816.75 275.33 L 812.41 275.28 L 807.71 275.63 L 802.61 276.41 L 797.07 277.67 L 791.79 279.24 L 786.23 281.26 L 780.38 283.78 L 774.23 286.81 L 768.38 290.08 L 762.37 293.84 L 756.20 298.13 L 749.86 302.97 L 743.86 308.00 L 737.83 313.56 L 731.75 319.67 L 725.63 326.36 L 719.90 333.20 L 714.25 340.60 L 708.68 348.58 L 703.19 357.19 L 698.42 365.43 L 694.12 373.93 L 689.55 366.46 L 684.48 359.10 L 678.90 351.83 L 672.99 344.82 L 666.81 338.05 L 660.34 331.51 L 653.63 325.22 L 646.89 319.30 L 640.11 313.75 L 633.15 308.42 L 626.42 303.61 L 619.92 299.30 L 613.24 295.21 L 607.09 291.77 L 601.44 288.93 L 595.60 286.37 L 590.61 284.57 L 586.36 283.40 L 582.97 282.82 L 580.25 282.70 L 578.09 282.95 L 576.36 283.49 L 573.11 285.23 L 569.96 287.42 L 566.90 290.08 L 563.93 293.27 L 561.05 297.04 L 558.01 301.89 L 555.22 307.44 L 552.69 313.76 L 550.45 320.93 L 548.78 328.04 L 547.49 335.78 L 546.63 344.22 L 546.22 353.41 L 546.33 362.37 L 546.97 371.89 L 548.18 381.99 L 550.00 392.72 L 552.30 403.12 L 555.28 413.96 L 558.98 425.29 L 563.44 437.12 L 554.00 436.89 L 545.03 437.07 L 536.49 437.63 L 528.37 438.55 L 520.17 439.87 L 512.41 441.45 L 505.08 443.30 L 498.16 445.39 L 489.01 448.68 L 480.64 452.23 L 473.01 456.02 L 465.59 460.24 L 458.99 464.50 L 453.13 468.79 L 447.51 473.42 L 442.73 477.85 L 438.72 482.08 L 434.98 486.60 L 432.11 490.64 L 429.98 494.27 L 428.25 498.12 L 427.37 501.22 L 427.13 503.72 L 427.45 506.39 L 428.28 509.25 L 429.70 512.36 L 431.79 515.75 L 434.99 519.86 L 439.13 524.28 L 444.37 529.03 L 449.87 533.43 L 456.19 537.96 L 463.41 542.64 L 470.80 547.01 L 478.82 551.35 L 487.50 555.66 L 496.31 559.68 L 505.54 563.52 L 515.19 567.18 L 524.96 570.51 L 534.91 573.54 L 545.05 576.25 L 555.28 578.59 L 565.48 580.50 L 575.64 581.98 L 573.06 589.82 L 571.03 597.46 L 569.52 604.91 L 568.51 612.19 L 567.91 619.61 L 567.70 626.77 L 567.86 633.67 L 568.38 640.34 L 569.60 649.23 L 571.24 657.50 L 573.28 665.19 L 575.79 672.76 L 578.44 679.51 L 581.23 685.50 L 584.40 691.35 L 587.41 696.16 L 590.27 700.05 L 593.48 703.71 L 596.17 706.13 L 598.41 707.59 L 600.87 708.59 L 603.73 709.30 L 607.07 709.67 L 610.96 709.67 L 616.01 709.17 L 621.71 708.11 L 628.13 706.39 L 634.42 704.28 L 641.12 701.64 L 648.25 698.41 L 655.23 694.87 L 662.35 690.87 L 669.63 686.40 L 676.72 681.63 L 683.71 676.51 L 690.58 671.02 L 697.21 665.24 L 703.49 659.22 L 709.42 652.95 L 715.00 646.38 L 720.01 639.69 L 724.47 632.86 L 730.78 639.68 L 737.47 646.12 L 744.81 652.49 L 752.12 658.26 L 759.40 663.45 L 766.66 668.11 L 774.24 672.48 L 781.68 676.36 L 789.00 679.78 L 796.20 682.75 L 806.05 686.27 L 815.47 689.11 L 824.47 691.30 L 833.60 693.04 L 842.05 694.26 L 849.87 695.00 L 857.75 695.38 L 864.69 695.40 L 870.78 695.12 L 876.89 694.52 L 881.76 693.77 L 885.59 692.90 L 889.38 691.67 L 891.58 690.56 L 892.70 689.60 L 893.68 688.00 L 894.54 685.77 L 895.23 682.77 L 895.71 678.80 L 895.87 673.71 L 895.65 667.60 L 894.95 660.31 L 893.91 653.10 L 892.42 645.20 L 890.43 636.56 L 888.13 628.03 L 885.37 619.19 L 882.14 610.01 L 878.54 600.98 L 874.52 592.01 L 870.04 583.09 L 865.15 574.40 L 859.85 566.12 L 854.15 558.23 L 862.55 555.17 L 870.87 551.69 L 879.11 547.79 L 887.19 543.55 L 894.96 539.10 L 902.43 534.44 L 909.74 529.51 L 916.50 524.60 L 922.75 519.72 L 928.83 514.60 L 934.13 509.75 L 938.72 505.18 L 943.09 500.35 L 946.47 496.09 L 948.99 492.35 L 950.68 489.25 L 951.69 486.68 L 952.16 484.55 L 952.21 482.76 Z" fill="#fffdf3" fill-rule="nonzero" node-id="71" stroke-linecap="butt" stroke-width="1" target-height="434.39432" target-width="525.08" target-x="427.13" target-y="275.27988"></path><path d="M 790.82 407.94 L 786.46 405.12 L 781.84 402.78 L 777.01 400.95 L 771.98 399.64 L 770.52 395.08 L 768.43 390.56 L 765.66 386.07 L 762.39 381.92 L 758.51 378.02 L 753.98 374.36 L 749.96 371.76 L 745.94 369.62 L 741.90 367.94 L 737.83 366.67 L 733.60 365.79 L 729.54 365.34 L 725.61 365.31 L 721.79 365.68 L 718.01 366.48 L 714.53 367.69 L 711.31 369.28 L 708.33 371.28 L 703.03 369.99 L 697.95 369.17 L 693.05 368.81 L 688.14 368.87 L 683.58 369.35 L 679.35 370.24 L 675.26 371.58 L 671.65 373.29 L 668.45 375.36 L 665.63 377.87 L 663.33 380.72 L 661.54 383.95 L 660.48 387.02 L 659.90 390.15 L 659.77 393.38 L 660.13 396.75 L 660.89 400.02 L 662.06 403.32 L 663.65 406.68 L 665.71 410.10 L 662.97 411.98 L 660.53 414.13 L 658.36 416.58 L 656.51 419.27 L 655.01 422.17 L 653.86 425.28 L 653.17 428.58 L 652.92 431.85 L 653.09 435.11 L 653.70 438.39 L 654.69 441.57 L 656.04 444.68 L 657.76 447.72 L 659.89 450.71 L 663.13 454.34 L 666.93 457.68 L 671.33 460.73 L 667.27 464.92 L 663.65 469.44 L 660.45 474.32 L 658.07 478.70 L 656.10 483.08 L 654.53 487.47 L 653.30 491.96 L 652.46 496.37 L 651.99 500.69 L 651.88 505.04 L 652.13 509.20 L 652.73 513.20 L 658.75 512.69 L 664.63 512.81 L 670.39 513.54 L 674.63 514.50 L 678.76 515.84 L 682.79 517.56 L 686.73 519.66 L 689.93 521.75 L 692.94 524.05 L 695.76 526.58 L 698.39 529.32 L 700.80 532.25 L 702.99 535.38 L 707.62 532.60 L 711.94 529.43 L 715.95 525.89 L 719.62 521.99 L 722.91 517.77 L 725.84 513.23 L 728.38 508.53 L 730.49 503.69 L 732.18 498.68 L 733.44 493.49 L 737.02 491.78 L 740.44 489.78 L 743.35 492.39 L 746.44 494.78 L 751.08 497.75 L 755.75 500.09 L 760.47 501.86 L 765.35 503.10 L 770.07 503.75 L 774.66 503.85 L 779.21 503.38 L 783.43 502.36 L 787.36 500.81 L 790.14 499.26 L 792.65 497.42 L 794.92 495.27 L 796.97 492.78 L 798.76 489.87 L 800.11 486.82 L 801.05 483.59 L 801.57 480.27 L 801.70 476.86 L 801.42 473.33 L 800.77 469.84 L 799.74 466.33 L 798.32 462.78 L 800.85 460.93 L 803.10 458.80 L 805.09 456.38 L 806.78 453.66 L 808.08 450.83 L 809.02 447.87 L 809.59 444.76 L 809.81 440.54 L 809.42 436.23 L 808.41 431.77 L 806.86 427.46 L 804.74 423.20 L 802.00 418.98 L 798.83 415.07 L 795.12 411.39 L 790.82 407.94 Z" fill="#f5d084" fill-rule="nonzero" node-id="73" stroke-linecap="butt" stroke-width="1" target-height="170.07123" target-width="157.93091" target-x="651.87775" target-y="365.30878"></path><path d="M 738.42 420.75 C 738.42 422.67 733.15 424.23 726.64 424.23 C 720.13 424.23 714.86 422.67 714.86 420.75 C 714.86 418.83 720.13 417.27 726.64 417.27 C 733.15 417.27 738.42 418.83 738.42 420.75 Z" fill="#f0a63b" fill-rule="nonzero" node-id="75" stroke="none" target-height="6.960022" target-width="23.559998" target-x="714.86" target-y="417.27"></path><path d="M 750.87 423.45 L 751.36 423.73 L 751.81 424.40 L 752.18 425.66 L 752.40 427.77 L 752.35 430.78 L 752.01 433.99 L 751.36 437.72 L 750.44 441.39 L 749.44 444.46 L 748.27 447.23 L 747.20 449.07 L 746.35 450.07 L 745.68 450.50 L 745.11 450.56 L 744.62 450.27 L 744.18 449.61 L 743.81 448.35 L 743.58 446.24 L 743.63 443.23 L 743.97 440.01 L 744.63 436.29 L 745.54 432.62 L 746.54 429.54 L 747.71 426.77 L 748.78 424.94 L 749.63 423.94 L 750.30 423.51 L 750.87 423.45 Z" fill="#f0a63b" fill-rule="nonzero" node-id="77" stroke-linecap="butt" stroke-width="1" target-height="27.115356" target-width="8.819336" target-x="743.581" target-y="423.4452"></path><path d="M 722.32 436.87 L 725.32 438.54 L 727.76 440.19 L 729.87 441.95 L 731.19 443.42 L 731.81 444.47 L 731.99 445.25 L 731.87 445.87 L 731.45 446.34 L 730.70 446.65 L 729.49 446.78 L 727.52 446.59 L 724.86 445.94 L 722.08 444.95 L 718.96 443.53 L 715.96 441.86 L 713.52 440.22 L 711.42 438.46 L 710.10 436.99 L 709.48 435.94 L 709.29 435.15 L 709.41 434.53 L 709.84 434.07 L 710.58 433.75 L 711.79 433.63 L 713.76 433.82 L 716.42 434.47 L 719.20 435.45 L 722.32 436.87 Z" fill="#f0a63b" fill-rule="nonzero" node-id="79" stroke-linecap="butt" stroke-width="1" target-height="13.149841" target-width="22.702393" target-x="709.29016" target-y="433.62787"></path><path d="M 1212.95 774.25 L 1212.54 771.94 L 1211.60 769.37 L 1210.04 766.46 L 1207.72 763.17 L 1204.32 759.22 L 1199.96 754.91 L 1194.50 750.20 L 1188.81 745.82 L 1182.36 741.31 L 1175.10 736.67 L 1167.67 732.32 L 1159.76 728.06 L 1151.33 723.90 L 1142.76 720.04 L 1133.99 716.48 L 1125.01 713.21 L 1115.90 710.30 L 1106.89 707.88 L 1097.95 705.91 L 1088.92 704.44 L 1080.26 703.59 L 1071.95 703.34 L 1076.45 696.52 L 1080.61 689.30 L 1084.42 681.66 L 1087.84 673.83 L 1090.90 665.84 L 1093.61 657.67 L 1095.97 649.40 L 1097.98 641.25 L 1099.64 633.19 L 1101.00 625.08 L 1102.01 617.37 L 1102.68 610.06 L 1103.06 602.70 L 1103.12 596.06 L 1102.88 590.09 L 1102.29 584.11 L 1101.44 579.17 L 1100.38 575.13 L 1099.23 572.10 L 1098.00 569.83 L 1096.70 568.16 L 1095.34 567.00 L 1091.33 564.69 L 1086.63 562.67 L 1081.18 560.95 L 1075.58 559.77 L 1069.43 559.06 L 1062.67 558.87 L 1057.64 559.11 L 1052.38 559.71 L 1046.87 560.69 L 1041.09 562.08 L 1035.51 563.80 L 1029.77 565.99 L 1023.84 568.68 L 1017.71 571.90 L 1011.91 575.40 L 1006.01 579.50 L 999.98 584.22 L 993.82 589.62 L 988.11 595.22 L 982.36 601.54 L 976.55 608.64 L 970.69 616.57 L 965.60 624.19 L 960.97 632.10 L 958.14 627.39 L 954.94 622.85 L 951.37 618.48 L 947.40 614.27 L 941.76 609.05 L 935.63 604.12 L 929.01 599.48 L 922.13 595.22 L 914.99 591.27 L 907.59 587.62 L 900.04 584.28 L 892.48 581.27 L 884.92 578.58 L 873.55 575.04 L 862.81 572.25 L 852.29 570.03 L 843.05 568.53 L 834.27 567.59 L 827.42 567.31 L 823.01 567.48 L 819.87 567.90 L 817.72 568.49 L 814.24 570.14 L 811.03 572.24 L 808.07 574.81 L 805.33 577.90 L 802.99 581.26 L 800.93 585.00 L 799.14 589.17 L 797.63 593.81 L 796.55 598.47 L 795.79 603.45 L 795.38 608.75 L 795.34 614.42 L 795.67 619.98 L 796.41 625.75 L 797.56 631.73 L 799.15 637.94 L 801.09 643.96 L 803.49 650.06 L 806.38 656.27 L 809.78 662.58 L 813.49 668.60 L 817.74 674.59 L 822.54 680.57 L 827.93 686.55 L 814.61 685.64 L 802.55 685.23 L 791.65 685.28 L 781.83 685.74 L 771.62 686.67 L 762.55 687.89 L 754.53 689.38 L 747.45 691.09 L 740.15 693.31 L 733.86 695.62 L 728.49 698.01 L 723.92 700.45 L 719.33 703.40 L 715.62 706.25 L 712.66 709.00 L 710.37 711.68 L 708.33 714.75 L 706.97 717.57 L 706.19 720.17 L 705.93 722.61 L 706.08 725.18 L 706.62 728.12 L 707.62 731.51 L 709.18 735.42 L 711.59 740.28 L 714.76 745.66 L 718.81 751.63 L 723.17 757.33 L 728.22 763.30 L 734.02 769.55 L 740.09 775.52 L 746.73 781.50 L 754.00 787.50 L 761.51 793.16 L 769.48 798.58 L 777.92 803.78 L 786.62 808.54 L 795.63 812.85 L 805.00 816.71 L 812.16 819.24 L 819.44 821.39 L 826.85 823.18 L 834.40 824.61 L 831.49 831.98 L 829.21 838.99 L 827.50 845.66 L 826.32 852.02 L 825.55 858.59 L 825.20 864.81 L 825.26 870.70 L 825.69 876.30 L 826.82 883.77 L 828.39 890.63 L 830.40 896.92 L 832.87 903.05 L 835.52 908.51 L 838.33 913.35 L 841.49 918.01 L 844.51 921.90 L 847.40 925.09 L 850.56 928.08 L 853.23 930.20 L 855.48 931.61 L 858.77 933.04 L 862.81 934.14 L 867.75 934.84 L 872.72 935.08 L 878.31 934.93 L 884.56 934.33 L 890.76 933.37 L 897.34 931.99 L 904.33 930.17 L 911.23 928.02 L 918.27 925.46 L 925.46 922.47 L 932.51 919.14 L 939.48 915.43 L 946.36 911.32 L 953.01 906.86 L 959.36 902.04 L 965.43 896.85 L 971.13 891.28 L 976.34 885.38 L 981.07 879.14 L 987.10 885.88 L 993.51 892.27 L 1000.61 898.60 L 1007.64 904.20 L 1014.59 909.14 L 1021.48 913.44 L 1028.72 917.41 L 1035.81 920.84 L 1042.75 923.74 L 1049.56 926.15 L 1058.89 928.85 L 1067.80 930.83 L 1076.31 932.14 L 1084.91 932.94 L 1092.88 933.25 L 1100.27 933.11 L 1107.68 932.58 L 1114.23 931.79 L 1120.00 930.78 L 1125.75 929.46 L 1130.38 928.16 L 1134.04 926.87 L 1137.66 925.28 L 1139.81 924.04 L 1140.94 923.09 L 1142.24 921.31 L 1143.41 918.91 L 1144.44 915.77 L 1145.27 911.73 L 1145.81 906.46 L 1145.90 900.18 L 1145.45 892.73 L 1144.51 885.37 L 1142.96 877.31 L 1140.74 868.47 L 1138.02 859.81 L 1134.58 850.77 L 1130.36 841.33 L 1126.87 834.47 L 1122.92 827.58 L 1118.49 820.65 L 1113.58 813.68 L 1143.70 805.62 L 1158.07 801.68 L 1170.99 797.91 L 1183.21 793.98 L 1193.15 790.29 L 1199.44 787.52 L 1204.28 784.92 L 1207.90 782.49 L 1210.38 780.27 L 1211.93 778.19 L 1212.75 776.21 L 1212.95 774.25 Z" fill="#fffdf3" fill-rule="nonzero" node-id="81" stroke-linecap="butt" stroke-width="1" target-height="376.20782" target-width="507.01996" target-x="705.93" target-y="558.87366"></path><path d="M 1053.44 661.21 L 1050.36 659.45 L 1046.63 657.70 L 1042.72 656.16 L 1038.81 654.86 L 1034.97 653.82 L 1031.80 653.21 L 1030.37 649.16 L 1028.45 645.32 L 1026.03 641.65 L 1023.18 638.30 L 1019.64 635.07 L 1015.34 631.95 L 1010.26 628.98 L 1005.19 626.58 L 1000.11 624.72 L 996.16 623.67 L 992.39 623.02 L 988.78 622.75 L 985.30 622.84 L 981.85 623.36 L 978.67 624.31 L 975.74 625.71 L 973.02 627.55 L 965.63 626.05 L 958.78 625.17 L 954.24 624.93 L 950.09 625.03 L 946.29 625.44 L 942.58 626.25 L 939.35 627.43 L 936.54 628.96 L 934.63 630.41 L 933.00 632.10 L 931.61 634.06 L 930.46 636.31 L 929.57 639.13 L 929.13 641.99 L 929.12 644.91 L 929.55 647.95 L 930.36 650.88 L 931.55 653.83 L 933.14 656.81 L 935.17 659.84 L 932.68 661.61 L 930.47 663.63 L 928.52 665.92 L 926.87 668.43 L 925.54 671.11 L 924.54 674.00 L 924.08 676.96 L 924.19 679.69 L 924.83 682.25 L 925.93 684.68 L 927.45 687.04 L 929.43 689.34 L 932.88 692.48 L 937.05 695.53 L 941.55 698.35 L 946.40 701.08 L 943.01 704.59 L 938.95 709.16 L 935.06 713.96 L 933.40 716.28 L 932.21 718.16 L 929.87 722.78 L 928.02 727.33 L 926.64 731.85 L 925.71 736.34 L 925.19 740.95 L 925.11 745.35 L 925.45 749.57 L 926.21 753.63 L 931.82 752.96 L 937.32 752.87 L 942.73 753.33 L 948.05 754.38 L 953.20 756.04 L 958.21 758.31 L 962.68 761.04 L 966.80 764.24 L 970.52 767.88 L 973.82 771.95 L 978.47 768.94 L 982.74 765.56 L 986.64 761.78 L 990.16 757.65 L 993.24 753.23 L 995.90 748.50 L 998.09 743.53 L 999.79 738.36 L 1001.00 732.95 L 1003.89 732.88 L 1005.63 732.49 L 1007.00 731.78 L 1007.82 730.97 L 1008.83 729.11 L 1009.30 728.27 L 1009.93 727.63 L 1010.91 728.23 L 1012.09 728.57 L 1014.64 728.94 L 1015.90 729.22 L 1017.02 729.73 L 1021.47 732.40 L 1025.75 734.58 L 1029.88 736.31 L 1033.87 737.62 L 1038.06 738.56 L 1041.93 738.96 L 1045.54 738.85 L 1048.94 738.28 L 1051.56 737.44 L 1053.98 736.23 L 1056.25 734.64 L 1058.36 732.65 L 1060.34 730.20 L 1061.93 727.50 L 1063.11 724.68 L 1063.88 721.74 L 1064.27 718.71 L 1064.28 715.62 L 1063.91 712.44 L 1063.20 709.31 L 1062.13 706.18 L 1060.69 703.02 L 1064.23 700.41 L 1065.72 698.85 L 1066.81 697.02 L 1068.38 692.73 L 1069.27 688.60 L 1069.55 684.57 L 1069.30 681.58 L 1068.60 678.61 L 1067.42 675.62 L 1065.72 672.59 L 1063.70 669.88 L 1061.05 667.09 L 1057.67 664.21 L 1053.44 661.21 Z" fill="#f5d084" fill-rule="nonzero" node-id="83" stroke-linecap="butt" stroke-width="1" target-height="149.19794" target-width="145.46625" target-x="924.08185" target-y="622.7521"></path><path d="M 993.73 659.50 L 996.73 659.74 L 999.27 660.15 L 1001.59 660.77 L 1003.18 661.44 L 1004.32 662.31 L 1004.62 663.09 L 1004.26 663.85 L 1003.05 664.62 L 1001.42 665.16 L 999.05 665.59 L 996.48 665.80 L 993.48 665.80 L 990.48 665.56 L 987.94 665.14 L 985.62 664.52 L 984.03 663.85 L 982.89 662.98 L 982.59 662.20 L 982.95 661.45 L 984.16 660.68 L 985.80 660.14 L 988.16 659.71 L 990.73 659.50 L 993.73 659.50 Z" fill="#f0a63b" fill-rule="nonzero" node-id="85" stroke-linecap="butt" stroke-width="0.99999994" target-height="6.300537" target-width="22.022095" target-x="982.59424" target-y="659.4978"></path><path d="M 1016.17 666.04 L 1016.62 666.33 L 1017.00 666.96 L 1017.29 668.12 L 1017.41 670.05 L 1017.24 672.77 L 1016.80 675.68 L 1016.03 679.02 L 1015.03 682.31 L 1013.97 685.04 L 1012.77 687.50 L 1011.70 689.11 L 1010.87 689.97 L 1010.23 690.33 L 1009.69 690.35 L 1009.24 690.06 L 1008.86 689.43 L 1008.57 688.28 L 1008.45 686.35 L 1008.62 683.62 L 1009.06 680.72 L 1009.83 677.37 L 1010.83 674.09 L 1011.88 671.35 L 1013.09 668.90 L 1014.16 667.28 L 1014.99 666.42 L 1015.63 666.07 L 1016.17 666.04 Z" fill="#f0a63b" fill-rule="nonzero" node-id="87" stroke-linecap="butt" stroke-width="0.99999994" target-height="24.312988" target-width="8.966309" target-x="1008.4459" target-y="666.03955"></path><path d="M 988.75 676.97 L 991.49 678.59 L 993.72 680.17 L 995.64 681.84 L 996.83 683.23 L 997.39 684.21 L 997.54 684.93 L 997.42 685.50 L 997.02 685.91 L 996.33 686.18 L 995.20 686.26 L 993.39 686.03 L 990.93 685.35 L 988.38 684.37 L 985.52 682.97 L 982.78 681.36 L 980.55 679.78 L 978.63 678.10 L 977.43 676.71 L 976.88 675.73 L 976.72 675.01 L 976.84 674.44 L 977.24 674.03 L 977.94 673.76 L 979.06 673.68 L 980.88 673.91 L 983.33 674.59 L 985.88 675.57 L 988.75 676.97 Z" fill="#f0a63b" fill-rule="nonzero" node-id="89" stroke-linecap="butt" stroke-width="1" target-height="12.576477" target-width="20.82434" target-x="976.7205" target-y="673.6822"></path></svg>