<?xml version="1.0" standalone="no"?><!DOCTYPE svg PUBLIC "-//W3C//DTD SVG 1.1//EN" "http://www.w3.org/Graphics/SVG/1.1/DTD/svg11.dtd"><svg height="2000" legacy-metrics="false" node-id="1" sillyvg="true" template-height="2000" template-width="1400" version="1.1" viewBox="0 0 1400 2000" width="1400" xmlns="http://www.w3.org/2000/svg" xmlns:xlink="http://www.w3.org/1999/xlink"><defs node-id="59"></defs><path d="M 0.00 0.00 L 1400.00 0.00 L 1400.00 2000.00 L 0.00 2000.00 Z" fill="#899f57" fill-rule="nonzero" node-id="62" stroke="none" target-height="2000" target-width="1400" target-x="0" target-y="0"></path><path d="M 50.00 50.00 L 1350.00 50.00 L 1350.00 1950.00 L 50.00 1950.00 Z" fill="#d1def2" fill-rule="nonzero" node-id="64" stroke="none" target-height="1900" target-width="1300" target-x="50" target-y="50"></path><path d="M 678.56 1950.00 L 678.42 1943.47 L 677.97 1924.72 L 677.15 1895.04 L 675.91 1855.70 L 674.18 1808.00 L 672.24 1764.16 L 669.86 1719.76 L 667.22 1676.87 L 664.49 1637.53 L 661.86 1603.79 L 659.49 1577.70 L 658.64 1572.90 L 656.25 1563.41 L 653.17 1552.50 L 648.73 1537.55 L 637.81 1501.71 L 624.38 1457.50 L 609.32 1406.49 L 601.53 1379.20 L 593.51 1350.29 L 585.65 1320.90 L 577.84 1290.49 L 570.35 1259.78 L 563.19 1228.67 L 556.52 1197.45 L 550.45 1166.43 L 546.74 1145.71 L 543.43 1125.36 L 540.49 1105.36 L 537.26 1080.95 L 534.12 1055.31 L 531.16 1029.38 L 528.36 1002.99 L 525.73 976.56 L 523.30 950.46 L 519.04 899.79 L 515.66 853.05 L 513.25 812.29 L 512.42 794.25 L 511.92 779.60 L 511.67 766.23 L 511.74 757.03 L 512.02 751.17 L 512.41 748.05 L 512.81 746.64 L 487.44 753.44 L 487.30 753.64 L 487.19 755.34 L 487.41 761.30 L 489.15 784.29 L 492.34 820.21 L 496.68 866.88 L 501.84 922.10 L 507.54 983.68 L 513.44 1049.44 L 514.89 1064.29 L 516.94 1082.94 L 519.39 1103.40 L 522.01 1123.70 L 524.61 1141.83 L 526.97 1155.80 L 529.51 1168.48 L 533.58 1188.16 L 538.71 1212.55 L 544.46 1239.36 L 550.36 1266.32 L 555.96 1291.13 L 560.81 1311.53 L 564.44 1325.22 L 568.09 1337.99 L 574.05 1359.49 L 581.70 1387.52 L 590.43 1419.86 L 599.64 1454.30 L 608.71 1488.62 L 617.03 1520.62 L 623.99 1548.07 L 628.98 1568.77 L 630.68 1576.54 L 631.39 1580.50 L 632.55 1591.42 L 634.11 1609.81 L 635.95 1633.63 L 637.95 1660.86 L 639.98 1689.47 L 641.91 1717.42 L 643.63 1742.70 L 645.02 1763.27 L 645.94 1777.10 L 646.27 1782.16 L 644.34 1777.85 L 639.06 1766.03 L 631.19 1748.40 L 621.50 1726.64 L 610.75 1702.42 L 599.72 1677.43 L 589.17 1653.37 L 579.85 1631.90 L 572.55 1614.71 L 565.94 1599.68 L 553.96 1573.11 L 537.55 1536.84 L 517.66 1492.72 L 495.23 1442.62 L 471.20 1388.38 L 446.54 1331.85 L 422.17 1274.89 L 410.33 1246.66 L 399.05 1219.35 L 388.09 1192.02 L 378.22 1166.39 L 368.95 1141.37 L 360.85 1118.73 L 353.32 1096.97 L 347.07 1078.30 L 337.04 1047.03 L 330.92 1026.85 L 328.84 1019.69 L 326.18 1020.65 L 319.59 1022.98 L 311.15 1025.82 L 302.94 1028.34 L 299.35 1029.26 L 297.05 1029.69 L 299.40 1035.65 L 305.86 1052.05 L 315.57 1076.70 L 327.67 1107.38 L 341.27 1141.90 L 355.53 1178.05 L 369.56 1213.62 L 382.50 1246.42 L 393.48 1274.22 L 401.64 1294.84 L 406.11 1306.07 L 414.10 1324.90 L 425.27 1349.83 L 438.76 1379.14 L 453.72 1411.09 L 469.28 1443.96 L 484.61 1476.02 L 498.83 1505.55 L 511.10 1530.82 L 520.55 1550.09 L 526.34 1561.65 L 531.91 1573.46 L 541.33 1594.47 L 553.68 1622.51 L 568.03 1655.40 L 583.47 1690.96 L 599.07 1727.03 L 613.90 1761.42 L 627.04 1791.96 L 637.57 1816.46 L 644.56 1832.76 L 647.10 1838.68 L 647.87 1950.00 Z" fill="#577a5e" fill-rule="nonzero" node-id="66" stroke-linecap="butt" stroke-width="1" target-height="1203.36" target-width="381.51" target-x="297.05" target-y="746.64"></path><path d="M 319.13 791.45 L 323.05 792.52 L 333.21 795.44 L 347.18 799.78 L 354.81 802.34 L 362.53 805.11 L 370.09 808.05 L 376.85 810.98 L 383.10 814.11 L 387.71 816.96 L 396.96 823.99 L 409.57 834.22 L 424.19 846.47 L 439.50 859.60 L 454.16 872.43 L 466.85 883.82 L 476.24 892.61 L 482.54 899.02 L 488.60 905.65 L 494.36 912.37 L 499.41 918.60 L 504.06 924.62 L 507.58 929.44 L 510.56 933.79 L 512.00 936.17 L 512.56 937.56 L 512.81 938.91 L 512.76 940.25 L 512.19 942.18 L 511.11 943.89 L 509.61 945.26 L 507.74 946.19 L 506.37 946.51 L 504.90 946.53 L 503.29 946.25 L 501.25 945.44 L 496.79 943.22 L 485.07 936.76 L 470.28 928.09 L 454.55 918.42 L 440.02 908.96 L 433.64 904.51 L 428.85 900.92 L 416.73 891.56 L 402.73 881.00 L 388.75 870.67 L 376.71 861.95 L 368.51 856.26 L 365.55 854.14 L 361.71 851.03 L 357.76 847.54 L 353.39 843.41 L 349.06 839.02 L 344.75 834.34 L 340.65 829.51 L 337.00 824.78 L 333.75 819.99 L 331.33 815.68 L 325.04 803.06 L 320.73 794.57 L 319.13 791.45 Z" fill="#577a5e" fill-rule="nonzero" node-id="68" stroke-linecap="butt" stroke-width="1" target-height="155.08392" target-width="193.67822" target-x="319.13" target-y="791.45"></path><path d="M 247.00 1535.87 L 247.05 1536.79 L 247.59 1537.80 L 248.84 1538.99 L 251.20 1540.50 L 254.69 1542.19 L 258.52 1543.72 L 262.94 1545.25 L 271.98 1547.94 L 280.22 1550.04 L 283.63 1550.73 L 288.71 1551.57 L 300.84 1553.15 L 314.89 1554.62 L 329.11 1555.80 L 341.75 1556.50 L 347.19 1556.62 L 351.07 1556.55 L 354.67 1557.39 L 364.21 1559.57 L 377.80 1562.54 L 393.55 1565.76 L 409.58 1568.69 L 417.28 1569.91 L 424.00 1570.80 L 430.30 1571.40 L 434.91 1571.55 L 438.25 1571.31 L 442.29 1570.66 L 447.13 1569.50 L 454.39 1567.23 L 462.69 1564.07 L 471.08 1560.36 L 479.84 1555.98 L 488.47 1551.16 L 496.83 1545.93 L 504.80 1540.33 L 511.88 1534.63 L 516.31 1530.58 L 520.08 1526.63 L 523.25 1522.79 L 524.56 1520.65 L 525.39 1518.53 L 525.77 1516.41 L 525.73 1514.25 L 525.25 1512.01 L 524.19 1509.36 L 522.58 1506.60 L 520.33 1503.71 L 517.34 1500.66 L 513.07 1497.07 L 507.88 1493.41 L 501.63 1489.68 L 495.19 1486.35 L 488.08 1483.14 L 480.24 1480.04 L 472.28 1477.31 L 463.97 1474.85 L 455.27 1472.68 L 446.50 1470.89 L 437.69 1469.51 L 428.84 1468.54 L 419.96 1468.03 L 411.38 1468.05 L 403.06 1468.58 L 393.50 1469.86 L 384.58 1471.61 L 376.24 1473.82 L 368.04 1476.52 L 360.32 1479.49 L 353.07 1482.73 L 342.52 1488.08 L 332.81 1493.62 L 314.77 1504.80 L 306.23 1510.05 L 298.21 1514.59 L 292.80 1517.32 L 287.54 1519.55 L 282.42 1521.32 L 267.28 1525.69 L 257.33 1528.57 L 253.73 1529.77 L 251.39 1530.73 L 249.49 1531.83 L 248.34 1532.91 L 247.54 1534.21 L 247.00 1535.87 Z" fill="#577a5e" fill-rule="nonzero" node-id="70" stroke-linecap="butt" stroke-width="1" target-height="103.51526" target-width="278.7683" target-x="247" target-y="1468.0348"></path><path d="M 538.17 785.84 L 538.03 786.76 L 538.36 787.86 L 539.34 789.27 L 541.36 791.22 L 544.45 793.56 L 547.92 795.81 L 551.95 798.18 L 560.31 802.59 L 568.00 806.27 L 571.21 807.62 L 576.04 809.44 L 587.63 813.38 L 601.11 817.58 L 614.81 821.53 L 627.06 824.70 L 632.37 825.89 L 636.19 826.58 L 639.55 828.12 L 648.48 832.12 L 661.22 837.70 L 676.03 843.96 L 691.17 849.99 L 698.47 852.70 L 704.89 854.90 L 710.95 856.72 L 715.44 857.78 L 718.77 858.20 L 722.85 858.36 L 727.82 858.17 L 735.39 857.38 L 744.15 855.91 L 753.10 853.92 L 762.56 851.35 L 771.96 848.31 L 781.18 844.83 L 790.10 840.90 L 798.17 836.71 L 803.31 833.60 L 807.78 830.47 L 811.65 827.33 L 813.36 825.49 L 814.58 823.58 L 815.38 821.58 L 815.76 819.45 L 815.74 817.16 L 815.22 814.35 L 814.18 811.34 L 812.55 808.06 L 810.22 804.47 L 806.74 800.12 L 802.36 795.52 L 796.97 790.63 L 791.31 786.10 L 784.97 781.55 L 777.89 776.97 L 770.62 772.73 L 762.95 768.68 L 754.86 764.84 L 746.60 761.36 L 738.24 758.27 L 729.75 755.59 L 721.14 753.34 L 712.72 751.67 L 704.46 750.55 L 694.83 749.92 L 685.74 749.88 L 677.13 750.41 L 668.56 751.44 L 660.41 752.84 L 652.66 754.59 L 641.27 757.77 L 630.66 761.28 L 610.77 768.70 L 601.37 772.17 L 592.61 775.06 L 586.77 776.66 L 581.18 777.82 L 575.81 778.55 L 560.08 779.85 L 549.72 780.71 L 545.96 781.17 L 543.48 781.66 L 541.40 782.36 L 540.05 783.19 L 539.02 784.32 L 538.17 785.84 Z" fill="#577a5e" fill-rule="nonzero" node-id="72" stroke-linecap="butt" stroke-width="1" target-height="108.47162" target-width="277.73303" target-x="538.0299" target-y="749.8849"></path><path d="M 454.62 472.21 L 457.62 467.00 L 460.97 461.89 L 463.41 458.63 L 465.96 455.70 L 468.61 453.06 L 471.49 450.73 L 474.44 448.94 L 477.48 447.64 L 479.85 447.04 L 482.29 446.81 L 484.84 446.98 L 487.52 447.56 L 490.01 448.48 L 492.68 449.93 L 495.56 451.97 L 498.68 454.72 L 501.39 457.56 L 504.31 461.16 L 507.48 465.61 L 510.90 471.05 L 515.78 479.83 L 520.28 488.91 L 524.42 498.31 L 528.18 507.88 L 531.57 517.51 L 534.60 527.21 L 537.32 537.01 L 539.69 546.61 L 541.72 556.01 L 544.26 570.04 L 546.06 582.98 L 547.30 595.54 L 547.90 606.40 L 547.98 611.38 L 547.89 624.77 L 547.63 633.58 L 547.10 644.22 L 546.30 655.31 L 545.09 667.38 L 543.48 679.59 L 541.36 691.91 L 539.62 700.09 L 537.62 707.93 L 535.37 715.47 L 532.73 722.88 L 529.80 729.61 L 526.62 735.71 L 523.85 740.13 L 520.92 744.00 L 517.83 747.38 L 514.58 750.30 L 510.99 752.81 L 507.17 754.72 L 503.10 756.08 L 498.73 756.87 L 493.37 757.30 L 488.28 757.29 L 484.96 756.90 L 481.82 756.07 L 478.82 754.77 L 475.41 752.65 L 472.10 750.13 L 468.91 747.20 L 465.81 743.82 L 462.08 739.02 L 458.52 733.64 L 455.13 727.64 L 452.09 721.45 L 449.23 714.87 L 446.56 707.90 L 443.01 697.25 L 439.88 686.28 L 437.17 675.23 L 434.87 664.46 L 432.89 653.85 L 431.31 644.13 L 428.97 626.95 L 427.63 614.60 L 427.20 607.98 L 427.03 599.24 L 427.15 589.92 L 427.53 579.28 L 428.13 568.34 L 428.94 556.85 L 429.94 545.33 L 431.10 534.09 L 432.43 523.07 L 433.83 513.12 L 435.41 503.67 L 436.96 496.07 L 438.74 489.27 L 440.31 485.08 L 442.46 480.95 L 444.31 477.97 L 445.90 475.93 L 447.73 474.08 L 449.23 472.93 L 450.45 472.30 L 452.31 471.80 L 453.50 471.84 L 454.62 472.21 Z" fill="#ffffff" fill-rule="nonzero" node-id="74" stroke-linecap="butt" stroke-width="1" target-height="310.4816" target-width="120.95007" target-x="427.03357" target-y="446.81448"></path><path d="M 228.70 972.00 L 224.26 969.63 L 212.08 963.71 L 203.91 960.10 L 193.85 956.03 L 183.18 952.16 L 171.26 948.39 L 163.10 946.17 L 154.69 944.23 L 146.00 942.59 L 135.10 940.91 L 124.85 939.60 L 115.23 938.63 L 105.55 938.01 L 96.68 937.84 L 88.54 938.08 L 82.37 938.60 L 76.72 939.42 L 71.54 940.51 L 66.79 941.85 L 62.10 943.63 L 57.90 945.72 L 54.16 948.13 L 50.83 950.86 L 46.76 955.01 L 43.74 958.65 L 41.61 961.84 L 39.82 965.26 L 38.67 968.17 L 38.07 970.64 L 37.78 973.20 L 37.78 975.23 L 38.03 976.84 L 38.71 979.00 L 39.31 980.00 L 39.71 980.18 L 40.53 980.13 L 42.06 979.60 L 47.55 976.88 L 54.56 973.11 L 58.30 971.23 L 61.89 969.61 L 65.42 968.31 L 68.31 967.65 L 71.09 967.45 L 76.17 967.43 L 81.92 967.64 L 89.31 968.12 L 97.13 968.82 L 105.94 969.84 L 114.96 971.12 L 124.32 972.74 L 133.63 974.68 L 142.65 976.94 L 151.38 979.62 L 159.18 982.59 L 165.13 985.25 L 172.72 988.84 L 189.85 997.36 L 209.16 1007.20 L 229.24 1017.43 L 248.69 1027.12 L 266.10 1035.33 L 273.89 1038.71 L 280.07 1041.13 L 285.71 1042.94 L 289.18 1043.59 L 295.09 1043.79 L 299.32 1043.55 L 303.05 1042.94 L 305.47 1042.23 L 307.46 1041.34 L 308.50 1040.67 L 309.32 1039.92 L 312.62 1038.23 L 314.62 1037.80 L 319.59 1036.41 L 322.66 1035.33 L 326.03 1033.90 L 329.32 1032.18 L 332.41 1030.11 L 333.82 1028.75 L 335.20 1026.87 L 336.53 1024.37 L 338.11 1020.28 L 339.46 1015.25 L 340.42 1009.93 L 341.05 1004.14 L 341.31 998.27 L 341.19 992.45 L 340.66 986.73 L 339.73 981.55 L 338.52 976.88 L 336.37 969.71 L 330.57 952.38 L 323.02 931.75 L 318.81 920.90 L 314.41 910.02 L 309.87 899.30 L 305.42 889.37 L 300.88 879.90 L 296.74 872.00 L 287.07 854.32 L 275.02 832.82 L 268.31 821.42 L 261.12 809.80 L 253.61 798.39 L 245.90 787.56 L 240.51 780.58 L 235.18 774.21 L 229.89 768.42 L 224.28 762.94 L 218.87 758.39 L 213.63 754.68 L 197.78 744.59 L 187.91 738.01 L 184.47 735.46 L 182.15 733.51 L 180.19 731.54 L 178.62 729.63 L 175.46 724.93 L 173.80 722.77 L 172.11 721.17 L 170.40 720.05 L 167.60 718.93 L 164.89 718.50 L 162.22 718.55 L 159.92 718.91 L 156.46 719.93 L 154.78 720.64 L 152.68 721.88 L 151.36 722.93 L 150.10 724.31 L 148.90 726.07 L 148.01 727.99 L 147.37 730.42 L 147.03 733.48 L 146.87 741.04 L 146.82 751.28 L 147.00 762.29 L 147.52 772.21 L 147.99 776.41 L 148.51 779.15 L 148.14 782.71 L 147.93 786.56 L 147.91 792.44 L 148.22 798.90 L 149.10 806.88 L 150.01 812.33 L 151.31 818.22 L 153.04 824.59 L 154.82 829.73 L 157.81 837.19 L 161.33 845.25 L 165.77 854.96 L 176.00 876.14 L 187.56 898.99 L 199.54 921.76 L 211.01 942.68 L 221.03 960.01 L 225.44 967.13 L 228.70 972.00 Z" fill="#ffffff" fill-rule="nonzero" node-id="76" stroke-linecap="butt" stroke-width="1" target-height="325.29205" target-width="303.5337" target-x="37.77661" target-y="718.50006"></path><path d="M 454.62 472.21 L 453.79 477.97 L 451.77 493.65 L 449.27 516.88 L 448.08 530.34 L 446.99 545.28 L 446.16 560.58 L 445.64 576.48 L 445.53 592.42 L 445.92 608.09 L 446.50 618.49 L 447.38 628.36 L 448.53 637.73 L 450.76 652.68 L 453.15 667.54 L 455.75 682.23 L 458.46 696.09 L 461.44 709.53 L 464.49 721.44 L 466.76 729.17 L 469.01 735.87 L 471.25 741.63 L 473.86 747.26 L 476.37 751.55 L 478.77 754.73 L 476.87 753.63 L 474.90 752.29 L 471.94 749.96 L 468.85 747.14 L 465.12 743.14 L 461.49 738.55 L 457.57 732.59 L 455.17 728.33 L 452.79 723.40 L 450.42 717.73 L 448.99 713.54 L 447.58 708.47 L 446.19 702.41 L 444.46 693.07 L 442.86 682.32 L 441.53 671.21 L 440.38 659.39 L 439.46 647.45 L 438.73 635.53 L 438.19 623.73 L 437.86 612.68 L 437.71 602.00 L 437.74 592.77 L 437.97 584.17 L 438.34 577.73 L 439.80 557.24 L 441.55 535.20 L 442.72 523.97 L 444.20 512.85 L 446.06 501.88 L 448.35 491.44 L 450.20 484.61 L 452.30 478.21 L 454.62 472.21 Z" fill="#f2f4e9" fill-rule="nonzero" node-id="78" stroke-linecap="butt" stroke-width="1" target-height="282.52" target-width="41.061157" target-x="437.70886" target-y="472.21"></path><path d="M 228.09 971.09 L 230.76 974.55 L 238.10 983.55 L 243.04 989.31 L 249.09 996.05 L 255.55 1002.89 L 262.72 1009.99 L 270.22 1016.87 L 277.98 1023.32 L 283.36 1027.34 L 288.65 1030.89 L 293.86 1033.97 L 299.28 1036.65 L 304.43 1038.61 L 309.35 1039.90 L 307.94 1040.80 L 306.36 1041.61 L 303.90 1042.61 L 301.12 1043.41 L 297.55 1043.98 L 293.74 1044.09 L 289.21 1043.57 L 287.48 1043.00 L 285.15 1041.77 L 282.03 1039.64 L 277.48 1035.98 L 271.96 1031.02 L 266.34 1025.60 L 260.30 1019.48 L 248.40 1006.77 L 237.57 994.65 L 229.16 984.88 L 224.48 979.23 L 221.73 977.43 L 214.28 972.73 L 203.33 966.20 L 197.01 962.63 L 190.08 958.90 L 182.97 955.30 L 175.72 951.90 L 168.42 948.80 L 161.46 946.25 L 156.77 944.80 L 152.46 943.74 L 148.48 943.02 L 152.03 943.82 L 161.63 946.21 L 175.65 950.16 L 183.67 952.67 L 192.48 955.65 L 201.39 958.94 L 210.50 962.63 L 219.47 966.69 L 228.09 971.09 Z" fill="#f2f4e9" fill-rule="nonzero" node-id="80" stroke-linecap="butt" stroke-width="1" target-height="101.06714" target-width="160.86996" target-x="148.48001" target-y="943.02"></path><path d="M 875.74 915.51 L 879.05 902.56 L 883.20 884.87 L 887.80 864.64 L 892.44 844.07 L 896.74 825.35 L 900.28 810.67 L 901.78 805.08 L 902.68 802.22 L 900.39 802.50 L 894.91 802.83 L 891.63 802.78 L 888.32 802.46 L 885.17 801.74 L 882.67 800.61 L 881.34 799.53 L 880.49 798.19 L 880.06 796.52 L 879.25 799.66 L 877.16 807.81 L 874.29 819.07 L 871.13 831.54 L 868.20 843.32 L 865.98 852.52 L 863.88 862.08 L 861.28 874.65 L 858.57 888.10 L 856.14 900.33 L 854.39 909.22 L 853.72 912.65 L 852.64 907.38 L 849.64 892.80 L 845.09 870.78 L 839.36 843.19 L 832.81 811.91 L 825.82 778.78 L 818.74 745.69 L 811.96 714.50 L 805.82 687.08 L 800.72 665.29 L 797.00 651.00 L 795.13 644.99 L 792.12 636.03 L 784.29 614.07 L 774.19 586.85 L 762.48 556.10 L 749.84 523.54 L 736.93 490.89 L 724.42 459.89 L 712.99 432.26 L 703.29 409.72 L 699.09 400.45 L 696.00 394.00 L 691.41 385.39 L 685.43 375.28 L 678.81 364.95 L 671.10 353.73 L 662.88 342.51 L 653.93 331.01 L 644.57 319.71 L 634.85 308.74 L 628.15 301.62 L 621.46 294.90 L 614.79 288.57 L 607.89 282.47 L 601.18 277.01 L 594.66 272.15 L 587.88 267.65 L 581.47 263.99 L 575.41 261.11 L 561.41 267.79 L 566.50 282.57 L 569.83 284.14 L 573.39 285.99 L 578.80 289.06 L 584.65 292.69 L 591.84 297.59 L 599.21 303.15 L 607.41 310.03 L 612.78 314.97 L 618.29 320.50 L 623.97 326.66 L 629.35 333.06 L 634.67 340.08 L 639.95 347.76 L 650.96 364.98 L 660.08 379.63 L 674.76 404.04 L 683.76 419.67 L 686.81 425.18 L 688.54 429.54 L 693.27 441.48 L 700.30 459.30 L 708.97 481.30 L 718.56 505.78 L 728.41 531.05 L 737.82 555.40 L 746.09 577.12 L 752.56 594.53 L 756.52 605.92 L 762.84 626.74 L 769.20 649.45 L 775.28 672.71 L 781.27 697.12 L 787.00 721.82 L 792.55 746.89 L 797.85 771.99 L 802.87 796.69 L 812.06 844.47 L 819.97 888.18 L 826.41 925.75 L 831.22 955.14 L 834.23 974.27 L 835.27 981.11 L 833.45 990.91 L 828.39 1018.97 L 820.63 1063.24 L 810.74 1121.70 L 799.30 1192.30 L 793.26 1230.96 L 786.86 1273.00 L 780.51 1316.09 L 773.99 1361.78 L 767.61 1408.26 L 761.26 1456.60 L 755.14 1505.45 L 749.22 1555.42 L 743.65 1605.65 L 738.45 1656.21 L 733.71 1706.78 L 729.51 1756.92 L 727.01 1790.33 L 724.83 1823.20 L 722.95 1855.53 L 721.38 1887.91 L 720.19 1919.39 L 719.36 1950.00 L 754.47 1950.00 L 754.95 1940.15 L 756.44 1912.16 L 758.99 1868.40 L 762.66 1811.23 L 767.51 1743.02 L 770.36 1705.97 L 773.60 1666.11 L 777.11 1625.46 L 781.00 1582.88 L 785.18 1539.82 L 789.74 1495.69 L 794.64 1451.38 L 799.91 1406.89 L 805.07 1365.82 L 810.38 1325.44 L 815.85 1285.40 L 821.33 1246.67 L 832.34 1172.32 L 842.97 1104.11 L 852.82 1043.75 L 861.44 992.99 L 868.42 953.55 L 873.33 927.15 L 875.74 915.51 Z" fill="#577a5e" fill-rule="nonzero" node-id="82" stroke-linecap="butt" stroke-width="1" target-height="1688.89" target-width="341.27008" target-x="561.41" target-y="261.11"></path><path d="M 296.81 110.23 L 297.56 106.89 L 298.81 103.84 L 300.57 101.02 L 302.78 98.55 L 305.37 96.50 L 308.37 94.85 L 310.90 94.06 L 314.41 93.54 L 319.18 93.40 L 326.58 93.84 L 335.96 95.04 L 345.83 96.79 L 357.06 99.19 L 368.57 102.00 L 380.82 105.30 L 396.85 110.02 L 410.39 114.40 L 423.11 118.89 L 433.90 123.03 L 444.06 127.23 L 452.83 131.09 L 468.64 138.48 L 482.82 145.10 L 487.49 147.37 L 494.04 150.95 L 501.01 155.09 L 509.15 160.29 L 517.46 165.96 L 526.28 172.40 L 535.00 179.25 L 543.56 186.56 L 549.09 191.66 L 554.28 196.83 L 559.13 202.06 L 563.71 207.52 L 567.69 212.89 L 571.10 218.18 L 573.40 222.35 L 575.23 226.41 L 576.63 230.35 L 577.62 234.20 L 578.20 238.16 L 578.25 241.99 L 577.79 245.73 L 576.82 249.41 L 574.43 255.82 L 572.19 261.03 L 570.10 265.18 L 567.67 269.15 L 565.28 272.23 L 562.94 274.56 L 560.29 276.51 L 557.49 277.94 L 554.51 278.89 L 551.41 279.42 L 547.91 279.64 L 543.98 279.51 L 537.89 278.88 L 530.51 277.76 L 513.25 275.00 L 507.67 274.02 L 501.18 272.55 L 493.67 270.53 L 482.33 267.03 L 469.63 262.62 L 456.71 257.71 L 443.21 252.21 L 429.75 246.36 L 416.52 240.27 L 403.57 233.95 L 391.64 227.76 L 380.27 221.44 L 370.66 215.63 L 364.55 211.61 L 359.61 208.03 L 355.69 204.86 L 349.24 199.00 L 343.87 193.68 L 339.46 188.85 L 335.28 183.78 L 331.93 179.30 L 329.32 175.33 L 325.96 169.37 L 323.88 164.74 L 322.42 160.41 L 321.77 157.49 L 319.75 155.31 L 314.74 149.45 L 311.70 145.57 L 308.35 140.97 L 305.14 136.09 L 302.17 130.90 L 299.63 125.55 L 297.79 120.31 L 296.98 116.75 L 296.67 113.40 L 296.81 110.23 Z" fill="#ffffff" fill-rule="nonzero" node-id="84" stroke-linecap="butt" stroke-width="1" target-height="186.23524" target-width="281.58447" target-x="296.66736" target-y="93.40172"></path><path d="M 565.09 272.43 L 562.61 274.45 L 559.67 276.11 L 556.19 277.41 L 552.08 278.30 L 548.01 278.73 L 543.47 278.83 L 538.40 278.58 L 532.74 277.93 L 525.42 276.64 L 517.39 274.78 L 508.60 272.31 L 499.94 269.50 L 490.82 266.22 L 481.20 262.43 L 466.87 256.25 L 452.04 249.27 L 437.31 241.79 L 422.67 233.83 L 408.31 225.52 L 394.61 217.09 L 385.44 210.96 L 376.21 204.21 L 367.17 197.11 L 358.43 189.83 L 349.97 182.43 L 342.17 175.31 L 328.30 162.02 L 317.70 151.30 L 311.24 144.52 L 309.81 143.03 L 310.00 145.83 L 310.59 148.89 L 311.64 152.25 L 313.22 155.95 L 315.68 160.59 L 318.85 165.64 L 322.84 171.13 L 327.08 176.40 L 331.93 181.92 L 337.41 187.72 L 346.06 196.17 L 355.69 204.86 L 359.60 208.04 L 364.52 211.66 L 370.61 215.76 L 380.16 221.69 L 391.45 228.21 L 403.30 234.62 L 416.15 241.21 L 429.28 247.60 L 442.63 253.77 L 456.02 259.62 L 468.83 264.88 L 481.43 269.68 L 492.68 273.55 L 500.13 275.83 L 506.57 277.55 L 512.11 278.77 L 522.63 280.62 L 531.15 281.76 L 536.66 282.20 L 541.43 282.28 L 545.55 282.05 L 549.62 281.43 L 553.25 280.45 L 556.48 279.11 L 559.50 277.36 L 562.36 275.15 L 565.09 272.43 Z" fill="#f2f4e9" fill-rule="nonzero" node-id="86" stroke-linecap="butt" stroke-width="1" target-height="139.24521" target-width="255.28003" target-x="309.81" target-y="143.03"></path><path d="M 698.53 409.56 L 697.55 405.58 L 696.68 401.18 L 695.62 394.14 L 694.80 386.23 L 694.25 375.94 L 694.17 368.82 L 694.40 360.77 L 694.97 351.73 L 695.89 342.75 L 697.31 332.93 L 699.29 322.22 L 701.70 311.63 L 704.83 300.29 L 708.72 288.13 L 719.84 256.01 L 728.70 230.95 L 736.05 211.49 L 739.47 203.21 L 742.62 196.17 L 745.89 189.51 L 749.15 183.53 L 752.63 177.78 L 756.39 172.13 L 760.74 166.45 L 766.45 159.97 L 772.75 153.52 L 779.88 146.75 L 787.32 140.09 L 795.02 133.53 L 802.79 127.20 L 810.22 121.40 L 817.50 115.94 L 823.83 111.40 L 829.82 107.36 L 834.22 104.62 L 840.44 101.25 L 846.31 98.58 L 852.11 96.38 L 857.14 94.86 L 861.95 93.82 L 865.59 93.41 L 867.92 93.44 L 869.48 93.72 L 870.49 94.16 L 870.91 94.68 L 870.87 95.28 L 870.23 96.13 L 868.71 97.37 L 866.13 99.04 L 859.81 102.79 L 856.35 104.93 L 852.92 107.24 L 849.72 109.75 L 847.09 112.30 L 841.40 118.66 L 834.55 126.35 L 827.56 134.21 L 821.44 141.11 L 817.24 145.91 L 815.91 147.89 L 813.47 152.51 L 810.89 157.96 L 807.66 165.27 L 800.81 182.08 L 797.31 191.29 L 793.89 200.79 L 790.68 210.30 L 787.90 219.28 L 785.50 228.02 L 783.83 235.42 L 782.55 241.20 L 780.47 249.20 L 774.96 267.95 L 767.90 289.89 L 759.91 313.23 L 751.57 336.18 L 743.51 356.96 L 739.64 366.25 L 736.31 373.77 L 733.04 380.50 L 730.59 384.83 L 727.19 389.76 L 723.87 393.91 L 720.61 397.35 L 717.09 400.56 L 713.85 403.12 L 710.88 405.10 L 706.38 407.55 L 702.99 408.90 L 699.94 409.61 L 698.53 409.56 Z" fill="#577a5e" fill-rule="nonzero" node-id="88" stroke-linecap="butt" stroke-width="1" target-height="316.198" target-width="176.73785" target-x="694.17426" target-y="93.40938"></path><path d="M 1024.93 1339.26 L 1023.94 1337.44 L 1021.83 1332.61 L 1020.77 1329.44 L 1019.86 1325.72 L 1019.34 1321.83 L 1019.32 1317.72 L 1019.66 1315.00 L 1020.37 1312.29 L 1021.47 1309.58 L 1023.61 1305.92 L 1027.75 1300.04 L 1032.69 1293.69 L 1039.23 1285.87 L 1046.38 1277.82 L 1054.67 1269.01 L 1063.43 1260.23 L 1072.84 1251.37 L 1082.59 1242.84 L 1092.50 1234.89 L 1099.30 1229.89 L 1105.93 1225.44 L 1112.41 1221.50 L 1135.86 1208.14 L 1147.44 1201.67 L 1158.51 1195.66 L 1169.44 1190.01 L 1179.49 1185.16 L 1189.32 1180.89 L 1197.91 1177.72 L 1203.63 1176.03 L 1208.60 1174.96 L 1212.92 1174.43 L 1217.25 1174.32 L 1220.84 1174.51 L 1223.77 1174.95 L 1226.67 1175.67 L 1228.99 1176.50 L 1230.84 1177.42 L 1233.30 1179.10 L 1234.91 1180.67 L 1236.14 1182.30 L 1236.78 1183.49 L 1237.23 1184.69 L 1103.17 1316.78 Z" fill="#f2f4e9" fill-rule="nonzero" node-id="90" stroke-linecap="butt" stroke-width="1" target-height="164.93835" target-width="217.9115" target-x="1019.3185" target-y="1174.3217"></path><path d="M 854.06 971.46 L 856.52 967.93 L 863.22 958.78 L 867.70 952.96 L 873.14 946.20 L 878.95 939.36 L 885.29 932.34 L 891.92 925.58 L 898.64 919.39 L 903.32 915.54 L 907.83 912.26 L 912.19 909.52 L 919.32 905.80 L 928.56 901.71 L 938.52 897.91 L 950.06 894.08 L 962.11 890.64 L 975.21 887.48 L 984.11 885.66 L 993.21 884.08 L 1002.54 882.76 L 1011.90 881.74 L 1021.23 881.08 L 1030.55 880.77 L 1039.87 880.85 L 1048.95 881.39 L 1057.79 882.36 L 1079.84 885.41 L 1092.09 887.22 L 1105.33 889.38 L 1118.76 891.85 L 1132.57 894.77 L 1146.31 898.15 L 1159.83 902.06 L 1168.72 905.02 L 1177.25 908.25 L 1185.43 911.74 L 1193.42 915.64 L 1200.81 919.83 L 1207.66 924.31 L 1212.57 928.01 L 1217.06 931.90 L 1221.13 935.98 L 1224.81 940.25 L 1228.12 944.82 L 1230.94 949.63 L 1233.30 954.70 L 1235.18 960.05 L 1239.25 974.18 L 1242.44 985.96 L 1245.07 997.15 L 1246.81 1006.74 L 1247.56 1013.01 L 1247.90 1018.93 L 1247.85 1024.53 L 1247.38 1030.11 L 1246.47 1035.76 L 1245.10 1041.48 L 1243.34 1047.10 L 1241.04 1053.18 L 1238.13 1059.75 L 1233.11 1069.69 L 1226.49 1081.48 L 1225.47 1078.90 L 1222.60 1072.24 L 1218.17 1063.07 L 1215.49 1058.08 L 1212.48 1052.99 L 1209.23 1048.07 L 1205.82 1043.58 L 1203.37 1040.79 L 1200.92 1038.42 L 1198.49 1036.44 L 1195.86 1034.79 L 1193.30 1033.72 L 1190.77 1033.16 L 1186.73 1033.34 L 1175.89 1033.50 L 1168.76 1033.39 L 1160.14 1033.05 L 1151.16 1032.42 L 1141.38 1031.40 L 1131.49 1029.94 L 1121.50 1027.96 L 1107.01 1024.33 L 1086.76 1018.87 L 1062.57 1012.13 L 1036.29 1004.69 L 1009.75 997.12 L 984.77 990.00 L 963.18 983.89 L 946.82 979.37 L 937.52 977.00 L 928.12 975.01 L 922.46 974.03 L 915.84 973.22 L 908.95 972.83 L 901.33 972.99 L 896.20 973.47 L 890.85 974.35 L 885.24 975.66 L 879.76 977.38 L 874.09 979.68 L 868.22 982.59 L 862.62 985.97 L 856.86 990.12 L 850.93 995.13 L 850.45 991.09 L 850.37 987.07 L 850.70 983.06 L 851.43 979.10 L 852.54 975.24 L 854.06 971.46 Z" fill="#577a5e" fill-rule="nonzero" node-id="92" stroke-linecap="butt" stroke-width="1" target-height="200.71362" target-width="397.5238" target-x="850.3739" target-y="880.76636"></path><path d="M 859.65 1555.11 L 862.76 1552.34 L 866.27 1549.44 L 871.93 1545.12 L 878.42 1540.58 L 886.94 1535.14 L 892.97 1531.61 L 899.82 1527.91 L 907.57 1524.04 L 915.43 1520.48 L 924.09 1516.96 L 933.59 1513.51 L 943.21 1510.46 L 953.59 1507.69 L 964.78 1505.20 L 976.06 1503.24 L 988.08 1501.75 L 1000.91 1500.78 L 1017.89 1500.24 L 1033.51 1500.30 L 1047.85 1500.91 L 1061.01 1502.01 L 1071.92 1503.35 L 1082.07 1504.97 L 1091.51 1506.85 L 1100.28 1508.97 L 1108.41 1511.31 L 1118.79 1514.86 L 1128.22 1518.68 L 1136.76 1522.76 L 1144.49 1527.09 L 1152.09 1532.00 L 1158.95 1537.09 L 1165.11 1542.33 L 1170.63 1547.74 L 1175.85 1553.60 L 1180.50 1559.53 L 1184.61 1565.56 L 1188.21 1571.68 L 1192.44 1580.01 L 1196.15 1588.45 L 1199.40 1596.94 L 1202.06 1604.86 L 1204.31 1612.54 L 1205.93 1618.97 L 1207.17 1624.90 L 1207.77 1628.86 L 1209.40 1643.12 L 1206.31 1639.36 L 1202.81 1635.45 L 1197.19 1629.67 L 1190.73 1623.59 L 1182.29 1616.42 L 1176.28 1611.77 L 1169.48 1606.96 L 1161.83 1602.01 L 1153.99 1597.43 L 1145.41 1593.02 L 1136.05 1588.79 L 1118.46 1581.74 L 1101.76 1575.63 L 1090.63 1571.90 L 1079.61 1568.52 L 1068.70 1565.46 L 1057.72 1562.69 L 1046.58 1560.19 L 1035.27 1557.96 L 1023.90 1556.02 L 1012.09 1554.29 L 999.82 1552.79 L 995.41 1552.43 L 988.04 1552.13 L 969.46 1551.93 L 946.38 1552.35 L 933.94 1552.82 L 921.08 1553.50 L 908.24 1554.40 L 895.85 1555.52 L 883.76 1556.92 L 872.98 1558.54 L 865.94 1559.86 L 859.90 1561.25 L 854.76 1562.70 Z" fill="#577a5e" fill-rule="nonzero" node-id="94" stroke-linecap="butt" stroke-width="1" target-height="142.87512" target-width="354.64" target-x="854.76" target-y="1500.2449"></path><path d="M 769.09 1638.57 L 773.34 1630.83 L 778.32 1622.35 L 786.78 1608.74 L 796.73 1593.64 L 810.45 1573.98 L 820.30 1560.50 L 831.88 1545.31 L 845.37 1528.25 L 859.17 1511.45 L 874.86 1493.14 L 892.58 1473.22 L 910.66 1453.68 L 930.80 1432.82 L 953.10 1410.59 L 969.94 1394.40 L 987.99 1377.59 L 1007.32 1360.14 L 1027.98 1342.05 L 1049.14 1359.71 L 1042.99 1365.20 L 1026.00 1380.85 L 1014.61 1391.64 L 1000.33 1405.47 L 985.31 1420.37 L 968.17 1437.83 L 950.61 1456.24 L 931.69 1476.74 L 912.69 1498.05 L 893.05 1520.97 L 880.13 1536.61 L 867.26 1552.73 L 854.45 1569.33 L 841.94 1586.17 L 829.81 1603.25 L 818.04 1620.60 L 806.70 1638.23 L 796.02 1655.88 L 786.00 1673.57 L 778.84 1687.10 L 772.22 1700.51 L 766.11 1713.82 L 760.52 1727.04 Z" fill="#577a5e" fill-rule="nonzero" node-id="96" stroke-linecap="butt" stroke-width="1" target-height="384.99" target-width="288.62" target-x="760.52" target-y="1342.05"></path><path d="M 1023.92 1339.66 L 1024.40 1341.90 L 1025.06 1344.18 L 1026.26 1347.37 L 1027.85 1350.65 L 1030.12 1354.22 L 1031.92 1356.46 L 1034.08 1358.57 L 1036.62 1360.58 L 1040.33 1362.76 L 1044.13 1364.42 L 1048.03 1365.59 L 1052.04 1366.38 L 1055.96 1366.82 L 1059.80 1366.93 L 1065.46 1366.65 L 1070.37 1366.01 L 1078.41 1364.14 L 1093.20 1359.96 L 1102.28 1357.14 L 1112.86 1353.64 L 1123.77 1349.78 L 1135.52 1345.32 L 1147.34 1340.47 L 1159.31 1335.14 L 1171.09 1329.39 L 1182.36 1323.27 L 1189.67 1318.90 L 1196.48 1314.42 L 1202.80 1309.85 L 1213.47 1301.47 L 1222.37 1294.11 L 1229.69 1287.68 L 1236.81 1281.00 L 1242.49 1275.27 L 1246.92 1270.38 L 1251.13 1265.26 L 1254.26 1261.01 L 1256.49 1257.50 L 1258.46 1253.81 L 1259.70 1250.89 L 1260.39 1248.59 L 1261.53 1244.94 L 1263.28 1240.74 L 1265.33 1236.53 L 1267.59 1232.38 L 1272.00 1225.06 L 1275.19 1220.34 L 1276.16 1218.63 L 1277.14 1216.02 L 1277.87 1213.12 L 1278.40 1209.84 L 1278.63 1206.49 L 1278.52 1203.29 L 1277.98 1200.27 L 1277.03 1197.86 L 1275.91 1195.98 L 1274.14 1193.46 L 1271.98 1190.95 L 1269.06 1188.26 L 1266.89 1186.63 L 1264.34 1185.10 L 1261.36 1183.68 L 1258.27 1182.58 L 1254.70 1181.74 L 1250.58 1181.19 L 1246.45 1181.06 L 1241.71 1181.39 L 1236.28 1182.24 L 1230.15 1183.80 L 1222.12 1186.43 L 1213.68 1189.61 L 1204.11 1193.53 L 1194.35 1197.77 L 1184.21 1202.37 L 1164.37 1211.81 L 1146.54 1220.68 L 1132.69 1227.82 L 1124.77 1232.09 L 1116.16 1237.17 L 1103.45 1245.27 L 1096.22 1250.21 L 1088.28 1255.92 L 1080.33 1262.01 L 1072.26 1268.65 L 1064.42 1275.66 L 1057.00 1283.00 L 1041.04 1299.56 L 1036.48 1304.51 L 1032.69 1309.02 L 1029.59 1313.12 L 1026.86 1317.45 L 1024.88 1321.66 L 1023.58 1325.79 L 1023.03 1328.95 L 1022.89 1332.30 L 1023.18 1335.86 L 1023.92 1339.66 Z" fill="#ffffff" fill-rule="nonzero" node-id="98" stroke-linecap="butt" stroke-width="1" target-height="185.86609" target-width="255.73828" target-x="1022.89417" target-y="1181.0627"></path><path d="M 1350.52 729.76 L 1345.49 739.05 L 1339.96 748.02 L 1333.94 756.70 L 1332.44 758.14 L 1330.64 759.04 L 1328.65 759.37 L 1326.59 759.07 L 1324.71 758.17 L 1323.24 756.79 L 1322.25 755.03 L 1321.81 753.00 L 1320.56 736.47 L 1319.56 727.11 L 1318.21 716.98 L 1316.51 706.76 L 1314.40 696.50 L 1311.82 686.42 L 1308.80 677.01 L 1306.42 670.92 L 1303.83 665.42 L 1301.05 660.47 L 1298.66 656.91 L 1296.16 653.81 L 1293.54 651.15 L 1290.81 648.88 L 1287.06 645.84 L 1284.82 643.50 L 1283.66 641.70 L 1283.16 640.21 L 1283.11 638.97 L 1283.46 637.89 L 1284.21 636.92 L 1285.61 635.87 L 1287.60 634.91 L 1290.37 634.09 L 1294.76 633.29 L 1300.07 632.77 L 1305.57 632.54 L 1311.23 632.52 L 1321.78 632.90 L 1329.63 633.45 L 1332.71 633.73 L 1354.71 697.84 Z" fill="#f2f4e9" fill-rule="nonzero" node-id="100" stroke-linecap="butt" stroke-width="1" target-height="126.84357" target-width="71.59924" target-x="1283.1107" target-y="632.525"></path><path d="M 756.54 348.38 L 758.39 351.25 L 763.31 358.51 L 770.29 368.17 L 774.27 373.27 L 778.39 378.22 L 782.64 382.87 L 786.60 386.66 L 790.39 390.11 L 793.51 393.25 L 796.31 396.50 L 798.72 399.89 L 800.82 403.55 L 802.78 407.83 L 804.48 412.49 L 806.22 418.28 L 807.82 424.59 L 809.60 432.50 L 813.23 450.46 L 814.76 457.87 L 816.19 463.76 L 817.31 467.47 L 818.55 470.67 L 819.88 473.43 L 821.50 476.01 L 823.43 478.37 L 825.68 480.50 L 832.20 486.16 L 839.29 492.57 L 845.79 498.59 L 850.54 503.05 L 852.38 504.79 L 863.79 465.27 L 812.86 383.37 L 758.46 340.17 Z" fill="#f2f4e9" fill-rule="nonzero" node-id="102" stroke-linecap="butt" stroke-width="1" target-height="164.62" target-width="107.25" target-x="756.54004" target-y="340.17"></path><path d="M 1379.92 517.91 L 1380.70 521.03 L 1382.42 529.52 L 1383.31 535.17 L 1384.14 542.08 L 1384.70 549.34 L 1384.92 557.40 L 1384.67 565.63 L 1383.82 574.18 L 1382.88 579.87 L 1381.57 585.51 L 1379.89 591.12 L 1377.81 596.58 L 1375.25 601.83 L 1372.21 606.91 L 1370.08 609.76 L 1368.29 611.62 L 1366.79 612.73 L 1365.50 613.29 L 1364.09 613.45 L 1362.78 613.18 L 1361.49 612.45 L 1360.19 611.14 L 1358.78 609.09 L 1357.32 606.28 L 1355.83 602.55 L 1353.92 596.67 L 1351.96 589.56 L 1348.12 574.26 L 1346.06 566.34 L 1343.86 558.69 L 1341.37 551.32 L 1338.71 544.93 L 1336.62 540.93 L 1334.45 537.66 L 1332.21 535.05 L 1329.72 532.89 L 1326.97 530.99 L 1323.93 529.33 L 1319.12 527.30 L 1314.07 525.74 L 1308.94 524.58 L 1304.01 523.80 L 1299.21 523.28 L 1295.12 523.02 L 1288.78 522.91 L 1286.36 522.98 L 1253.77 488.81 L 1314.28 465.17 Z" fill="#f2f4e9" fill-rule="nonzero" node-id="104" stroke-linecap="butt" stroke-width="1" target-height="148.2847" target-width="131.15137" target-x="1253.77" target-y="465.17"></path><path d="M 791.52 546.42 L 794.26 549.57 L 801.32 558.08 L 810.98 570.56 L 816.19 577.77 L 821.52 585.63 L 826.60 593.71 L 831.23 601.88 L 834.05 607.45 L 836.42 612.79 L 838.38 617.93 L 841.19 625.62 L 843.84 632.08 L 846.35 637.46 L 849.12 642.74 L 851.64 647.00 L 853.92 650.38 L 857.53 654.94 L 860.38 657.82 L 863.20 659.98 L 865.07 660.93 L 867.61 661.64 L 870.40 662.06 L 875.33 662.28 L 877.50 662.22 L 914.37 638.31 L 900.50 574.75 L 871.70 541.54 Z" fill="#f2f4e9" fill-rule="nonzero" node-id="106" stroke-linecap="butt" stroke-width="1" target-height="120.74115" target-width="122.849976" target-x="791.52" target-y="541.54"></path><path d="M 867.23 685.62 L 866.79 689.65 L 865.78 700.11 L 864.68 714.57 L 864.25 722.51 L 863.97 730.57 L 863.91 738.53 L 864.12 745.69 L 864.70 752.43 L 865.60 757.47 L 869.03 771.26 L 870.82 777.93 L 872.66 784.04 L 874.73 789.87 L 876.91 794.82 L 878.59 797.91 L 880.35 800.47 L 882.17 802.57 L 886.14 806.23 L 889.52 808.66 L 891.87 809.80 L 893.96 810.28 L 895.88 810.19 L 897.21 809.76 L 898.54 808.92 L 899.91 807.60 L 901.32 805.69 L 905.82 799.19 L 912.45 790.09 L 919.96 779.56 L 923.68 774.09 L 927.08 768.80 L 930.18 763.55 L 932.56 758.97 L 938.13 746.57 L 944.12 732.50 L 950.33 717.84 L 956.56 703.68 L 957.40 701.35 L 957.80 699.26 L 957.83 697.37 L 957.52 695.64 L 956.64 693.40 L 955.34 691.35 L 953.57 689.45 L 950.44 687.02 L 946.81 684.95 L 943.00 683.26 L 939.38 681.96 L 933.36 680.30 L 930.89 679.78 Z" fill="#577a5e" fill-rule="nonzero" node-id="108" stroke-linecap="butt" stroke-width="1" target-height="130.4997" target-width="93.92529" target-x="863.907" target-y="679.78"></path><path d="M 584.77 311.15 L 587.49 318.85 L 590.48 326.31 L 593.79 333.48 L 597.14 339.69 L 599.63 343.61 L 602.01 346.76 L 604.30 349.26 L 606.27 350.94 L 608.11 352.06 L 609.85 352.72 L 611.53 352.98 L 612.84 352.66 L 614.34 351.62 L 616.15 349.56 L 618.51 345.87 L 621.21 340.63 L 623.79 334.91 L 626.50 328.42 L 631.78 315.19 L 636.82 303.16 L 639.32 298.06 L 641.41 294.58 L 644.28 290.91 L 648.12 286.90 L 650.96 284.37 L 654.16 281.91 L 657.75 279.52 L 661.51 277.41 L 665.58 275.57 L 669.98 273.98 L 674.51 272.81 L 679.33 272.07 L 684.48 271.79 L 689.62 272.04 L 695.08 272.92 L 700.90 274.47 L 698.74 272.06 L 692.69 265.96 L 688.54 262.19 L 683.38 257.88 L 677.78 253.69 L 671.44 249.52 L 667.00 246.97 L 662.36 244.65 L 657.51 242.58 L 652.53 240.86 L 647.44 239.59 L 642.22 238.75 L 634.66 238.25 L 628.17 238.28 L 622.62 238.78 L 617.09 239.72 L 612.52 240.83 L 608.79 242.09 L 603.64 244.34 L 600.38 246.21 L 597.81 248.03 L 597.08 248.67 L 594.59 252.05 L 592.30 255.75 L 590.22 259.82 L 587.59 266.19 L 585.49 272.95 L 583.95 279.87 L 582.97 286.75 L 582.55 293.58 L 582.70 299.92 L 583.15 304.08 L 583.84 307.81 L 584.77 311.15 Z" fill="#f2f4e9" fill-rule="nonzero" node-id="110" stroke-linecap="butt" stroke-width="1" target-height="114.73299" target-width="118.35394" target-x="582.5461" target-y="238.24702"></path><path d="M 417.79 515.26 L 419.08 515.81 L 420.63 516.23 L 423.48 516.65 L 426.81 516.80 L 431.76 516.56 L 437.26 515.83 L 444.72 514.29 L 452.78 512.09 L 463.12 508.64 L 472.31 505.46 L 482.73 502.21 L 493.53 499.21 L 505.10 496.43 L 516.90 494.08 L 529.01 492.21 L 537.16 491.29 L 545.24 490.70 L 553.28 490.43 L 561.31 490.54 L 569.10 491.06 L 576.68 492.00 L 584.16 493.43 L 591.25 495.37 L 598.00 497.80 L 602.18 500.17 L 613.57 506.39 L 630.44 515.06 L 640.23 519.82 L 651.05 524.84 L 662.18 529.69 L 673.68 534.34 L 685.29 538.59 L 696.60 542.20 L 704.19 544.27 L 711.34 545.87 L 718.07 547.04 L 729.90 548.56 L 741.40 549.74 L 752.57 550.59 L 763.78 551.16 L 774.38 551.45 L 784.41 551.47 L 799.16 551.03 L 812.01 550.13 L 820.38 549.22 L 827.61 548.19 L 833.79 547.04 L 838.70 546.34 L 843.29 546.22 L 847.60 546.67 L 851.85 547.62 L 855.83 548.98 L 859.59 550.74 L 863.17 552.87 L 866.49 555.25 L 869.58 557.90 L 873.80 562.23 L 877.40 566.76 L 880.50 571.49 L 882.89 575.97 L 887.74 586.53 L 893.08 599.25 L 895.64 605.96 L 897.92 612.51 L 899.87 618.98 L 901.24 624.66 L 901.87 628.42 L 902.12 631.51 L 902.04 634.04 L 904.99 632.77 L 912.82 629.56 L 924.03 625.29 L 930.37 623.06 L 937.10 620.85 L 943.90 618.84 L 950.52 617.14 L 957.02 615.81 L 962.76 615.04 L 970.66 614.17 L 976.42 613.25 L 981.57 612.07 L 985.38 610.83 L 988.83 609.34 L 991.78 607.71 L 997.76 603.80 L 999.38 602.99 L 1002.18 602.04 L 1006.64 600.95 L 1013.66 599.67 L 1022.99 598.37 L 1032.97 597.28 L 1044.36 596.33 L 1056.07 595.61 L 1068.28 595.13 L 1080.51 594.94 L 1092.30 595.06 L 1103.81 595.55 L 1113.96 596.40 L 1122.90 597.58 L 1134.37 599.50 L 1146.51 601.87 L 1160.31 604.86 L 1174.46 608.23 L 1189.39 612.08 L 1204.37 616.26 L 1219.24 620.75 L 1233.86 625.55 L 1247.48 630.46 L 1256.39 633.97 L 1264.45 637.42 L 1271.72 640.82 L 1278.86 644.54 L 1284.77 648.06 L 1289.58 651.40 L 1306.59 664.41 L 1313.66 669.97 L 1319.34 674.65 L 1324.53 679.23 L 1328.70 683.32 L 1332.43 687.49 L 1335.54 691.60 L 1338.26 695.94 L 1340.72 700.70 L 1342.91 705.74 L 1344.79 710.88 L 1346.37 716.12 L 1347.65 721.44 L 1348.62 726.83 L 1349.28 732.28 L 1351.40 727.84 L 1356.63 715.74 L 1359.78 707.67 L 1363.30 697.80 L 1366.60 687.37 L 1369.73 675.83 L 1371.54 667.95 L 1373.05 659.89 L 1374.26 651.64 L 1375.06 643.36 L 1375.37 635.17 L 1375.19 627.07 L 1374.68 621.00 L 1373.78 615.13 L 1372.51 609.44 L 1370.87 603.92 L 1367.63 595.56 L 1363.98 587.81 L 1359.92 580.63 L 1355.39 573.73 L 1350.63 567.39 L 1345.64 561.56 L 1340.32 556.02 L 1334.97 551.00 L 1329.59 546.48 L 1323.97 542.21 L 1318.55 538.46 L 1313.31 535.18 L 1305.37 530.77 L 1298.37 527.44 L 1291.61 524.73 L 1286.32 523.04 L 1289.99 522.16 L 1299.84 520.05 L 1314.11 517.55 L 1322.25 516.41 L 1331.07 515.46 L 1340.00 514.82 L 1348.95 514.60 L 1354.92 514.73 L 1360.60 515.13 L 1366.02 515.79 L 1371.37 516.81 L 1376.19 518.17 L 1380.52 519.85 L 1379.05 515.39 L 1377.33 510.67 L 1374.51 503.65 L 1371.15 496.09 L 1366.68 487.10 L 1363.39 481.06 L 1359.62 474.77 L 1355.36 468.20 L 1350.81 461.85 L 1345.81 455.59 L 1340.33 449.42 L 1334.48 443.61 L 1328.17 438.21 L 1321.39 433.21 L 1316.05 429.85 L 1310.44 426.87 L 1304.53 424.27 L 1298.32 422.05 L 1292.01 420.34 L 1285.36 419.15 L 1278.34 418.49 L 1270.91 418.39 L 1259.62 419.05 L 1248.60 420.21 L 1237.83 421.88 L 1227.15 424.00 L 1216.89 426.43 L 1207.04 429.18 L 1197.28 432.25 L 1188.13 435.43 L 1179.56 438.70 L 1167.11 443.93 L 1156.40 448.88 L 1146.44 453.88 L 1138.60 458.10 L 1127.17 464.80 L 1123.13 467.39 L 1125.62 464.10 L 1132.04 454.85 L 1136.10 448.52 L 1140.86 440.54 L 1145.59 431.98 L 1150.53 422.11 L 1153.64 415.31 L 1156.63 408.10 L 1159.49 400.48 L 1162.05 392.75 L 1164.29 384.78 L 1166.21 376.55 L 1167.69 368.24 L 1168.66 359.81 L 1169.13 351.26 L 1169.16 341.22 L 1168.87 330.92 L 1168.24 320.35 L 1167.28 309.82 L 1166.00 299.39 L 1164.40 289.07 L 1162.44 278.81 L 1160.19 269.03 L 1157.64 259.71 L 1154.67 250.51 L 1151.44 242.15 L 1147.99 234.57 L 1145.01 228.99 L 1141.92 224.06 L 1138.75 219.74 L 1135.48 215.97 L 1131.78 212.49 L 1128.01 209.74 L 1124.13 207.66 L 1120.13 206.20 L 1118.15 205.77 L 1115.78 205.73 L 1112.93 206.16 L 1108.62 207.42 L 1103.67 209.45 L 1098.68 211.92 L 1093.50 214.84 L 1088.41 217.96 L 1083.59 221.13 L 1075.08 227.12 L 1069.13 231.60 L 1066.89 233.36 L 1066.49 229.37 L 1065.30 218.82 L 1063.34 203.80 L 1060.65 186.41 L 1059.02 177.46 L 1057.23 168.78 L 1055.21 160.35 L 1053.12 152.98 L 1051.50 148.23 L 1049.90 144.32 L 1048.33 141.14 L 1046.40 138.19 L 1044.60 136.36 L 1042.89 135.36 L 1039.28 135.10 L 1035.55 135.23 L 1031.68 135.78 L 1027.64 136.77 L 1022.43 138.56 L 1017.05 140.92 L 1011.49 143.89 L 1006.11 147.20 L 1000.72 150.89 L 995.31 154.97 L 987.48 161.45 L 979.99 168.26 L 972.83 175.27 L 966.40 182.00 L 960.38 188.66 L 955.42 194.44 L 949.60 201.77 L 942.28 211.85 L 934.81 222.98 L 926.39 236.48 L 918.05 250.86 L 909.28 267.20 L 903.65 278.44 L 898.05 290.34 L 892.48 302.94 L 887.25 315.67 L 882.26 328.88 L 877.52 342.59 L 875.59 340.67 L 870.65 335.74 L 863.95 329.07 L 856.74 321.90 L 850.27 315.49 L 845.80 311.11 L 842.78 307.86 L 839.54 303.79 L 833.36 294.94 L 827.80 286.56 L 825.87 284.20 L 822.52 280.88 L 818.68 277.49 L 814.08 273.69 L 804.45 266.25 L 795.62 259.84 L 789.56 255.73 L 787.38 254.49 L 782.75 252.12 L 770.27 246.27 L 753.96 239.30 L 745.01 235.76 L 735.70 232.32 L 726.34 229.15 L 717.35 226.45 L 708.51 224.23 L 700.77 222.79 L 694.69 222.14 L 688.34 221.85 L 681.71 221.94 L 671.75 222.68 L 661.63 224.05 L 651.58 225.96 L 641.86 228.26 L 632.39 230.91 L 623.76 233.69 L 615.55 236.68 L 608.68 239.50 L 605.19 241.36 L 601.92 243.74 L 598.84 246.69 L 596.10 249.98 L 593.57 253.66 L 591.25 257.76 L 589.25 262.03 L 587.49 266.52 L 585.98 271.23 L 584.23 278.42 L 583.09 285.62 L 582.67 290.45 L 582.53 295.05 L 582.66 299.44 L 583.10 303.81 L 583.81 307.72 L 584.77 311.21 L 587.49 318.91 L 590.48 326.38 L 593.79 333.55 L 597.14 339.76 L 599.63 343.67 L 602.02 346.83 L 604.31 349.32 L 606.27 351.01 L 608.11 352.13 L 609.85 352.79 L 611.53 353.05 L 612.84 352.73 L 614.34 351.69 L 616.15 349.62 L 618.51 345.93 L 621.21 340.69 L 623.79 334.97 L 626.50 328.48 L 631.78 315.25 L 636.83 303.22 L 639.32 298.12 L 641.41 294.64 L 644.27 290.97 L 648.12 286.96 L 650.96 284.43 L 654.16 281.98 L 657.75 279.59 L 661.51 277.48 L 665.58 275.63 L 669.98 274.05 L 674.51 272.88 L 679.33 272.14 L 684.48 271.86 L 689.62 272.11 L 695.08 272.99 L 700.90 274.54 L 703.19 276.61 L 708.88 282.02 L 716.22 289.52 L 719.99 293.70 L 723.48 297.90 L 726.62 302.15 L 728.90 305.91 L 734.43 316.84 L 737.64 323.02 L 741.21 329.43 L 745.11 335.64 L 749.25 341.24 L 752.28 344.67 L 755.37 347.51 L 758.51 349.79 L 762.71 352.57 L 768.21 356.58 L 773.94 361.04 L 780.26 366.22 L 786.56 371.65 L 792.75 377.24 L 798.67 382.92 L 803.78 388.20 L 808.33 393.42 L 811.45 397.63 L 813.70 401.44 L 816.47 406.89 L 819.22 412.86 L 822.19 419.83 L 825.09 427.07 L 827.97 434.67 L 833.19 449.62 L 835.45 456.75 L 837.23 462.90 L 838.67 468.63 L 839.45 472.71 L 840.51 478.28 L 841.90 483.49 L 843.53 488.44 L 845.12 492.59 L 847.92 498.88 L 849.12 501.23 L 846.16 498.44 L 837.92 491.01 L 825.38 480.37 L 817.94 474.41 L 809.49 467.95 L 800.68 461.57 L 791.25 455.18 L 781.53 449.10 L 771.60 443.47 L 764.83 440.04 L 757.71 436.76 L 750.22 433.61 L 738.80 429.25 L 727.05 425.18 L 715.19 421.37 L 703.49 417.80 L 680.94 411.09 L 670.30 407.82 L 660.80 404.70 L 651.82 401.40 L 644.47 398.24 L 640.38 396.49 L 635.45 394.75 L 629.57 393.01 L 620.45 390.81 L 609.85 388.77 L 598.82 387.11 L 586.90 385.72 L 574.76 384.69 L 562.32 384.02 L 549.87 383.74 L 537.70 383.86 L 525.73 384.43 L 514.64 385.43 L 507.35 386.40 L 500.72 387.56 L 494.72 388.90 L 487.89 390.98 L 481.21 393.65 L 474.67 396.94 L 468.38 400.71 L 462.32 404.90 L 456.49 409.51 L 450.94 414.44 L 445.72 419.58 L 440.83 424.93 L 436.21 430.51 L 432.05 436.05 L 428.32 441.55 L 424.86 447.25 L 421.96 452.63 L 419.58 457.72 L 417.53 462.97 L 416.12 467.63 L 415.26 471.76 L 413.77 482.83 L 412.73 493.93 L 412.14 505.07 L 412.00 516.24 Z" fill="#ffffff" fill-rule="nonzero" node-id="112" stroke-linecap="butt" stroke-width="1" target-height="597.18494" target-width="968.52" target-x="412" target-y="135.09506"></path><path d="M 543.77 467.21 L 541.63 467.14 L 538.81 467.35 L 532.52 467.99 L 529.15 468.12 L 525.77 467.92 L 523.15 467.48 L 519.99 466.77 L 513.33 465.00 L 506.78 463.29 L 503.74 462.65 L 501.32 462.32 L 497.98 462.16 L 493.52 462.20 L 488.84 462.48 L 483.89 463.05 L 479.03 463.95 L 474.73 465.17 L 471.46 466.54 L 467.09 468.86 L 462.60 471.61 L 457.78 474.94 L 453.12 478.59 L 448.87 482.40 L 446.24 485.12 L 444.12 487.70 L 442.44 490.17 L 440.36 493.23 L 437.56 496.67 L 434.46 500.05 L 431.13 503.40 L 424.66 509.39 L 419.68 513.68 L 417.68 515.33 L 418.97 515.88 L 420.52 516.30 L 423.37 516.73 L 426.70 516.87 L 431.66 516.63 L 437.16 515.91 L 444.61 514.37 L 452.67 512.17 L 463.02 508.71 L 472.21 505.53 L 482.63 502.27 L 493.43 499.28 L 505.00 496.50 L 516.81 494.14 L 528.92 492.28 L 537.06 491.36 L 545.15 490.77 L 553.19 490.51 L 561.22 490.61 L 569.01 491.14 L 576.59 492.08 L 584.07 493.51 L 591.17 495.45 L 597.92 497.88 L 586.17 491.08 L 574.49 483.87 L 564.66 477.51 L 558.44 473.22 L 555.07 471.04 L 551.48 469.31 L 547.70 468.02 L 543.77 467.21 Z" fill="#f2f4e9" fill-rule="nonzero" node-id="114" stroke-linecap="butt" stroke-width="1" target-height="54.715576" target-width="180.23999" target-x="417.68" target-y="462.15924"></path><path d="M 919.87 568.30 L 959.19 460.11 L 960.92 455.57 L 965.65 443.16 L 972.69 424.69 L 981.36 401.97 L 990.95 376.81 L 1000.78 351.02 L 1010.15 326.41 L 1018.39 304.79 L 1024.79 287.97 L 1028.66 277.77 L 1032.17 267.32 L 1035.14 256.75 L 1037.58 246.05 L 1039.47 235.19 L 1056.11 241.37 L 1054.67 248.36 L 1052.87 255.24 L 1050.71 262.02 L 1048.19 268.70 L 1043.99 279.21 L 1036.00 299.44 L 1025.14 327.06 L 1012.35 359.79 L 998.54 395.31 L 984.64 431.32 L 971.58 465.50 L 960.27 495.57 L 951.65 519.20 L 944.37 540.35 L 937.56 561.62 L 931.19 583.03 L 925.28 604.57 L 919.82 626.26 L 901.94 633.49 L 902.08 631.86 L 901.90 629.31 L 900.96 623.76 L 899.85 618.90 L 899.32 616.82 L 894.26 602.00 L 894.36 601.14 L 894.53 597.18 L 894.59 588.09 L 894.34 571.81 L 893.59 546.30 L 892.96 536.38 L 891.69 525.00 L 889.96 513.29 L 887.77 500.78 L 885.28 488.17 L 882.54 475.43 L 879.63 462.79 L 876.69 450.71 L 870.93 428.40 L 865.95 410.27 L 862.44 398.09 L 861.12 393.64 L 868.62 390.48 L 870.16 395.26 L 874.24 408.28 L 880.07 427.61 L 886.84 451.28 L 890.31 464.05 L 893.75 477.34 L 897.02 490.71 L 900.00 503.85 L 902.66 516.84 L 904.78 528.85 L 906.41 540.47 L 907.30 550.38 L 907.95 566.47 L 908.86 561.45 L 911.12 547.76 L 914.03 527.45 L 915.49 515.68 L 916.90 502.60 L 918.08 489.20 L 919.00 475.25 L 919.56 461.25 L 919.66 447.47 L 919.33 431.14 L 918.77 415.71 L 918.01 400.71 L 917.18 387.37 L 915.40 364.54 L 913.95 349.31 L 913.35 343.77 L 921.35 343.50 L 921.76 347.06 L 922.80 356.26 L 924.22 368.83 L 925.77 382.54 L 927.17 395.13 L 928.17 404.36 L 928.64 412.86 L 929.01 428.09 L 929.19 448.19 L 929.05 471.34 L 928.50 495.69 L 928.02 507.84 L 927.41 519.40 L 926.62 530.65 L 925.68 540.63 L 924.50 550.06 L 923.21 557.54 L 922.09 562.32 L 920.97 565.82 L 919.87 568.30 Z" fill="#f5d084" fill-rule="nonzero" node-id="116" stroke-linecap="butt" stroke-width="1" target-height="398.3" target-width="194.98999" target-x="861.12" target-y="235.19"></path><path d="M 1049.85 229.57 L 1052.19 230.43 L 1054.22 231.49 L 1056.00 232.75 L 1057.58 234.23 L 1058.78 235.78 L 1059.66 237.40 L 1060.20 239.15 L 1060.32 240.85 L 1060.05 242.56 L 1059.35 244.15 L 1058.32 245.51 L 1056.92 246.68 L 1055.31 247.57 L 1053.46 248.22 L 1051.33 248.62 L 1049.15 248.71 L 1046.87 248.50 L 1044.44 247.95 L 1042.11 247.10 L 1040.08 246.04 L 1038.30 244.78 L 1036.72 243.30 L 1035.52 241.75 L 1034.64 240.12 L 1034.10 238.38 L 1033.97 236.68 L 1034.25 234.97 L 1034.94 233.38 L 1035.97 232.02 L 1037.37 230.85 L 1038.99 229.96 L 1040.84 229.31 L 1042.97 228.91 L 1045.14 228.82 L 1047.43 229.03 L 1049.85 229.57 Z" fill="#f0a63b" fill-rule="nonzero" node-id="118" stroke-linecap="butt" stroke-width="1" target-height="19.888428" target-width="26.35205" target-x="1033.9728" target-y="228.82019"></path><path d="M 927.18 337.21 L 927.13 338.88 L 926.51 340.47 L 925.42 341.88 L 923.85 343.12 L 921.98 344.03 L 919.76 344.59 L 917.48 344.71 L 915.42 344.40 L 913.56 343.68 L 912.10 342.66 L 911.03 341.32 L 910.49 339.74 L 910.54 338.08 L 911.16 336.48 L 912.25 335.07 L 913.82 333.83 L 915.69 332.92 L 917.91 332.36 L 920.20 332.24 L 922.25 332.56 L 924.11 333.27 L 925.57 334.30 L 926.64 335.64 L 927.18 337.21 Z" fill="#f0a63b" fill-rule="nonzero" node-id="120" stroke-linecap="butt" stroke-width="1.0012991" target-height="12.468323" target-width="16.691284" target-x="910.4904" target-y="332.2423"></path><path d="M 871.13 388.43 L 871.29 389.96 L 870.97 391.45 L 870.13 392.95 L 868.94 394.23 L 867.39 395.28 L 865.44 396.09 L 863.35 396.47 L 861.48 396.43 L 859.79 396.01 L 858.27 395.20 L 857.19 394.13 L 856.49 392.75 L 856.33 391.21 L 856.65 389.72 L 857.49 388.22 L 858.68 386.95 L 860.23 385.90 L 862.18 385.08 L 864.27 384.70 L 866.14 384.74 L 867.84 385.17 L 869.36 385.97 L 870.43 387.05 L 871.13 388.43 Z" fill="#f0a63b" fill-rule="nonzero" node-id="122" stroke-linecap="butt" stroke-width="1" target-height="11.766602" target-width="14.960327" target-x="856.3301" target-y="384.70398"></path><path d="M 931.49 621.70 L 932.99 616.80 L 937.33 603.39 L 944.24 583.36 L 948.49 571.72 L 953.47 558.65 L 958.82 545.27 L 964.76 531.15 L 971.08 516.99 L 977.84 502.78 L 985.01 488.80 L 992.46 475.45 L 997.72 466.76 L 1003.02 458.65 L 1008.36 451.08 L 1021.71 433.50 L 1032.68 419.82 L 1043.05 407.59 L 1050.87 398.88 L 1057.93 391.44 L 1062.25 387.14 L 1066.19 383.48 L 1074.64 390.73 L 1071.47 392.98 L 1068.07 395.72 L 1062.62 400.57 L 1056.73 406.39 L 1049.09 414.75 L 1043.99 420.79 L 1038.26 428.08 L 1031.85 436.77 L 1025.73 445.63 L 1019.09 455.95 L 1011.90 467.87 L 1005.09 479.98 L 997.87 493.74 L 990.23 509.33 L 983.04 525.07 L 975.58 542.71 L 967.83 562.37 L 971.06 558.32 L 974.94 553.93 L 981.80 546.82 L 989.95 539.06 L 1001.59 528.88 L 1009.96 522.02 L 1020.03 514.25 L 1031.99 505.47 L 1044.16 497.01 L 1058.29 487.74 L 1074.55 477.60 L 1091.04 467.86 L 1109.74 457.42 L 1130.83 446.25 L 1136.83 457.15 L 1131.95 459.68 L 1118.62 466.93 L 1098.78 478.36 L 1087.28 485.33 L 1074.39 493.47 L 1061.25 502.13 L 1047.39 511.72 L 1033.58 521.82 L 1019.74 532.60 L 1010.68 540.08 L 1001.90 547.74 L 993.39 555.59 L 985.14 563.71 L 977.44 571.89 L 970.28 580.15 L 966.31 585.35 L 962.83 590.82 L 959.84 596.58 L 957.36 602.58 L 955.42 608.76 L 954.00 615.15 Z" fill="#f5d084" fill-rule="nonzero" node-id="124" stroke-linecap="butt" stroke-width="1" target-height="238.22" target-width="205.33997" target-x="931.49" target-y="383.48"></path><path d="M 1072.81 385.25 L 1074.17 387.30 L 1075.00 389.37 L 1075.34 391.49 L 1075.18 393.43 L 1074.50 395.17 L 1073.31 396.57 L 1071.72 397.47 L 1069.88 397.80 L 1067.94 397.60 L 1065.92 396.85 L 1064.05 395.64 L 1062.30 393.92 L 1060.94 391.88 L 1060.11 389.80 L 1059.77 387.68 L 1059.93 385.75 L 1060.61 384.00 L 1061.80 382.61 L 1063.39 381.70 L 1065.23 381.37 L 1067.16 381.58 L 1069.18 382.32 L 1071.06 383.53 L 1072.81 385.25 Z" fill="#f0a63b" fill-rule="nonzero" node-id="126" stroke-linecap="butt" stroke-width="1" target-height="16.430542" target-width="15.576416" target-x="1059.7659" target-y="381.37103"></path><path d="M 1137.46 449.28 L 1138.57 451.76 L 1139.10 454.18 L 1139.09 456.57 L 1138.55 458.66 L 1137.90 459.90 L 1137.03 460.92 L 1135.94 461.75 L 1134.68 462.28 L 1133.36 462.52 L 1131.95 462.47 L 1129.88 461.89 L 1127.81 460.70 L 1125.97 459.03 L 1124.38 456.83 L 1123.27 454.34 L 1122.74 451.92 L 1122.75 449.54 L 1123.28 447.45 L 1123.94 446.20 L 1124.80 445.18 L 1125.90 444.36 L 1127.16 443.82 L 1128.48 443.58 L 1129.88 443.64 L 1131.96 444.22 L 1134.03 445.40 L 1135.86 447.07 L 1137.46 449.28 Z" fill="#f0a63b" fill-rule="nonzero" node-id="128" stroke-linecap="butt" stroke-width="1" target-height="18.939392" target-width="16.358887" target-x="1122.7385" target-y="443.5831"></path><path d="M 867.62 655.84 L 874.04 649.50 L 878.96 644.99 L 883.59 641.12 L 887.22 638.42 L 890.71 636.13 L 893.73 634.38 L 899.84 631.12 L 907.62 627.16 L 915.88 623.57 L 921.53 621.46 L 927.61 619.50 L 934.15 617.70 L 940.75 616.18 L 948.02 614.82 L 956.00 613.63 L 971.73 611.85 L 983.51 611.05 L 992.46 610.99 L 999.66 611.41 L 1002.40 611.86 L 1007.77 613.13 L 1021.73 616.83 L 1039.35 621.50 L 1058.46 626.15 L 1068.02 628.18 L 1076.87 629.76 L 1085.41 630.89 L 1092.41 631.33 L 1109.89 631.55 L 1117.23 631.47 L 1123.48 631.18 L 1129.47 630.58 L 1135.12 629.63 L 1140.72 628.26 L 1146.73 626.33 L 1150.91 625.08 L 1155.26 624.28 L 1159.81 623.91 L 1164.36 624.04 L 1168.88 624.69 L 1173.38 625.86 L 1177.70 627.57 L 1181.80 629.87 L 1185.72 632.81 L 1188.35 635.33 L 1190.78 638.24 L 1193.02 641.59 L 1195.06 645.41 L 1197.66 651.48 L 1200.08 658.19 L 1202.30 665.57 L 1204.13 673.05 L 1205.63 680.96 L 1206.80 689.35 L 1207.54 697.77 L 1207.84 706.45 L 1207.69 715.39 L 1207.04 724.30 L 1205.83 733.29 L 1204.07 742.35 L 1202.37 749.05 L 1200.31 755.71 L 1197.88 762.31 L 1195.06 768.88 L 1188.02 783.15 L 1177.83 802.43 L 1165.30 824.92 L 1158.47 836.76 L 1151.30 848.83 L 1143.98 860.82 L 1136.66 872.37 L 1129.26 883.59 L 1122.22 893.73 L 1115.15 903.27 L 1108.82 911.12 L 1104.45 916.02 L 1100.64 919.84 L 1097.30 922.74 L 1094.50 924.74 L 1092.15 925.98 L 1090.19 926.62 L 1088.51 926.79 L 1086.66 926.47 L 1084.87 925.75 L 1083.13 924.60 L 1081.39 922.94 L 1079.66 920.69 L 1077.36 916.71 L 1075.06 911.51 L 1072.78 904.87 L 1070.89 898.14 L 1069.03 890.45 L 1067.20 881.70 L 1064.74 868.33 L 1062.27 853.56 L 1057.33 822.79 L 1054.64 807.12 L 1051.72 791.77 L 1049.55 781.60 L 1047.24 771.97 L 1044.78 762.86 L 1040.42 749.07 L 1034.53 732.11 L 1027.76 713.52 L 1020.76 694.85 L 1014.18 677.64 L 1008.68 663.43 L 1004.89 653.77 L 1003.49 650.21 L 1001.14 651.70 L 995.28 655.79 L 991.67 658.55 L 987.69 661.88 L 983.81 665.50 L 980.16 669.41 L 977.93 672.19 L 976.05 674.98 L 974.49 677.79 L 972.93 680.62 L 970.81 683.77 L 968.05 687.27 L 965.08 690.58 L 961.71 693.91 L 957.91 697.29 L 953.93 700.44 L 949.76 703.36 L 945.39 706.04 L 940.85 708.40 L 936.32 710.28 L 931.81 711.71 L 927.19 712.63 L 922.77 712.88 L 918.49 712.50 L 910.51 710.75 L 902.58 708.36 L 894.89 705.42 L 887.81 702.11 L 883.28 699.61 L 879.29 697.08 L 875.79 694.52 L 872.52 691.68 L 870.00 688.98 L 868.14 686.39 L 866.13 682.64 L 864.61 678.92 L 863.55 675.21 L 862.93 671.41 L 862.84 667.84 L 863.23 664.48 L 864.15 661.25 L 865.61 658.39 L 867.62 655.84 Z" fill="#ffffff" fill-rule="nonzero" node-id="130" stroke-linecap="butt" stroke-width="1" target-height="315.8023" target-width="345.00757" target-x="862.8367" target-y="610.9877"></path><path d="M 1003.49 650.10 L 1001.14 651.59 L 995.28 655.68 L 991.67 658.44 L 987.69 661.77 L 983.81 665.39 L 980.16 669.30 L 977.93 672.08 L 976.05 674.87 L 974.49 677.68 L 972.93 680.51 L 970.81 683.66 L 968.05 687.16 L 965.08 690.47 L 961.71 693.80 L 957.91 697.18 L 953.93 700.33 L 949.76 703.25 L 945.39 705.93 L 940.85 708.29 L 936.32 710.17 L 931.81 711.60 L 927.19 712.52 L 922.77 712.77 L 918.49 712.39 L 910.51 710.64 L 902.58 708.25 L 894.89 705.31 L 887.81 702.00 L 883.28 699.50 L 879.29 696.97 L 875.79 694.41 L 872.52 691.57 L 870.00 688.87 L 868.14 686.28 L 866.13 682.53 L 864.61 678.81 L 863.55 675.10 L 862.93 671.30 L 862.84 667.74 L 863.23 664.37 L 864.15 661.14 L 865.61 658.28 L 867.62 655.74 L 874.04 649.40 L 878.96 644.89 L 883.59 641.02 L 887.22 638.32 L 890.71 636.03 L 893.73 634.28 L 899.84 631.02 L 906.59 627.54 L 913.51 624.44 L 920.59 621.69 L 924.37 620.63 L 927.51 620.11 L 932.16 619.77 L 937.29 619.89 L 943.98 620.70 L 948.54 621.61 L 953.79 623.02 L 959.80 625.01 L 965.66 627.33 L 972.25 630.38 L 979.64 634.28 L 986.80 638.52 L 994.72 643.75 L 1003.49 650.10 Z" fill="#f2f4e9" fill-rule="nonzero" node-id="132" stroke-linecap="butt" stroke-width="1" target-height="92.996155" target-width="140.65332" target-x="862.8367" target-y="619.77325"></path><path d="M 1066.90 233.35 L 1066.88 244.69 L 1066.43 256.06 L 1065.55 267.49 L 1064.22 278.98 L 1061.89 294.22 L 1059.00 309.45 L 1055.54 324.70 L 1051.64 339.85 L 1047.41 354.89 L 1042.85 369.83 L 1035.60 392.04 L 1028.13 413.70 L 1030.52 409.28 L 1036.69 397.06 L 1040.56 388.82 L 1045.09 378.59 L 1049.57 367.72 L 1054.21 355.44 L 1058.52 342.70 L 1062.51 329.16 L 1064.84 319.97 L 1066.83 310.69 L 1068.47 301.31 L 1070.32 286.93 L 1071.62 272.53 L 1072.40 258.10 L 1072.64 243.65 L 1072.34 229.15 Z" fill="#f2f4e9" fill-rule="nonzero" node-id="134" stroke-linecap="butt" stroke-width="1" target-height="184.55002" target-width="44.50647" target-x="1028.13" target-y="229.15"></path><path d="M 749.34 1517.64 L 749.65 1533.57 L 749.51 1546.70 L 748.93 1559.01 L 748.03 1569.16 L 746.72 1578.70 L 745.18 1586.74 L 743.29 1594.37 L 741.23 1601.17 L 741.13 1601.97 L 741.29 1602.73 L 741.68 1603.41 L 742.29 1603.93 L 743.05 1604.22 L 743.83 1604.25 L 744.57 1604.03 L 745.23 1603.56 L 756.97 1590.24 L 763.38 1575.07 L 764.88 1539.88 L 754.11 1518.88 L 753.09 1518.39 L 751.01 1517.62 L 749.97 1517.47 L 749.34 1517.64 Z" fill="#f2f4e9" fill-rule="nonzero" node-id="136" stroke-linecap="butt" stroke-width="1" target-height="86.78174" target-width="23.752563" target-x="741.12744" target-y="1517.4697"></path><path d="M 313.00 995.52 L 310.47 996.52 L 307.90 997.79 L 304.26 1000.04 L 301.84 1001.81 L 299.24 1004.08 L 296.45 1006.90 L 293.93 1009.94 L 291.49 1013.58 L 289.13 1017.91 L 287.21 1022.43 L 285.61 1027.71 L 284.37 1033.87 L 284.50 1034.63 L 285.05 1035.17 L 285.81 1035.30 L 286.50 1034.95 L 288.81 1032.69 L 292.17 1029.71 L 295.95 1026.72 L 300.63 1023.50 L 305.71 1020.55 L 311.50 1017.85 L 315.56 1016.37 L 319.86 1015.19 L 324.43 1014.32 L 329.05 1013.88 L 333.91 1013.92 L 339.02 1014.46 L 344.05 1015.54 L 349.34 1017.30 L 354.92 1019.81 L 353.19 1018.65 L 348.67 1015.72 L 342.37 1011.87 L 335.29 1007.96 L 331.70 1006.20 L 328.44 1004.81 L 323.39 1002.59 L 319.69 1000.57 L 316.53 998.48 L 314.63 997.01 L 313.00 995.52 Z" fill="#f2f4e9" fill-rule="nonzero" node-id="138" stroke-linecap="butt" stroke-width="1" target-height="39.776367" target-width="70.54999" target-x="284.37" target-y="995.52"></path><path d="M 232.62 1375.19 L 232.19 1375.39 L 231.72 1375.37 L 231.30 1375.13 L 231.05 1374.73 L 230.50 1372.80 L 229.79 1369.56 L 229.25 1365.90 L 228.92 1361.12 L 229.00 1356.00 L 229.64 1349.93 L 230.40 1345.83 L 231.55 1341.37 L 233.13 1336.53 L 235.03 1331.83 L 237.49 1326.82 L 240.57 1321.47 L 244.04 1316.04 L 249.11 1308.56 L 254.89 1300.61 L 262.28 1291.21 L 267.56 1284.93 L 273.55 1278.27 L 280.30 1271.20 L 287.27 1264.38 L 294.95 1257.42 L 303.40 1250.31 L 312.12 1243.55 L 321.57 1236.89 L 331.80 1230.31 L 339.62 1225.72 L 347.87 1221.30 L 356.56 1217.05 L 365.72 1212.99 L 374.92 1209.33 L 384.59 1205.96 L 394.73 1202.89 L 405.38 1200.12 L 416.00 1197.84 L 427.13 1195.96 L 438.79 1194.51 L 451.02 1193.49 L 463.08 1193.01 L 475.72 1193.06 L 488.96 1193.67 L 502.84 1194.87 L 503.46 1194.71 L 503.86 1194.21 L 503.87 1193.57 L 503.49 1193.05 L 494.25 1187.11 L 481.25 1178.55 L 466.27 1168.35 L 451.15 1157.53 L 443.97 1152.10 L 437.69 1147.08 L 431.94 1142.11 L 427.70 1138.00 L 423.41 1133.08 L 419.57 1128.05 L 416.15 1122.90 L 411.57 1114.92 L 407.73 1107.09 L 404.33 1099.28 L 401.47 1092.10 L 396.43 1079.42 L 391.55 1068.78 L 388.38 1062.55 L 384.53 1055.59 L 380.26 1048.62 L 375.38 1041.50 L 371.87 1036.89 L 368.12 1032.45 L 364.13 1028.17 L 359.90 1024.15 L 355.46 1020.52 L 350.80 1017.25 L 340.49 1010.95 L 332.29 1006.43 L 324.55 1002.70 L 318.39 1000.23 L 312.52 998.40 L 307.68 997.33 L 307.14 997.02 L 306.88 996.45 L 307.01 995.84 L 307.48 995.43 L 311.87 993.73 L 319.17 991.17 L 327.42 988.59 L 338.10 985.70 L 345.53 983.96 L 353.80 982.31 L 362.98 980.76 L 372.17 979.55 L 382.00 978.65 L 392.52 978.10 L 403.02 978.00 L 413.99 978.43 L 425.43 979.43 L 435.51 980.83 L 444.82 982.52 L 453.42 984.48 L 461.35 986.70 L 471.92 990.23 L 481.26 993.94 L 489.49 997.80 L 497.53 1002.14 L 504.41 1006.31 L 510.26 1010.33 L 515.92 1014.67 L 520.47 1018.50 L 524.06 1021.87 L 528.79 1026.87 L 531.29 1030.00 L 533.07 1032.72 L 535.55 1037.07 L 541.07 1047.76 L 547.18 1060.40 L 553.23 1073.28 L 558.53 1084.71 L 562.42 1093.00 L 567.22 1102.41 L 569.95 1107.30 L 572.82 1112.08 L 575.83 1116.65 L 578.78 1120.62 L 581.89 1124.16 L 584.70 1126.66 L 585.09 1126.84 L 585.52 1126.84 L 585.91 1126.65 L 586.19 1126.32 L 589.09 1120.72 L 593.86 1112.01 L 599.71 1102.20 L 602.84 1097.43 L 605.82 1093.32 L 607.22 1091.19 L 608.79 1088.18 L 610.55 1084.08 L 612.88 1077.63 L 615.33 1069.77 L 617.60 1061.54 L 619.79 1052.73 L 621.79 1043.86 L 623.54 1035.30 L 625.07 1026.96 L 626.22 1019.80 L 627.06 1013.16 L 627.42 1008.57 L 627.71 1004.52 L 628.42 998.13 L 629.40 991.09 L 630.82 982.52 L 632.51 973.59 L 634.60 963.93 L 637.01 954.21 L 639.77 944.56 L 642.90 935.15 L 646.30 926.60 L 648.87 921.10 L 651.50 916.33 L 654.19 912.23 L 656.50 909.29 L 658.80 906.92 L 661.11 905.06 L 663.42 903.64 L 670.12 900.49 L 675.30 898.47 L 678.69 897.44 L 681.58 896.84 L 684.04 896.58 L 686.51 896.62 L 688.77 896.96 L 690.85 897.59 L 693.87 899.02 L 696.97 901.09 L 700.05 903.58 L 703.62 906.71 L 707.79 910.28 L 712.32 913.78 L 717.22 917.22 L 722.28 920.40 L 727.56 923.31 L 733.07 925.94 L 738.74 928.20 L 744.50 930.00 L 750.38 931.35 L 753.33 932.07 L 756.70 933.25 L 760.55 934.98 L 764.25 936.96 L 768.16 939.37 L 772.29 942.24 L 776.25 945.32 L 780.19 948.74 L 784.10 952.51 L 787.79 956.49 L 791.25 960.72 L 794.47 965.19 L 797.37 969.87 L 799.84 974.69 L 801.90 979.67 L 803.47 984.81 L 804.46 990.02 L 804.87 995.35 L 804.93 1003.64 L 804.71 1013.75 L 804.04 1024.41 L 802.63 1036.82 L 801.29 1045.23 L 799.43 1054.37 L 796.99 1064.31 L 794.15 1074.09 L 790.57 1084.61 L 786.17 1095.91 L 781.30 1106.97 L 775.45 1118.76 L 768.53 1131.35 L 763.07 1140.46 L 756.93 1149.98 L 750.07 1159.94 L 742.43 1170.35 L 742.23 1170.90 L 742.37 1171.46 L 742.80 1171.85 L 743.37 1171.94 L 753.06 1170.43 L 768.51 1168.26 L 787.99 1165.90 L 798.60 1164.81 L 809.76 1163.83 L 821.00 1163.05 L 832.12 1162.53 L 843.11 1162.33 L 853.33 1162.49 L 863.21 1163.11 L 871.68 1164.17 L 886.90 1166.96 L 899.06 1169.67 L 910.28 1172.68 L 919.35 1175.59 L 927.79 1178.74 L 934.98 1181.79 L 948.35 1188.17 L 953.01 1190.25 L 959.00 1192.51 L 965.38 1194.61 L 972.53 1196.70 L 979.89 1198.61 L 987.45 1200.36 L 995.02 1201.89 L 1002.22 1203.12 L 1009.25 1204.06 L 1015.34 1204.59 L 1021.05 1204.72 L 1025.28 1204.39 L 1035.86 1202.47 L 1047.54 1200.11 L 1053.33 1199.02 L 1058.49 1198.20 L 1063.36 1197.68 L 1066.90 1197.64 L 1069.06 1197.97 L 1070.30 1198.55 L 1070.94 1199.33 L 1071.02 1200.27 L 1070.63 1202.01 L 1069.43 1204.98 L 1067.11 1209.40 L 1063.53 1215.25 L 1059.38 1221.28 L 1054.34 1227.90 L 1048.86 1234.41 L 1042.94 1240.71 L 1038.76 1244.70 L 1034.59 1248.26 L 1030.42 1251.43 L 1026.03 1254.25 L 1021.86 1256.36 L 1017.88 1257.83 L 1012.65 1259.04 L 1004.21 1260.44 L 994.80 1261.72 L 983.03 1263.12 L 956.62 1265.96 L 927.26 1269.10 L 897.25 1272.65 L 882.55 1274.63 L 868.87 1276.71 L 855.70 1279.04 L 844.40 1281.42 L 837.10 1283.27 L 831.06 1285.09 L 826.14 1286.89 L 810.60 1293.46 L 799.86 1298.29 L 792.22 1301.72 L 788.99 1303.03 L 786.00 1304.08 L 782.96 1304.96 L 779.51 1305.72 L 771.06 1306.99 L 770.54 1307.22 L 770.23 1307.70 L 770.23 1308.26 L 770.54 1308.74 L 776.94 1314.31 L 781.17 1318.34 L 786.28 1323.60 L 791.42 1329.37 L 796.90 1336.17 L 800.39 1340.95 L 803.79 1346.09 L 807.10 1351.59 L 810.11 1357.26 L 812.81 1363.20 L 815.20 1369.43 L 817.15 1375.81 L 818.60 1382.41 L 819.54 1389.25 L 820.34 1401.21 L 820.63 1414.03 L 820.40 1427.06 L 819.67 1440.41 L 818.46 1453.76 L 816.78 1466.90 L 814.62 1479.85 L 812.05 1492.06 L 810.04 1500.07 L 807.88 1507.51 L 805.58 1514.40 L 802.97 1521.20 L 800.26 1527.20 L 797.48 1532.47 L 792.23 1541.21 L 786.57 1550.01 L 780.71 1558.64 L 774.97 1566.73 L 764.26 1581.13 L 755.98 1591.72 L 755.38 1592.06 L 754.71 1591.94 L 754.27 1591.41 L 754.28 1590.72 L 755.77 1586.63 L 757.36 1581.41 L 758.68 1575.85 L 759.68 1569.65 L 760.05 1565.42 L 760.12 1561.11 L 759.86 1556.72 L 759.15 1551.68 L 758.09 1546.40 L 756.64 1540.88 L 753.98 1532.72 L 750.79 1524.59 L 747.17 1516.70 L 743.37 1509.45 L 739.31 1502.63 L 735.47 1497.04 L 732.36 1493.20 L 728.41 1488.94 L 724.12 1484.71 L 719.45 1480.40 L 709.99 1472.17 L 701.39 1465.01 L 695.05 1459.66 L 694.52 1459.43 L 693.95 1459.54 L 693.53 1459.94 L 693.41 1460.51 L 694.37 1472.07 L 695.39 1490.79 L 695.70 1501.89 L 695.79 1514.36 L 695.55 1527.14 L 694.89 1540.44 L 693.74 1553.74 L 692.01 1566.71 L 689.85 1578.89 L 687.53 1589.89 L 685.09 1599.81 L 682.31 1609.67 L 679.60 1618.21 L 676.95 1625.55 L 674.00 1632.82 L 671.35 1638.60 L 668.97 1643.09 L 666.25 1647.46 L 664.16 1650.11 L 662.57 1651.55 L 661.54 1652.01 L 660.41 1652.10 L 659.12 1651.79 L 657.59 1650.97 L 655.75 1649.57 L 653.60 1647.56 L 651.10 1644.81 L 647.48 1640.40 L 643.38 1635.12 L 634.74 1623.97 L 630.12 1618.44 L 625.46 1613.41 L 617.37 1604.95 L 607.82 1594.11 L 601.51 1586.44 L 594.75 1577.67 L 587.51 1567.70 L 580.59 1557.56 L 573.40 1546.22 L 565.91 1533.59 L 556.40 1517.08 L 549.10 1503.99 L 546.08 1497.98 L 543.40 1492.00 L 540.99 1485.81 L 538.66 1478.78 L 536.54 1471.25 L 534.27 1461.99 L 532.10 1451.95 L 529.60 1439.31 L 527.81 1428.35 L 526.66 1418.34 L 526.08 1409.21 L 525.93 1400.01 L 526.15 1391.78 L 526.69 1384.42 L 527.99 1373.74 L 529.50 1365.18 L 531.22 1357.36 L 532.60 1351.73 L 532.53 1351.17 L 532.16 1350.74 L 531.62 1350.58 L 531.08 1350.73 L 528.04 1352.72 L 522.79 1355.86 L 516.75 1359.14 L 508.69 1363.02 L 499.88 1366.73 L 489.22 1370.53 L 481.83 1372.77 L 473.72 1374.84 L 464.83 1376.72 L 455.89 1378.18 L 446.28 1379.25 L 435.95 1379.91 L 425.63 1380.04 L 414.67 1379.56 L 403.04 1378.43 L 394.44 1377.19 L 385.51 1375.48 L 376.21 1373.30 L 366.53 1370.61 L 355.10 1367.35 L 344.56 1364.71 L 334.87 1362.64 L 325.96 1361.09 L 313.76 1359.51 L 302.97 1358.66 L 293.46 1358.45 L 283.90 1358.77 L 275.61 1359.51 L 268.45 1360.61 L 261.33 1362.14 L 255.34 1363.78 L 250.36 1365.50 L 243.40 1368.48 L 238.61 1371.05 L 234.63 1373.64 L 232.62 1375.19 Z" fill="#ffffff" fill-rule="nonzero" node-id="140" stroke-linecap="butt" stroke-width="1" target-height="755.5223" target-width="842.0932" target-x="228.92474" target-y="896.5789"></path><path d="M 233.80 1377.52 L 234.95 1375.88 L 238.22 1371.99 L 240.52 1369.74 L 243.38 1367.40 L 246.57 1365.34 L 250.19 1363.66 L 252.75 1362.87 L 255.47 1362.42 L 258.39 1362.32 L 262.40 1362.28 L 266.00 1361.92 L 269.24 1361.27 L 273.92 1359.82 L 278.02 1358.07 L 285.35 1354.22 L 288.73 1352.48 L 291.85 1351.19 L 295.13 1350.35 L 298.77 1349.86 L 302.85 1349.72 L 308.99 1350.09 L 315.30 1351.00 L 321.49 1352.35 L 327.03 1353.93 L 332.16 1355.74 L 335.85 1357.38 L 337.90 1358.61 L 340.02 1360.14 L 344.81 1363.61 L 347.71 1365.32 L 351.46 1367.07 L 347.52 1366.28 L 342.95 1365.68 L 334.95 1365.10 L 325.72 1364.94 L 312.59 1365.37 L 303.38 1366.03 L 292.35 1367.18 L 279.26 1368.91 L 266.23 1370.99 L 251.15 1373.83 L 233.80 1377.52 Z" fill="#f2f4e9" fill-rule="nonzero" node-id="142" stroke-linecap="butt" stroke-width="1" target-height="27.796997" target-width="117.660034" target-x="233.79999" target-y="1349.723"></path><path d="M 990.37 1252.33 L 986.48 1253.13 L 981.70 1253.68 L 976.74 1253.94 L 971.72 1254.02 L 962.74 1253.82 L 959.70 1253.35 L 955.80 1252.12 L 951.79 1250.43 L 947.40 1248.27 L 938.81 1243.45 L 931.28 1238.82 L 926.81 1236.24 L 922.38 1234.13 L 917.91 1232.41 L 913.77 1231.19 L 909.72 1230.37 L 906.28 1230.06 L 903.12 1230.23 L 900.23 1230.95 L 897.41 1232.22 L 893.99 1234.34 L 885.46 1240.76 L 881.54 1243.51 L 877.68 1245.71 L 869.32 1249.64 L 864.78 1251.74 L 859.48 1254.43 L 853.95 1257.60 L 847.25 1261.97 L 840.66 1266.89 L 834.82 1271.80 L 824.06 1281.63 L 818.86 1286.30 L 813.63 1290.60 L 810.01 1293.24 L 806.20 1295.65 L 802.19 1297.82 L 800.90 1298.41 L 800.90 1298.41 L 811.93 1293.43 L 828.31 1286.49 L 832.93 1284.79 L 838.54 1283.07 L 845.29 1281.33 L 855.72 1279.06 L 867.86 1276.84 L 880.49 1274.84 L 894.14 1272.93 L 922.23 1269.51 L 950.21 1266.47 L 976.20 1263.72 L 998.29 1261.16 L 1007.68 1259.86 L 1014.58 1258.69 L 1011.85 1257.11 L 1008.69 1255.61 L 1005.38 1254.32 L 1002.01 1253.27 L 998.63 1252.48 L 995.56 1252.04 L 992.64 1251.98 L 990.37 1252.33 Z" fill="#f2f4e9" fill-rule="nonzero" node-id="144" stroke-linecap="butt" stroke-width="1" target-height="68.349976" target-width="213.67993" target-x="800.9" target-y="1230.06"></path><path d="M 411.06 1110.79 L 413.36 1113.04 L 419.33 1118.82 L 427.62 1126.71 L 436.85 1135.25 L 445.65 1143.01 L 449.64 1146.30 L 452.65 1148.56 L 456.85 1151.29 L 460.57 1153.34 L 464.25 1155.09 L 467.63 1156.52 L 474.20 1159.20 L 477.39 1160.66 L 480.65 1162.44 L 483.94 1164.56 L 487.48 1167.16 L 490.94 1169.97 L 494.25 1172.93 L 497.36 1176.00 L 499.94 1178.87 L 502.13 1181.76 L 503.48 1184.10 L 504.97 1188.02 L 505.95 1192.06 L 506.40 1196.23 L 503.55 1195.16 L 495.90 1192.00 L 484.81 1186.82 L 478.51 1183.56 L 471.62 1179.69 L 464.72 1175.45 L 457.69 1170.68 L 452.06 1166.34 L 446.77 1161.75 L 441.82 1156.90 L 437.12 1151.79 L 432.78 1146.61 L 428.78 1141.36 L 423.25 1133.28 L 418.55 1125.50 L 414.38 1117.74 L 411.06 1110.79 Z" fill="#f2f4e9" fill-rule="nonzero" node-id="146" stroke-linecap="butt" stroke-width="1" target-height="85.43994" target-width="95.34003" target-x="411.06" target-y="1110.79"></path><path d="M 584.42 1289.17 L 583.77 1282.45 L 582.41 1272.44 L 580.49 1261.40 L 577.47 1247.29 L 575.06 1237.59 L 572.02 1226.65 L 568.26 1214.37 L 564.18 1202.23 L 559.28 1188.91 L 553.48 1174.34 L 547.29 1159.98 L 540.09 1144.51 L 531.79 1127.86 L 543.27 1124.75 L 545.11 1128.91 L 550.01 1140.22 L 557.08 1156.93 L 565.40 1177.28 L 574.07 1199.52 L 578.28 1210.86 L 582.18 1221.88 L 585.80 1232.75 L 588.82 1242.63 L 591.38 1252.14 L 593.08 1259.99 L 593.55 1254.84 L 594.70 1240.91 L 596.16 1220.45 L 597.56 1195.75 L 598.11 1182.57 L 598.52 1169.07 L 598.72 1155.60 L 598.67 1142.68 L 598.31 1130.07 L 597.63 1118.85 L 596.92 1111.51 L 596.04 1105.21 L 595.03 1099.84 L 604.37 1097.57 L 605.59 1103.50 L 606.75 1109.98 L 608.33 1120.04 L 609.79 1131.23 L 611.23 1145.29 L 612.30 1160.22 L 612.93 1177.36 L 613.01 1189.01 L 612.73 1201.33 L 612.07 1214.34 L 611.01 1227.30 L 609.42 1240.63 L 607.29 1254.35 L 610.79 1249.09 L 620.18 1234.12 L 626.31 1223.82 L 633.82 1210.63 L 641.52 1196.43 L 650.05 1179.81 L 658.49 1162.32 L 667.23 1142.85 L 672.81 1129.55 L 678.31 1115.59 L 683.70 1100.95 L 696.22 1109.28 L 694.16 1113.54 L 688.56 1125.10 L 680.29 1142.13 L 670.19 1162.82 L 659.14 1185.34 L 647.99 1207.85 L 637.61 1228.55 L 628.86 1245.60 L 622.59 1257.18 L 626.44 1254.28 L 637.51 1246.50 L 645.17 1241.45 L 655.03 1235.28 L 665.68 1228.98 L 678.25 1222.01 L 691.53 1215.17 L 706.43 1208.12 L 716.64 1203.65 L 727.42 1199.28 L 738.81 1195.01 L 750.30 1191.09 L 762.24 1187.45 L 774.64 1184.10 L 776.78 1190.81 L 770.76 1192.35 L 764.21 1194.28 L 753.85 1197.69 L 742.41 1201.90 L 727.75 1207.90 L 717.73 1212.36 L 706.56 1217.72 L 694.17 1224.05 L 681.99 1230.71 L 668.89 1238.41 L 654.81 1247.22 L 641.04 1256.43 L 626.58 1266.83 L 611.37 1278.48 L 616.01 1276.66 L 628.57 1271.98 L 647.06 1265.60 L 657.72 1262.18 L 669.45 1258.67 L 681.45 1255.38 L 693.74 1252.36 L 706.06 1249.78 L 717.91 1247.83 L 720.41 1255.45 L 716.36 1256.47 L 705.55 1259.26 L 689.99 1263.40 L 671.71 1268.47 L 652.72 1274.07 L 635.04 1279.78 L 627.08 1282.64 L 620.69 1285.18 L 615.04 1287.82 L 611.67 1289.86 L 609.12 1291.98 L 606.83 1294.37 L 605.49 1295.70 L 604.00 1296.76 L 602.35 1297.58 L 600.60 1298.13 L 598.79 1298.39 L 596.90 1298.37 L 593.14 1298.02 L 590.86 1297.52 L 588.89 1296.58 L 587.17 1295.18 L 585.80 1293.44 L 584.89 1291.46 L 584.42 1289.17 Z" fill="#f5d084" fill-rule="nonzero" node-id="148" stroke-linecap="butt" stroke-width="1" target-height="200.82288" target-width="244.99005" target-x="531.79" target-y="1097.57"></path><path d="M 550.86 1123.25 L 551.34 1124.73 L 551.45 1126.28 L 551.17 1127.94 L 550.56 1129.54 L 549.64 1131.13 L 548.34 1132.74 L 546.00 1134.82 L 543.00 1136.61 L 539.72 1137.83 L 536.62 1138.37 L 534.56 1138.37 L 532.74 1138.10 L 531.12 1137.57 L 529.65 1136.76 L 528.50 1135.71 L 527.64 1134.40 L 527.16 1132.92 L 527.06 1131.37 L 527.34 1129.71 L 527.95 1128.12 L 528.87 1126.52 L 530.16 1124.92 L 532.51 1122.83 L 535.51 1121.04 L 538.79 1119.82 L 541.88 1119.29 L 543.94 1119.28 L 545.77 1119.55 L 547.39 1120.08 L 548.86 1120.90 L 550.00 1121.95 L 550.86 1123.25 Z" fill="#f0a63b" fill-rule="nonzero" node-id="150" stroke-linecap="butt" stroke-width="0.99999994" target-height="19.088745" target-width="24.388306" target-x="527.05963" target-y="1119.2823"></path><path d="M 612.62 1097.32 L 612.70 1098.88 L 612.41 1100.40 L 611.71 1101.93 L 610.72 1103.32 L 609.41 1104.62 L 607.75 1105.85 L 604.95 1107.26 L 601.59 1108.22 L 598.11 1108.56 L 594.98 1108.28 L 592.99 1107.75 L 591.29 1107.02 L 589.86 1106.10 L 588.65 1104.93 L 587.81 1103.62 L 587.32 1102.14 L 587.23 1100.59 L 587.53 1099.06 L 588.23 1097.53 L 589.22 1096.14 L 590.53 1094.84 L 592.19 1093.62 L 594.99 1092.21 L 598.35 1091.25 L 601.83 1090.91 L 604.96 1091.19 L 606.95 1091.71 L 608.64 1092.44 L 610.08 1093.37 L 611.29 1094.54 L 612.13 1095.84 L 612.62 1097.32 Z" fill="#f0a63b" fill-rule="nonzero" node-id="152" stroke-linecap="butt" stroke-width="1" target-height="17.650879" target-width="25.469604" target-x="587.234" target-y="1090.908"></path><path d="M 694.06 1095.68 L 697.24 1097.14 L 699.80 1098.96 L 701.25 1100.42 L 702.35 1101.90 L 703.12 1103.42 L 703.58 1105.04 L 703.64 1106.59 L 703.33 1108.12 L 702.61 1109.51 L 701.59 1110.67 L 700.22 1111.65 L 698.66 1112.35 L 696.88 1112.81 L 694.83 1113.03 L 691.70 1112.84 L 688.31 1111.98 L 685.13 1110.52 L 682.57 1108.70 L 681.11 1107.25 L 680.02 1105.76 L 679.24 1104.24 L 678.79 1102.62 L 678.72 1101.07 L 679.04 1099.54 L 679.75 1098.16 L 680.77 1096.99 L 682.15 1096.02 L 683.71 1095.32 L 685.49 1094.85 L 687.54 1094.63 L 690.67 1094.83 L 694.06 1095.68 Z" fill="#f0a63b" fill-rule="nonzero" node-id="154" stroke-linecap="butt" stroke-width="0.99999994" target-height="18.39856" target-width="24.92212" target-x="678.7216" target-y="1094.6323"></path><path d="M 778.77 1185.00 L 779.58 1187.17 L 779.93 1189.21 L 779.86 1191.20 L 779.40 1192.85 L 778.54 1194.23 L 777.31 1195.15 L 775.82 1195.53 L 774.21 1195.35 L 772.63 1194.67 L 771.04 1193.48 L 769.66 1191.93 L 768.48 1189.95 L 767.67 1187.78 L 767.32 1185.74 L 767.39 1183.76 L 767.85 1182.10 L 768.71 1180.73 L 769.94 1179.81 L 771.42 1179.42 L 773.04 1179.61 L 774.62 1180.28 L 776.21 1181.47 L 777.59 1183.02 L 778.77 1185.00 Z" fill="#f0a63b" fill-rule="nonzero" node-id="156" stroke-linecap="butt" stroke-width="0.99999994" target-height="16.106201" target-width="12.608398" target-x="767.3206" target-y="1179.4238"></path><path d="M 723.68 1248.80 L 724.34 1251.48 L 724.48 1253.96 L 724.13 1256.30 L 723.36 1258.20 L 722.58 1259.28 L 721.66 1260.09 L 720.56 1260.64 L 719.35 1260.88 L 718.13 1260.82 L 716.85 1260.45 L 715.07 1259.43 L 713.35 1257.80 L 711.93 1255.77 L 710.79 1253.26 L 710.13 1250.57 L 710.00 1248.10 L 710.34 1245.76 L 711.12 1243.85 L 711.89 1242.77 L 712.82 1241.97 L 713.92 1241.42 L 715.12 1241.17 L 716.35 1241.23 L 717.62 1241.60 L 719.41 1242.63 L 721.13 1244.25 L 722.55 1246.29 L 723.68 1248.80 Z" fill="#f0a63b" fill-rule="nonzero" node-id="158" stroke-linecap="butt" stroke-width="1" target-height="19.707397" target-width="14.484375" target-x="709.99536" target-y="1241.1746"></path><path d="M 663.18 1274.24 L 667.49 1274.67 L 679.00 1276.11 L 686.52 1277.25 L 695.53 1278.82 L 704.88 1280.69 L 714.94 1283.03 L 725.03 1285.77 L 735.05 1288.99 L 741.64 1291.44 L 747.85 1294.10 L 753.72 1296.95 L 759.39 1300.17 L 764.39 1303.57 L 768.78 1307.15 L 770.38 1306.96 L 774.14 1306.47 L 778.53 1305.82 L 782.00 1305.15 L 778.36 1303.68 L 768.89 1299.78 L 755.76 1294.25 L 741.14 1287.86 L 727.20 1281.40 L 720.94 1278.28 L 716.11 1275.66 L 714.46 1274.93 L 712.14 1274.27 L 708.99 1273.71 L 704.11 1273.21 L 698.29 1272.93 L 692.30 1272.87 L 686.19 1272.96 L 674.86 1273.43 L 666.46 1273.98 L 663.18 1274.24 Z" fill="#f2f4e9" fill-rule="nonzero" node-id="160" stroke-linecap="butt" stroke-width="1" target-height="34.28296" target-width="118.82001" target-x="663.18" target-y="1272.8671"></path><path d="M 535.42 1350.41 L 537.05 1346.80 L 539.00 1343.06 L 542.28 1337.58 L 546.24 1331.83 L 551.64 1325.12 L 555.64 1320.78 L 560.29 1316.35 L 565.65 1311.82 L 571.30 1307.69 L 577.68 1303.77 L 584.84 1300.06 L 581.55 1300.95 L 572.90 1303.85 L 567.33 1306.06 L 560.73 1309.06 L 554.02 1312.57 L 546.89 1316.90 L 542.25 1320.13 L 537.69 1323.72 L 533.21 1327.71 L 522.84 1337.13 L 513.25 1345.10 L 504.39 1351.77 L 495.18 1358.06 L 486.93 1363.18 L 479.55 1367.28 L 471.95 1371.06 L 465.51 1373.95 L 460.09 1376.07 L 452.31 1378.68 L 447.39 1379.99 L 442.85 1380.89 L 446.98 1380.62 L 451.41 1380.20 L 458.11 1379.36 L 465.45 1378.19 L 474.39 1376.40 L 483.69 1374.12 L 493.95 1371.05 L 500.80 1368.66 L 507.78 1365.85 L 514.91 1362.62 L 521.86 1359.03 L 528.70 1354.97 L 535.42 1350.41 Z" fill="#f2f4e9" fill-rule="nonzero" node-id="162" stroke-linecap="butt" stroke-width="1" target-height="80.829956" target-width="141.99005" target-x="442.84998" target-y="1300.06"></path><path d="M 676.10 1440.36 L 670.87 1435.61 L 665.65 1430.14 L 660.45 1423.89 L 655.60 1417.37 L 650.90 1410.39 L 646.34 1402.96 L 642.07 1395.35 L 638.07 1387.61 L 634.33 1379.74 L 629.23 1367.85 L 624.96 1356.45 L 622.44 1348.81 L 620.39 1341.76 L 618.78 1335.28 L 617.45 1328.70 L 616.67 1323.12 L 616.34 1318.43 L 616.39 1322.39 L 616.92 1332.93 L 617.52 1339.81 L 618.50 1348.03 L 619.84 1356.55 L 621.70 1365.70 L 624.08 1374.84 L 627.09 1383.90 L 629.49 1389.80 L 632.21 1395.38 L 635.24 1400.64 L 640.36 1408.17 L 645.22 1414.51 L 649.83 1419.79 L 654.76 1424.83 L 659.12 1428.86 L 662.96 1432.00 L 668.65 1436.12 L 672.45 1438.47 L 676.10 1440.36 Z" fill="#f2f4e9" fill-rule="nonzero" node-id="164" stroke-linecap="butt" stroke-width="1" target-height="121.92993" target-width="59.75995" target-x="616.34" target-y="1318.43"></path></svg>