<?xml version="1.0" standalone="no"?><!DOCTYPE svg PUBLIC "-//W3C//DTD SVG 1.1//EN" "http://www.w3.org/Graphics/SVG/1.1/DTD/svg11.dtd"><svg height="2000" legacy-metrics="false" node-id="1" sillyvg="true" template-height="2000" template-width="1400" version="1.1" viewBox="0 0 1400 2000" width="1400" xmlns="http://www.w3.org/2000/svg" xmlns:xlink="http://www.w3.org/1999/xlink"><defs node-id="49"></defs><path d="M 0.00 0.00 L 1400.00 0.00 L 1400.00 2000.00 L 0.00 2000.00 Z" fill="#f5d484" fill-rule="nonzero" node-id="52" stroke="none" target-height="2000" target-width="1400" target-x="0" target-y="0"></path><path d="M 50.00 50.00 L 1350.00 50.00 L 1350.00 1950.00 L 50.00 1950.00 Z" fill="#f1e9d4" fill-rule="nonzero" node-id="54" stroke="none" target-height="1900" target-width="1300" target-x="50" target-y="50"></path><path d="M 561.29 404.12 L 560.05 406.17 L 558.93 408.65 L 557.45 413.16 L 556.23 418.48 L 555.16 426.33 L 554.76 431.88 L 554.64 438.69 L 554.86 446.94 L 555.21 456.99 L 555.29 467.59 L 555.15 478.26 L 554.83 488.85 L 553.88 509.05 L 552.82 526.52 L 552.06 539.59 L 552.13 542.61 L 552.69 549.28 L 554.79 567.62 L 558.04 592.59 L 562.12 622.18 L 566.70 654.36 L 571.47 687.13 L 576.09 718.46 L 580.25 746.35 L 583.63 768.76 L 585.88 783.69 L 586.71 789.11 L 566.04 1174.33 L 701.04 1465.74 L 701.14 1456.94 L 701.34 1432.04 L 701.48 1393.31 L 701.40 1343.02 L 700.95 1283.42 L 699.95 1216.79 L 699.21 1181.77 L 698.26 1145.40 L 697.11 1108.71 L 695.72 1071.49 L 694.07 1034.26 L 692.16 997.35 L 689.94 960.70 L 687.43 925.23 L 684.54 890.30 L 681.36 857.40 L 678.97 835.70 L 676.45 815.29 L 673.81 796.13 L 672.37 787.69 L 669.81 775.22 L 666.72 761.55 L 662.67 744.64 L 652.94 706.50 L 641.23 662.89 L 628.09 615.92 L 614.11 567.68 L 599.86 520.28 L 585.92 475.82 L 579.13 454.99 L 572.87 436.40 L 566.69 418.76 L 561.29 404.12 Z" fill="#577a5e" fill-rule="nonzero" node-id="56" stroke-linecap="butt" stroke-width="1" target-height="1061.62" target-width="149.42358" target-x="552.06" target-y="404.12"></path><path d="M 1037.32 700.57 L 1038.56 702.62 L 1039.68 705.10 L 1041.16 709.60 L 1042.38 714.93 L 1043.45 722.77 L 1043.85 728.32 L 1043.97 735.13 L 1043.75 743.38 L 1043.49 750.95 L 1043.37 760.84 L 1043.56 783.33 L 1044.13 808.46 L 1044.91 833.83 L 1045.73 857.02 L 1046.40 875.66 L 1046.75 887.32 L 1046.90 910.30 L 1046.69 932.37 L 1046.14 953.57 L 1045.25 973.91 L 1043.58 1001.25 L 1041.54 1026.93 L 1039.15 1051.01 L 1036.35 1075.08 L 1033.43 1097.42 L 1030.40 1118.10 L 1025.54 1148.37 L 1020.95 1174.65 L 1012.75 1220.15 L 1009.62 1239.34 L 1007.75 1254.07 L 1007.12 1261.70 L 1006.75 1269.33 L 987.82 1949.98 L 895.96 1949.98 L 895.91 1940.74 L 895.80 1914.50 L 895.75 1873.52 L 895.83 1820.05 L 896.14 1756.33 L 896.78 1684.61 L 897.84 1607.14 L 899.41 1526.16 L 900.42 1485.07 L 901.58 1443.93 L 902.93 1402.91 L 904.46 1362.68 L 906.19 1322.87 L 908.12 1284.68 L 910.30 1247.19 L 912.66 1212.16 L 915.34 1178.13 L 918.19 1147.38 L 921.42 1117.92 L 924.78 1092.58 L 926.22 1084.14 L 928.78 1071.67 L 931.88 1057.99 L 935.94 1041.09 L 945.66 1002.94 L 957.39 959.33 L 970.53 912.36 L 984.52 864.12 L 998.76 816.72 L 1012.70 772.26 L 1019.49 751.44 L 1025.74 732.85 L 1031.92 715.21 L 1037.32 700.57 Z" fill="#577a5e" fill-rule="nonzero" node-id="58" stroke-linecap="butt" stroke-width="1" target-height="1249.4099" target-width="151.15143" target-x="895.74677" target-y="700.57"></path><path d="M 778.01 302.93 L 778.03 299.39 L 777.92 295.63 L 777.55 290.11 L 776.90 284.14 L 775.77 277.11 L 774.17 269.93 L 771.89 262.41 L 770.00 257.48 L 767.74 252.69 L 765.11 248.03 L 757.12 234.76 L 752.29 225.95 L 751.30 224.57 L 750.00 223.54 L 748.47 222.90 L 746.78 222.70 L 745.10 222.97 L 743.60 223.68 L 742.34 224.76 L 741.41 226.18 L 737.53 233.99 L 733.32 241.52 L 731.05 244.86 L 727.82 248.96 L 724.26 253.12 L 720.35 257.42 L 712.75 265.34 L 706.85 271.22 L 704.47 273.52 L 702.68 320.05 L 710.68 399.71 L 746.68 408.52 L 785.34 333.45 Z" fill="#f0a63b" fill-rule="nonzero" node-id="60" stroke-linecap="butt" stroke-width="1" target-height="185.82138" target-width="82.660034" target-x="702.68" target-y="222.69861"></path><path d="M 790.26 242.49 L 799.52 250.27 L 809.90 258.57 L 820.02 266.96 L 824.65 271.15 L 828.50 275.02 L 830.85 277.76 L 834.94 283.07 L 839.37 289.28 L 844.93 297.63 L 850.59 306.74 L 856.81 317.59 L 862.85 329.08 L 868.92 341.88 L 872.70 350.66 L 876.27 359.83 L 879.62 369.38 L 882.58 379.06 L 885.12 388.93 L 887.23 399.02 L 888.81 409.19 L 889.77 419.40 L 890.11 429.68 L 889.88 438.66 L 889.20 447.81 L 888.05 457.14 L 886.42 466.67 L 884.36 476.05 L 881.83 485.45 L 878.81 494.86 L 875.29 504.32 L 871.33 513.55 L 866.89 522.64 L 861.93 531.61 L 856.46 540.47 L 850.57 548.99 L 844.15 557.25 L 837.21 565.24 L 829.72 572.98 L 823.46 578.82 L 816.85 584.41 L 809.88 589.75 L 802.54 594.85 L 794.81 599.70 L 786.96 604.11 L 778.73 608.20 L 770.08 611.96 L 761.02 615.39 L 751.50 618.49 L 702.68 596.49 L 760.50 352.14 L 761.52 349.01 L 764.00 340.62 L 767.03 328.45 L 768.46 321.50 L 769.72 313.98 L 770.66 306.34 L 771.18 298.69 L 771.24 293.59 L 771.01 288.72 L 770.50 284.07 L 769.63 277.12 L 769.07 270.62 L 768.80 264.54 L 768.83 255.63 L 769.31 248.14 L 770.21 241.19 L 771.28 236.07 L 772.27 232.87 L 773.17 230.80 L 773.98 229.56 L 775.01 228.62 L 776.00 228.08 L 776.99 227.88 L 778.53 227.99 L 779.97 228.50 L 781.29 229.25 L 782.25 229.96 L 783.16 230.77 Z" fill="#f5d084" fill-rule="nonzero" node-id="62" stroke-linecap="butt" stroke-width="1" target-height="390.61404" target-width="187.43005" target-x="702.68" target-y="227.87595"></path><path d="M 743.57 271.49 L 749.29 277.78 L 754.50 284.42 L 759.22 291.43 L 763.42 298.77 L 767.07 306.38 L 770.18 314.29 L 771.47 317.79 L 773.06 321.62 L 774.87 325.54 L 777.16 330.03 L 779.76 334.68 L 783.02 340.13 L 786.02 345.34 L 789.10 351.39 L 792.25 358.37 L 796.56 369.18 L 800.75 381.28 L 804.55 393.76 L 808.00 406.74 L 810.99 419.84 L 813.45 432.68 L 815.37 445.36 L 816.60 456.98 L 817.05 464.66 L 817.14 471.49 L 816.90 477.55 L 816.21 484.70 L 814.92 493.86 L 813.21 503.52 L 810.86 514.50 L 808.04 525.73 L 804.59 537.58 L 800.61 549.41 L 796.02 561.18 L 792.60 568.90 L 788.94 576.30 L 785.02 583.40 L 780.73 590.28 L 776.22 596.58 L 771.48 602.34 L 767.62 606.42 L 763.64 610.06 L 759.53 613.27 L 755.29 616.09 L 750.81 618.51 L 746.17 620.42 L 741.36 621.83 L 736.34 622.74 L 727.97 623.51 L 719.68 623.77 L 711.46 623.52 L 703.29 622.78 L 695.19 621.52 L 687.16 619.71 L 679.17 617.34 L 671.23 614.41 L 663.55 610.98 L 655.91 606.94 L 648.31 602.26 L 640.73 596.90 L 634.36 591.96 L 628.66 587.16 L 623.35 582.06 L 618.36 576.40 L 615.32 572.37 L 612.27 567.76 L 609.23 562.50 L 606.48 557.11 L 603.63 550.76 L 600.68 543.36 L 596.59 531.64 L 592.11 516.84 L 587.79 500.77 L 582.93 480.83 L 581.71 475.19 L 580.48 468.50 L 579.38 461.53 L 578.38 454.05 L 577.54 446.47 L 576.90 438.91 L 576.47 431.43 L 576.32 424.51 L 576.47 417.84 L 576.93 412.26 L 577.28 410.99 L 577.72 410.63 L 578.31 410.66 L 579.09 411.06 L 580.68 412.20 L 581.49 412.62 L 582.14 412.68 L 582.65 412.32 L 583.11 411.11 L 585.13 401.99 L 587.42 393.19 L 589.97 384.71 L 594.27 372.28 L 598.77 360.96 L 603.57 350.17 L 608.15 340.87 L 612.80 332.22 L 616.78 325.44 L 620.63 319.44 L 623.32 315.67 L 625.73 312.41 L 632.10 303.87 L 641.11 291.93 L 651.45 278.45 L 661.80 265.31 L 670.87 254.37 L 674.75 250.05 L 677.32 247.52 L 679.15 245.52 L 680.89 242.92 L 683.98 237.28 L 685.52 234.55 L 686.99 232.38 L 688.12 231.15 L 689.22 230.40 L 690.32 230.03 L 692.90 229.98 L 695.91 230.47 L 698.95 231.36 L 702.02 232.58 L 704.97 234.03 L 707.55 235.53 L 709.85 237.14 L 711.37 238.48 Z" fill="#f5d084" fill-rule="nonzero" node-id="64" stroke-linecap="butt" stroke-width="1" target-height="393.7827" target-width="240.82068" target-x="576.3204" target-y="229.98279"></path><path d="M 769.30 312.49 L 773.13 317.62 L 777.06 323.71 L 781.10 330.87 L 784.79 338.18 L 788.45 346.15 L 792.07 354.81 L 797.06 368.03 L 801.70 381.90 L 805.86 395.93 L 809.45 409.73 L 812.51 423.39 L 814.83 435.90 L 816.05 444.18 L 816.85 451.52 L 817.30 457.99 L 817.46 465.41 L 817.30 474.85 L 816.82 484.84 L 815.92 496.18 L 814.63 507.83 L 812.85 520.15 L 810.60 532.53 L 807.80 544.91 L 805.62 553.10 L 803.17 560.99 L 800.48 568.61 L 797.44 576.09 L 794.14 583.01 L 790.59 589.41 L 787.61 594.06 L 784.49 598.27 L 781.23 602.06 L 777.84 605.46 L 774.12 608.57 L 770.24 611.16 L 766.18 613.27 L 761.92 614.92 L 766.61 613.39 L 771.13 611.47 L 775.52 609.16 L 779.77 606.45 L 783.91 603.30 L 788.70 599.03 L 793.29 594.24 L 797.69 588.90 L 801.90 582.99 L 805.70 576.89 L 809.27 570.40 L 812.63 563.49 L 815.75 556.14 L 819.40 546.19 L 822.58 535.79 L 825.31 524.92 L 827.51 513.93 L 829.22 502.80 L 830.42 491.52 L 831.11 480.19 L 831.27 469.06 L 830.92 458.09 L 830.01 446.89 L 828.68 436.15 L 826.93 425.84 L 824.78 415.95 L 822.17 406.03 L 819.29 396.58 L 816.13 387.58 L 812.71 379.00 L 807.61 367.70 L 802.29 357.27 L 796.75 347.66 L 790.75 338.30 L 784.80 329.88 L 778.92 322.33 Z" fill="#f0a63b" fill-rule="nonzero" node-id="66" stroke-linecap="butt" stroke-width="1" target-height="302.43" target-width="69.35205" target-x="761.92" target-y="312.49"></path><path d="M 582.31 412.61 L 583.62 418.24 L 587.64 433.61 L 590.59 443.83 L 594.52 456.45 L 598.97 469.67 L 604.39 484.48 L 610.43 499.55 L 617.42 515.42 L 622.45 525.95 L 627.89 536.48 L 633.73 547.01 L 639.93 557.32 L 646.51 567.30 L 653.47 576.96 L 659.00 583.99 L 664.72 590.67 L 670.65 597.00 L 676.78 603.00 L 683.24 608.70 L 689.89 613.89 L 696.75 618.61 L 703.82 622.86 L 700.63 619.25 L 692.12 609.37 L 679.89 594.67 L 665.53 576.58 L 658.08 566.75 L 650.63 556.53 L 643.44 546.16 L 636.79 535.97 L 630.66 525.76 L 625.60 516.32 L 621.94 508.75 L 617.88 499.92 L 609.63 480.96 L 601.47 461.30 L 594.03 442.78 L 587.94 427.25 L 583.82 416.58 L 582.31 412.61 Z" fill="#f0a63b" fill-rule="nonzero" node-id="68" stroke-linecap="butt" stroke-width="1" target-height="210.25" target-width="121.51001" target-x="582.31" target-y="412.61"></path><path d="M 708.39 620.30 L 710.09 622.50 L 711.68 625.14 L 713.87 629.82 L 715.16 633.26 L 716.47 637.71 L 717.77 643.34 L 718.71 649.00 L 719.42 655.88 L 719.82 664.15 L 720.01 678.19 L 720.30 703.60 L 720.65 738.20 L 721.05 779.82 L 721.48 826.28 L 721.94 875.42 L 722.38 925.05 L 722.81 973.01 L 723.20 1017.13 L 723.54 1055.22 L 723.80 1085.12 L 723.97 1104.66 L 724.03 1111.65 L 719.67 1422.18 L 739.62 1471.18 L 743.35 809.62 L 739.56 665.02 L 739.98 661.92 L 741.23 654.02 L 743.27 643.37 L 744.58 637.66 L 746.06 632.06 L 747.77 626.67 L 749.57 622.14 L 750.99 619.30 L 752.39 617.20 L 753.75 615.69 L 750.14 615.26 L 746.25 614.99 L 740.34 614.89 L 733.87 615.18 L 725.91 616.08 L 720.50 617.03 L 714.67 618.43 L 708.39 620.30 Z" fill="#577a5e" fill-rule="nonzero" node-id="70" stroke-linecap="butt" stroke-width="1" target-height="856.2862" target-width="45.360046" target-x="708.39" target-y="614.89374"></path><path d="M 313.94 1842.02 L 310.13 1838.29 L 300.05 1827.75 L 293.56 1820.51 L 285.78 1811.35 L 277.87 1801.48 L 269.36 1790.08 L 263.82 1782.17 L 258.32 1773.78 L 252.84 1764.89 L 247.68 1755.82 L 242.83 1746.44 L 238.30 1736.75 L 234.22 1726.86 L 230.72 1716.83 L 227.77 1706.63 L 225.99 1698.87 L 224.66 1691.10 L 223.77 1683.31 L 223.33 1675.49 L 222.94 1650.68 L 222.74 1627.33 L 222.44 1604.46 L 221.81 1583.01 L 221.05 1568.88 L 219.90 1555.35 L 218.37 1542.42 L 216.86 1532.74 L 215.00 1523.35 L 212.79 1514.26 L 210.24 1505.44 L 207.24 1496.75 L 203.75 1488.28 L 199.76 1480.02 L 195.26 1471.96 L 190.57 1464.49 L 186.20 1458.01 L 182.11 1452.43 L 175.76 1444.54 L 170.04 1438.16 L 164.30 1432.36 L 159.12 1427.53 L 149.41 1418.91 L 145.00 1414.82 L 140.99 1410.68 L 137.31 1406.26 L 133.92 1401.24 L 131.94 1397.69 L 130.05 1393.61 L 128.26 1388.96 L 125.76 1382.35 L 123.00 1376.03 L 120.00 1369.98 L 115.12 1361.26 L 110.27 1353.57 L 105.30 1346.41 L 100.97 1340.67 L 94.01 1332.22 L 91.26 1329.20 L 95.21 1330.44 L 99.76 1332.10 L 107.80 1335.41 L 117.02 1339.56 L 130.18 1346.00 L 135.77 1349.06 L 143.70 1353.89 L 152.18 1359.47 L 162.33 1366.57 L 172.78 1374.34 L 184.28 1383.37 L 195.81 1392.98 L 207.75 1403.58 L 219.47 1414.72 L 230.97 1426.53 L 238.38 1434.69 L 245.43 1443.02 L 252.14 1451.51 L 258.50 1460.26 L 264.27 1469.04 L 269.47 1477.86 L 273.06 1484.68 L 276.20 1491.45 L 278.90 1498.18 L 281.18 1504.87 L 284.73 1517.60 L 288.51 1533.58 L 292.01 1550.56 L 295.56 1569.94 L 298.85 1590.01 L 302.06 1611.61 L 305.00 1633.59 L 307.72 1656.25 L 310.16 1678.99 L 312.29 1701.51 L 314.08 1723.84 L 315.46 1745.06 L 316.46 1765.80 L 316.98 1784.56 L 317.03 1802.53 L 316.57 1817.66 L 315.90 1827.46 L 315.01 1835.51 L 313.94 1842.02 Z" fill="#899f57" fill-rule="nonzero" node-id="72" stroke-linecap="butt" stroke-width="1" target-height="512.82007" target-width="225.76923" target-x="91.26001" target-y="1329.2"></path><path d="M 1070.92 1949.98 L 1067.68 1944.54 L 1058.99 1929.48 L 1046.39 1906.65 L 1039.25 1893.19 L 1031.42 1877.93 L 1023.60 1862.10 L 1015.60 1845.17 L 1007.87 1827.90 L 1000.48 1810.26 L 995.82 1798.36 L 991.53 1786.63 L 987.60 1775.05 L 983.99 1763.35 L 980.97 1752.14 L 978.48 1741.40 L 976.92 1733.18 L 975.78 1725.43 L 975.04 1718.11 L 974.68 1711.20 L 974.29 1686.38 L 974.09 1663.02 L 973.80 1640.14 L 973.16 1618.70 L 972.40 1604.57 L 971.25 1591.05 L 969.72 1578.12 L 968.21 1568.44 L 966.35 1559.06 L 964.14 1549.96 L 961.59 1541.15 L 958.59 1532.46 L 955.09 1523.99 L 951.10 1515.73 L 946.60 1507.67 L 941.91 1500.20 L 937.53 1493.72 L 933.44 1488.14 L 927.09 1480.24 L 921.37 1473.87 L 915.63 1468.07 L 910.45 1463.24 L 900.75 1454.62 L 896.34 1450.54 L 892.33 1446.41 L 888.65 1441.99 L 885.25 1436.99 L 883.28 1433.44 L 881.39 1429.37 L 879.60 1424.73 L 877.10 1418.14 L 874.34 1411.82 L 871.34 1405.78 L 866.46 1397.06 L 861.61 1389.36 L 856.64 1382.20 L 852.31 1376.45 L 845.35 1367.99 L 842.60 1364.96 L 846.55 1366.20 L 851.10 1367.86 L 859.15 1371.17 L 868.36 1375.32 L 881.52 1381.76 L 887.11 1384.82 L 895.04 1389.65 L 903.52 1395.23 L 913.67 1402.33 L 924.12 1410.10 L 935.61 1419.13 L 947.15 1428.74 L 959.09 1439.34 L 970.81 1450.48 L 982.31 1462.29 L 989.72 1470.45 L 996.78 1478.78 L 1003.49 1487.28 L 1009.85 1496.03 L 1015.62 1504.81 L 1020.82 1513.62 L 1024.40 1520.45 L 1027.54 1527.22 L 1030.24 1533.95 L 1032.52 1540.64 L 1035.58 1551.60 L 1039.15 1566.44 L 1042.61 1582.52 L 1046.36 1601.66 L 1050.01 1621.73 L 1053.79 1644.02 L 1057.43 1666.94 L 1061.06 1691.25 L 1064.51 1715.90 L 1067.81 1741.10 L 1070.88 1766.34 L 1073.67 1791.27 L 1076.18 1815.98 L 1078.28 1839.52 L 1080.03 1862.55 L 1081.27 1883.57 L 1082.06 1903.79 L 1082.27 1921.14 L 1082.09 1932.43 L 1081.62 1941.98 L 1080.92 1949.98 Z" fill="#899f57" fill-rule="nonzero" node-id="74" stroke-linecap="butt" stroke-width="1" target-height="585.02" target-width="239.67242" target-x="842.60004" target-y="1364.96"></path><path d="M 311.46 1457.95 L 312.78 1460.98 L 316.11 1469.31 L 320.55 1481.80 L 322.85 1489.12 L 325.18 1497.33 L 327.26 1505.81 L 329.07 1514.76 L 330.46 1523.83 L 331.32 1532.95 L 331.79 1547.80 L 332.10 1572.71 L 332.26 1605.51 L 332.32 1644.04 L 332.27 1686.15 L 332.16 1729.66 L 332.00 1772.41 L 331.82 1812.24 L 331.63 1846.98 L 331.48 1874.48 L 331.36 1892.56 L 331.32 1899.07 L 349.32 1899.07 L 349.21 1892.17 L 348.93 1873.07 L 348.55 1844.11 L 348.12 1807.68 L 347.71 1766.13 L 347.39 1721.83 L 347.22 1677.14 L 347.26 1634.44 L 347.58 1596.09 L 348.25 1564.45 L 348.76 1551.26 L 349.32 1541.89 L 351.01 1523.60 L 352.89 1508.90 L 355.13 1495.39 L 357.27 1485.06 L 359.60 1475.80 L 361.54 1469.32 L 363.50 1463.78 L 364.78 1460.64 L 366.07 1457.98 L 354.70 1441.20 Z" fill="#577a5e" fill-rule="nonzero" node-id="76" stroke-linecap="butt" stroke-width="1" target-height="457.87" target-width="54.609985" target-x="311.46002" target-y="1441.2"></path><path d="M 256.82 1153.32 L 258.63 1153.58 L 263.14 1154.32 L 268.91 1155.51 L 271.87 1156.27 L 274.53 1157.11 L 276.96 1158.10 L 278.60 1159.08 L 278.28 1157.42 L 278.07 1155.55 L 277.96 1152.45 L 278.08 1148.94 L 278.60 1144.19 L 279.59 1139.27 L 280.98 1134.76 L 282.74 1130.60 L 284.52 1127.54 L 285.94 1125.79 L 287.14 1124.84 L 288.18 1124.47 L 289.02 1124.59 L 290.07 1125.04 L 291.40 1125.98 L 293.27 1127.64 L 295.20 1129.65 L 298.37 1133.38 L 299.69 1135.09 L 306.38 1152.46 L 306.99 1151.01 L 308.75 1147.82 L 310.03 1146.10 L 311.57 1144.58 L 312.75 1143.78 L 314.01 1143.26 L 315.38 1143.02 L 317.46 1143.29 L 319.43 1144.15 L 321.23 1145.40 L 322.79 1146.84 L 325.08 1149.56 L 325.93 1150.81 L 326.71 1149.84 L 328.65 1147.73 L 329.89 1146.62 L 331.17 1145.69 L 332.50 1145.07 L 333.65 1144.95 L 334.66 1145.37 L 336.43 1146.65 L 340.44 1150.34 L 344.61 1154.66 L 347.88 1158.26 L 349.21 1159.76 L 349.21 1175.35 L 342.13 1199.06 L 324.00 1211.75 L 295.82 1207.13 Z" fill="#f0a63b" fill-rule="nonzero" node-id="78" stroke-linecap="butt" stroke-width="1" target-height="87.28003" target-width="92.390015" target-x="256.82" target-y="1124.47"></path><path d="M 321.29 1218.60 L 320.97 1216.21 L 320.79 1213.65 L 320.79 1209.78 L 321.12 1205.55 L 321.96 1200.36 L 322.81 1196.86 L 324.03 1193.10 L 325.66 1189.06 L 327.59 1185.16 L 330.04 1181.13 L 333.08 1176.93 L 341.38 1166.84 L 348.09 1159.32 L 353.45 1153.90 L 358.06 1149.87 L 361.47 1147.49 L 363.95 1146.30 L 365.75 1145.93 L 366.82 1146.10 L 368.28 1146.71 L 370.28 1147.95 L 373.16 1150.18 L 376.60 1153.28 L 380.00 1156.71 L 383.45 1160.50 L 386.74 1164.42 L 389.61 1168.16 L 392.13 1171.87 L 393.81 1174.84 L 395.08 1177.73 L 397.12 1182.99 L 402.02 1196.42 L 407.98 1212.86 L 414.46 1230.02 L 417.80 1238.32 L 420.94 1245.64 L 424.16 1252.44 L 426.90 1257.45 L 429.00 1261.24 L 431.30 1266.03 L 433.80 1271.98 L 437.19 1281.24 L 440.58 1292.17 L 443.55 1303.60 L 446.16 1315.88 L 447.58 1324.21 L 448.69 1332.55 L 449.49 1340.93 L 449.93 1349.33 L 449.93 1357.40 L 449.51 1365.16 L 448.66 1372.36 L 447.40 1379.43 L 445.73 1386.37 L 443.65 1393.20 L 441.16 1399.91 L 438.30 1406.42 L 435.06 1412.74 L 431.43 1418.90 L 427.45 1424.83 L 423.12 1430.51 L 418.44 1435.95 L 413.39 1441.16 L 409.44 1444.62 L 404.52 1448.54 L 393.90 1456.48 L 383.69 1464.35 L 379.25 1468.20 L 376.05 1471.48 L 374.29 1473.81 L 373.40 1475.68 L 373.13 1477.23 L 372.91 1478.43 L 372.27 1479.36 L 371.13 1480.08 L 368.97 1480.72 L 365.94 1480.99 L 362.69 1480.92 L 359.13 1480.59 L 352.29 1479.52 L 347.03 1478.41 L 344.92 1477.90 L 305.57 1365.13 Z" fill="#f5d084" fill-rule="nonzero" node-id="80" stroke-linecap="butt" stroke-width="1" target-height="335.0603" target-width="144.35669" target-x="305.57" target-y="1145.9299"></path><path d="M 261.73 1153.90 L 264.47 1155.00 L 271.64 1158.29 L 276.23 1160.67 L 281.67 1163.77 L 287.18 1167.27 L 292.99 1171.45 L 298.61 1176.08 L 304.03 1181.32 L 307.39 1185.09 L 310.45 1189.11 L 313.23 1193.38 L 317.87 1201.75 L 323.00 1212.21 L 326.23 1219.50 L 329.43 1227.45 L 332.59 1236.11 L 335.44 1244.85 L 338.03 1254.00 L 340.34 1263.59 L 342.23 1273.26 L 343.64 1283.11 L 344.58 1293.16 L 344.90 1300.72 L 344.85 1308.26 L 344.43 1315.80 L 343.63 1323.33 L 342.06 1336.01 L 340.78 1348.88 L 339.75 1361.71 L 338.96 1374.00 L 337.95 1396.77 L 337.84 1406.36 L 338.17 1415.91 L 338.95 1425.44 L 340.18 1434.93 L 341.84 1444.34 L 343.95 1453.69 L 345.81 1461.93 L 346.48 1465.90 L 346.88 1469.36 L 346.97 1472.62 L 346.72 1475.02 L 346.27 1476.45 L 345.66 1477.38 L 344.89 1477.95 L 342.32 1478.84 L 338.43 1479.74 L 334.19 1480.42 L 329.29 1480.95 L 324.29 1481.24 L 319.33 1481.26 L 314.50 1480.98 L 310.39 1480.37 L 307.78 1479.69 L 305.80 1478.88 L 304.34 1477.95 L 299.01 1473.68 L 290.32 1467.10 L 279.29 1459.33 L 273.22 1455.36 L 266.88 1451.47 L 260.43 1447.83 L 254.10 1444.64 L 247.76 1441.91 L 241.94 1439.95 L 237.40 1438.42 L 232.80 1436.29 L 228.12 1433.51 L 223.74 1430.28 L 219.43 1426.33 L 215.17 1421.59 L 212.32 1417.83 L 209.57 1413.60 L 206.93 1408.87 L 204.42 1403.58 L 202.30 1398.29 L 200.37 1392.44 L 198.65 1385.99 L 197.15 1378.87 L 196.07 1371.91 L 195.28 1364.28 L 194.81 1355.95 L 194.69 1346.86 L 195.39 1309.52 L 196.48 1277.86 L 197.06 1268.45 L 198.07 1259.14 L 199.51 1249.93 L 201.37 1240.79 L 203.67 1231.72 L 206.38 1222.77 L 209.49 1213.98 L 213.01 1205.35 L 216.95 1196.85 L 221.30 1188.49 L 226.06 1180.31 L 230.94 1172.80 L 234.43 1168.01 L 237.86 1163.86 L 241.21 1160.31 L 244.87 1157.09 L 248.34 1154.79 L 251.63 1153.26 L 254.24 1152.59 L 256.75 1152.48 L 259.23 1152.91 L 261.73 1153.90 Z" fill="#f5d084" fill-rule="nonzero" node-id="82" stroke-linecap="butt" stroke-width="1" target-height="328.78442" target-width="152.28247" target-x="194.69" target-y="1152.4803"></path><path d="M 344.17 1454.49 L 344.32 1450.14 L 344.80 1438.29 L 345.63 1420.72 L 346.87 1399.20 L 348.54 1375.52 L 350.69 1351.45 L 351.97 1339.68 L 353.35 1328.77 L 354.15 1321.24 L 354.58 1313.72 L 354.63 1306.18 L 354.30 1298.62 L 353.37 1288.58 L 351.96 1278.72 L 350.07 1269.05 L 347.75 1259.46 L 345.17 1250.30 L 342.32 1241.55 L 339.15 1232.89 L 335.95 1224.93 L 332.72 1217.63 L 327.59 1207.16 L 322.95 1198.77 L 319.93 1194.17 L 316.59 1189.87 L 312.92 1185.86 L 308.99 1182.08 L 304.98 1178.63 L 300.90 1175.49 L 294.63 1171.19 L 288.84 1167.68 L 293.21 1170.92 L 297.53 1174.51 L 301.79 1178.48 L 305.76 1182.72 L 309.36 1187.28 L 312.60 1192.19 L 317.24 1200.57 L 322.38 1211.02 L 325.61 1218.32 L 328.81 1226.28 L 331.97 1234.94 L 334.82 1243.68 L 337.41 1252.84 L 339.72 1262.44 L 341.61 1272.11 L 343.02 1281.97 L 343.96 1292.02 L 344.28 1299.58 L 344.23 1307.12 L 343.81 1314.66 L 343.01 1322.19 L 341.45 1334.78 L 340.15 1347.48 L 339.10 1360.12 L 338.27 1372.20 L 337.16 1394.57 L 336.61 1412.77 L 336.43 1425.01 L 336.42 1429.49 Z" fill="#f0a63b" fill-rule="nonzero" node-id="84" stroke-linecap="butt" stroke-width="1" target-height="286.81006" target-width="65.786865" target-x="288.84003" target-y="1167.6799"></path><path d="M 1129.53 1279.12 L 1127.82 1281.98 L 1123.66 1289.69 L 1121.19 1294.79 L 1118.51 1300.94 L 1116.05 1307.42 L 1113.85 1314.44 L 1112.65 1319.23 L 1111.74 1324.04 L 1111.14 1328.88 L 1110.89 1333.26 L 1110.63 1341.55 L 1110.34 1363.42 L 1110.22 1392.01 L 1110.24 1424.84 L 1110.36 1459.43 L 1110.54 1493.29 L 1110.75 1523.95 L 1110.94 1548.92 L 1111.08 1565.73 L 1111.14 1571.88 L 1094.51 1571.88 L 1094.63 1566.37 L 1094.93 1551.25 L 1095.34 1528.60 L 1095.78 1500.51 L 1096.16 1469.07 L 1096.41 1436.38 L 1096.45 1404.52 L 1096.20 1375.58 L 1095.58 1351.65 L 1095.08 1341.72 L 1094.51 1334.82 L 1093.19 1324.36 L 1091.75 1315.63 L 1090.23 1308.43 L 1088.39 1301.27 L 1086.68 1295.62 L 1085.10 1291.25 L 1082.55 1285.28 L 1080.80 1281.93 L 1079.00 1279.12 L 1089.53 1267.99 Z" fill="#577a5e" fill-rule="nonzero" node-id="86" stroke-linecap="butt" stroke-width="1" target-height="303.89" target-width="50.53003" target-x="1079" target-y="1267.99"></path><path d="M 1181.19 976.69 L 1179.22 976.69 L 1174.48 976.35 L 1171.63 975.89 L 1168.70 975.16 L 1165.93 974.07 L 1163.63 972.62 L 1162.39 971.39 L 1161.53 969.95 L 1161.02 968.24 L 1160.10 963.70 L 1158.82 959.52 L 1157.19 955.67 L 1155.54 952.83 L 1154.22 951.20 L 1153.11 950.33 L 1152.15 949.99 L 1150.92 950.27 L 1149.16 951.40 L 1147.43 952.93 L 1145.65 954.79 L 1142.72 958.24 L 1141.49 959.82 L 1135.30 975.90 L 1134.68 974.83 L 1132.95 972.31 L 1131.74 970.86 L 1130.30 969.40 L 1128.69 968.13 L 1126.94 967.16 L 1124.13 965.73 L 1121.84 964.22 L 1118.35 961.39 L 1117.07 960.36 L 1116.48 960.08 L 1115.93 960.16 L 1115.07 960.69 L 1114.19 961.58 L 1112.93 963.33 L 1111.67 965.51 L 1110.02 968.94 L 1108.33 971.95 L 1106.20 974.63 L 1103.78 977.02 L 1101.42 978.95 L 1097.35 981.70 L 1095.62 982.66 L 1095.62 997.09 L 1102.17 1019.09 L 1118.96 1030.83 L 1144.96 1026.56 Z" fill="#f0a63b" fill-rule="nonzero" node-id="88" stroke-linecap="butt" stroke-width="1" target-height="80.839966" target-width="85.569824" target-x="1095.6201" target-y="949.99"></path><path d="M 1121.45 1037.14 L 1121.75 1034.93 L 1121.91 1032.56 L 1121.90 1028.97 L 1121.60 1025.05 L 1120.82 1020.25 L 1119.51 1015.30 L 1117.39 1009.78 L 1115.61 1006.17 L 1113.34 1002.44 L 1110.53 998.55 L 1102.86 989.21 L 1096.64 982.24 L 1091.68 977.23 L 1087.40 973.50 L 1084.25 971.31 L 1081.95 970.21 L 1080.28 969.87 L 1079.29 970.03 L 1077.93 970.60 L 1076.08 971.75 L 1073.41 973.82 L 1070.23 976.69 L 1067.08 979.87 L 1063.88 983.38 L 1060.84 987.01 L 1058.18 990.47 L 1055.84 993.90 L 1054.28 996.64 L 1053.10 999.31 L 1051.21 1004.18 L 1046.67 1016.61 L 1041.15 1031.83 L 1035.15 1047.72 L 1032.06 1055.41 L 1029.15 1062.19 L 1026.18 1068.49 L 1023.64 1073.13 L 1020.65 1078.74 L 1017.25 1086.58 L 1014.12 1095.16 L 1010.98 1105.28 L 1008.22 1115.86 L 1005.81 1127.23 L 1004.49 1134.94 L 1003.46 1142.67 L 1002.72 1150.42 L 1002.32 1158.20 L 1002.32 1165.67 L 1002.70 1172.86 L 1003.49 1179.53 L 1004.65 1186.08 L 1006.20 1192.51 L 1008.13 1198.84 L 1010.43 1205.05 L 1013.08 1211.08 L 1016.08 1216.94 L 1019.44 1222.64 L 1023.13 1228.13 L 1027.14 1233.40 L 1031.47 1238.44 L 1036.15 1243.26 L 1039.81 1246.47 L 1044.37 1250.10 L 1054.20 1257.47 L 1063.65 1264.76 L 1067.76 1268.33 L 1070.73 1271.36 L 1072.36 1273.51 L 1073.18 1275.24 L 1073.43 1276.66 L 1073.63 1277.76 L 1074.22 1278.61 L 1075.28 1279.28 L 1077.28 1279.86 L 1080.09 1280.11 L 1083.10 1280.04 L 1086.40 1279.74 L 1092.72 1278.76 L 1097.60 1277.75 L 1099.55 1277.28 L 1135.98 1172.86 Z" fill="#f5d084" fill-rule="nonzero" node-id="90" stroke-linecap="butt" stroke-width="1" target-height="310.2395" target-width="133.66486" target-x="1002.3151" target-y="969.87"></path><path d="M 1176.60 977.23 L 1174.07 978.24 L 1167.43 981.29 L 1163.18 983.49 L 1158.14 986.37 L 1153.05 989.61 L 1147.66 993.47 L 1142.46 997.76 L 1137.44 1002.61 L 1134.33 1006.10 L 1131.49 1009.82 L 1128.92 1013.78 L 1124.62 1021.53 L 1119.87 1031.22 L 1116.88 1037.97 L 1113.92 1045.34 L 1110.99 1053.36 L 1108.35 1061.46 L 1105.96 1069.93 L 1103.81 1078.81 L 1102.06 1087.77 L 1100.76 1096.89 L 1099.89 1106.19 L 1099.57 1115.52 L 1099.86 1124.82 L 1100.77 1134.11 L 1102.22 1145.85 L 1103.40 1157.76 L 1104.35 1169.64 L 1105.08 1181.02 L 1106.02 1202.11 L 1106.12 1210.99 L 1105.81 1219.83 L 1105.09 1228.66 L 1103.95 1237.44 L 1102.40 1246.15 L 1100.44 1254.81 L 1099.22 1260.00 L 1098.29 1264.86 L 1097.71 1269.53 L 1097.68 1273.06 L 1098.03 1275.22 L 1098.69 1276.54 L 1099.57 1277.28 L 1101.95 1278.09 L 1105.55 1278.92 L 1109.48 1279.55 L 1114.01 1280.04 L 1118.64 1280.31 L 1123.23 1280.33 L 1127.71 1280.07 L 1131.51 1279.51 L 1133.93 1278.89 L 1135.76 1278.14 L 1137.11 1277.28 L 1143.44 1272.25 L 1153.96 1264.44 L 1160.22 1260.10 L 1167.11 1255.62 L 1174.20 1251.38 L 1181.28 1247.59 L 1186.11 1245.33 L 1190.64 1243.52 L 1194.89 1242.13 L 1199.09 1240.72 L 1203.35 1238.75 L 1207.69 1236.19 L 1211.74 1233.19 L 1215.73 1229.53 L 1219.67 1225.15 L 1223.17 1220.41 L 1226.50 1214.88 L 1229.63 1208.47 L 1231.59 1203.57 L 1233.38 1198.15 L 1234.97 1192.17 L 1236.36 1185.58 L 1237.36 1179.13 L 1238.10 1172.07 L 1238.53 1164.36 L 1238.64 1155.94 L 1237.97 1121.36 L 1236.99 1092.03 L 1236.25 1081.16 L 1234.89 1070.42 L 1232.92 1059.81 L 1230.33 1049.31 L 1227.13 1038.98 L 1223.35 1028.87 L 1218.97 1018.98 L 1213.99 1009.28 L 1209.60 1001.70 L 1205.09 994.74 L 1201.85 990.30 L 1198.69 986.46 L 1195.59 983.17 L 1192.20 980.19 L 1189.00 978.05 L 1185.94 976.64 L 1183.53 976.02 L 1181.21 975.91 L 1178.91 976.31 L 1176.60 977.23 Z" fill="#f5d084" fill-rule="nonzero" node-id="92" stroke-linecap="butt" stroke-width="1" target-height="304.42017" target-width="140.96436" target-x="1097.6755" target-y="975.91406"></path><path d="M 1093.82 1278.21 L 1093.72 1273.08 L 1093.39 1259.36 L 1092.80 1239.51 L 1091.93 1216.01 L 1090.74 1191.35 L 1089.20 1168.00 L 1088.70 1159.21 L 1088.54 1150.40 L 1088.72 1141.57 L 1089.52 1128.41 L 1090.86 1115.65 L 1092.67 1103.15 L 1094.76 1091.55 L 1097.17 1080.37 L 1099.60 1070.59 L 1102.20 1061.40 L 1104.53 1054.08 L 1106.51 1049.01 L 1108.85 1044.14 L 1111.56 1039.46 L 1114.62 1035.00 L 1118.01 1030.79 L 1121.73 1026.82 L 1118.00 1031.80 L 1114.77 1037.03 L 1112.02 1042.53 L 1109.73 1048.32 L 1107.39 1055.64 L 1104.80 1064.83 L 1102.37 1074.61 L 1099.96 1085.79 L 1097.86 1097.38 L 1096.05 1109.88 L 1094.71 1122.64 L 1093.91 1135.80 L 1093.73 1144.63 L 1093.89 1153.44 L 1094.39 1162.23 L 1095.83 1184.39 L 1096.78 1206.07 L 1097.34 1225.69 L 1097.61 1241.66 L 1097.70 1252.41 L 1097.71 1256.34 Z" fill="#f0a63b" fill-rule="nonzero" node-id="94" stroke-linecap="butt" stroke-width="1" target-height="251.39001" target-width="33.18506" target-x="1088.5449" target-y="1026.82"></path><path d="M 266.70 1949.98 L 266.21 1944.95 L 265.12 1931.10 L 264.04 1910.26 L 263.69 1898.06 L 263.55 1884.29 L 263.71 1870.10 L 264.25 1855.00 L 265.22 1839.74 L 266.73 1824.26 L 268.06 1813.95 L 269.67 1803.83 L 271.58 1793.90 L 273.86 1784.05 L 276.47 1774.68 L 279.41 1765.76 L 281.94 1759.14 L 284.69 1752.94 L 287.64 1747.12 L 290.79 1741.68 L 297.70 1731.09 L 305.00 1720.73 L 312.69 1710.60 L 320.66 1700.70 L 328.80 1691.06 L 337.10 1681.68 L 349.77 1667.94 L 362.26 1654.90 L 386.39 1630.26 L 397.69 1618.56 L 407.72 1607.76 L 414.12 1600.51 L 419.68 1593.73 L 424.48 1587.41 L 436.31 1570.72 L 452.42 1547.74 L 471.51 1520.58 L 492.28 1491.33 L 513.42 1462.07 L 533.64 1434.91 L 543.21 1422.48 L 551.62 1411.92 L 559.70 1402.27 L 566.06 1395.21 L 570.37 1390.92 L 573.48 1388.30 L 575.67 1386.87 L 578.71 1385.61 L 580.63 1385.28 L 581.83 1385.52 L 582.75 1386.26 L 583.32 1387.48 L 583.48 1389.41 L 583.08 1392.58 L 582.02 1396.80 L 580.59 1401.18 L 578.86 1405.92 L 575.42 1415.03 L 573.97 1419.21 L 573.10 1422.35 L 572.54 1425.62 L 571.71 1432.13 L 569.68 1449.65 L 566.72 1473.07 L 564.83 1486.20 L 562.53 1500.52 L 559.89 1515.09 L 556.80 1530.16 L 553.26 1545.23 L 549.22 1560.13 L 546.21 1569.97 L 542.97 1579.45 L 539.50 1588.58 L 535.67 1597.55 L 531.61 1605.90 L 527.33 1613.64 L 512.96 1637.26 L 494.74 1666.44 L 473.99 1699.38 L 452.02 1734.25 L 430.18 1769.22 L 409.78 1802.49 L 400.36 1818.21 L 392.15 1832.23 L 384.55 1845.62 L 378.61 1856.62 L 373.53 1866.80 L 370.49 1873.84 L 366.08 1886.26 L 362.10 1898.78 L 358.55 1911.40 L 355.44 1924.14 L 352.75 1937.00 L 350.49 1949.98 L 266.70 1949.98" fill="#899f57" fill-rule="nonzero" node-id="96" stroke-linecap="butt" stroke-width="1" target-height="564.7031" target-width="319.9295" target-x="263.54742" target-y="1385.2769"></path><path d="M 550.57 1460.12 L 550.95 1465.73 L 552.17 1480.99 L 554.33 1503.56 L 557.52 1531.12 L 559.52 1545.94 L 561.85 1561.33 L 564.48 1576.73 L 567.41 1591.85 L 570.74 1606.67 L 574.32 1620.35 L 577.03 1629.28 L 579.82 1637.30 L 582.68 1644.48 L 585.14 1649.87 L 587.62 1654.53 L 590.10 1658.52 L 592.57 1661.92 L 598.27 1668.85 L 605.42 1677.26 L 621.71 1695.77 L 640.10 1716.12 L 659.28 1736.98 L 677.94 1757.02 L 694.74 1774.92 L 708.38 1789.35 L 717.53 1798.98 L 720.87 1802.49 L 700.94 1558.39 Z" fill="#577a5e" fill-rule="nonzero" node-id="98" stroke-linecap="butt" stroke-width="1" target-height="342.37" target-width="170.29999" target-x="550.57" target-y="1460.12"></path><path d="M 393.41 775.49 L 388.95 777.24 L 376.84 782.45 L 368.85 786.17 L 359.04 791.04 L 348.84 796.46 L 337.48 802.96 L 326.03 810.05 L 314.09 818.13 L 306.26 823.86 L 298.50 829.98 L 290.82 836.49 L 271.57 853.40 L 257.81 865.20 L 247.81 873.33 L 239.85 879.20 L 232.21 884.23 L 223.16 889.85 L 219.15 892.64 L 216.86 894.76 L 215.76 896.36 L 215.36 897.66 L 215.46 898.69 L 216.01 899.58 L 217.14 900.38 L 218.97 901.05 L 221.67 901.50 L 225.48 901.63 L 229.26 901.41 L 233.73 900.83 L 238.99 899.83 L 244.15 898.56 L 249.76 896.86 L 255.84 894.70 L 270.47 889.32 L 282.73 885.32 L 290.78 883.10 L 297.60 881.62 L 303.33 880.77 L 307.81 880.47 L 311.52 880.62 L 314.59 881.13 L 317.12 881.94 L 326.55 885.97 L 332.32 888.14 L 339.11 890.24 L 343.80 891.37 L 348.82 892.22 L 354.21 892.78 L 359.61 892.92 L 365.28 892.55 L 371.25 891.64 L 384.88 889.16 L 403.87 885.93 L 425.85 882.02 L 437.27 879.82 L 448.50 877.49 L 459.51 874.97 L 469.47 872.40 L 478.89 869.58 L 486.42 866.84 L 491.15 864.70 L 494.59 862.70 L 497.00 860.85 L 497.94 859.57 L 498.36 858.10 L 498.26 856.33 L 497.51 854.13 L 496.00 851.41 L 493.62 848.15 L 490.15 844.27 L 484.39 838.69 L 477.01 832.32 L 469.04 825.99 L 460.16 819.33 L 451.00 812.78 L 441.69 806.35 L 423.70 794.42 L 408.26 784.60 L 397.47 777.94 L 393.41 775.49 Z" fill="#577a5e" fill-rule="nonzero" node-id="100" stroke-linecap="butt" stroke-width="1" target-height="126.14136" target-width="283" target-x="215.35822" target-y="775.49"></path><path d="M 465.01 1111.07 L 453.43 1105.47 L 441.68 1100.31 L 429.77 1095.60 L 417.67 1091.33 L 405.39 1087.49 L 398.90 1085.37 L 393.53 1083.20 L 389.14 1081.01 L 384.91 1078.45 L 381.49 1076.02 L 378.78 1073.69 L 375.17 1069.96 L 372.71 1066.80 L 369.34 1061.57 L 368.04 1059.86 L 367.06 1059.26 L 366.43 1059.34 L 365.94 1059.82 L 365.56 1060.88 L 365.37 1062.81 L 365.55 1065.70 L 366.08 1068.80 L 367.02 1072.39 L 368.28 1075.99 L 369.91 1079.59 L 371.91 1082.99 L 374.22 1085.96 L 380.43 1092.21 L 390.60 1101.85 L 403.24 1113.58 L 416.88 1126.09 L 430.05 1138.08 L 441.29 1148.26 L 449.11 1155.32 L 452.04 1157.96 Z" fill="#577a5e" fill-rule="nonzero" node-id="102" stroke-linecap="butt" stroke-width="1" target-height="98.69995" target-width="99.63922" target-x="365.3708" target-y="1059.26"></path><path d="M 312.41 547.58 L 312.23 544.04 L 312.18 540.29 L 312.30 534.76 L 312.68 528.76 L 313.49 521.69 L 314.77 514.45 L 316.71 506.84 L 318.38 501.82 L 320.42 496.93 L 322.84 492.16 L 330.22 478.55 L 334.66 469.53 L 335.59 468.11 L 336.84 467.02 L 338.34 466.31 L 340.02 466.03 L 341.71 466.23 L 343.24 466.87 L 344.54 467.89 L 345.54 469.27 L 349.77 476.90 L 354.31 484.27 L 356.73 487.51 L 360.14 491.46 L 363.89 495.45 L 367.98 499.57 L 375.93 507.14 L 382.09 512.74 L 384.56 514.93 L 388.42 561.34 L 383.95 641.28 L 348.35 651.69 L 306.35 578.42 Z" fill="#f0a63b" fill-rule="nonzero" node-id="104" stroke-linecap="butt" stroke-width="1" target-height="185.65686" target-width="82.06995" target-x="306.35004" target-y="466.03314"></path><path d="M 291.57 527.84 L 285.77 538.48 L 279.15 549.99 L 272.81 561.50 L 270.04 567.09 L 267.87 572.10 L 266.68 575.51 L 264.82 581.95 L 262.96 589.34 L 260.84 599.15 L 258.91 609.70 L 257.09 622.08 L 255.67 634.98 L 254.69 649.11 L 254.39 658.67 L 254.42 668.50 L 254.80 678.62 L 255.58 688.71 L 256.82 698.83 L 258.55 708.99 L 260.80 719.03 L 263.64 728.89 L 267.08 738.58 L 270.58 746.86 L 274.56 755.12 L 279.04 763.39 L 284.04 771.66 L 289.38 779.64 L 295.18 787.46 L 301.43 795.12 L 308.17 802.63 L 315.22 809.77 L 322.68 816.61 L 330.57 823.15 L 338.90 829.38 L 347.50 835.16 L 356.48 840.49 L 365.87 845.39 L 375.67 849.85 L 383.62 853.00 L 391.82 855.78 L 400.25 858.20 L 408.95 860.26 L 417.92 861.95 L 426.83 863.18 L 435.99 863.97 L 445.40 864.31 L 455.09 864.18 L 465.08 863.58 L 502.47 825.25 L 359.35 619.00 L 357.25 616.47 L 351.88 609.56 L 344.61 599.35 L 340.74 593.40 L 336.81 586.87 L 333.14 580.10 L 329.85 573.17 L 327.93 568.44 L 326.35 563.82 L 325.12 559.31 L 323.38 552.51 L 321.52 546.26 L 319.55 540.51 L 316.26 532.23 L 313.08 525.43 L 309.70 519.29 L 306.84 514.93 L 304.75 512.31 L 303.16 510.72 L 301.95 509.86 L 300.65 509.36 L 299.52 509.22 L 298.53 509.39 L 297.14 510.06 L 295.98 511.06 L 295.03 512.23 L 294.40 513.24 L 293.85 514.33 Z" fill="#f5d084" fill-rule="nonzero" node-id="106" stroke-linecap="butt" stroke-width="1" target-height="355.0818" target-width="248.08337" target-x="254.38666" target-y="509.22357"></path><path d="M 399.04 473.31 L 407.48 476.52 L 418.24 481.01 L 429.56 486.28 L 434.98 489.10 L 439.68 491.81 L 443.93 494.65 L 446.87 497.10 L 455.23 505.05 L 466.47 515.30 L 479.08 526.24 L 485.52 531.53 L 491.56 536.25 L 495.36 539.26 L 501.27 544.32 L 507.63 550.17 L 515.33 557.79 L 523.14 566.14 L 531.56 575.97 L 537.01 582.86 L 542.41 590.26 L 547.76 598.20 L 552.76 606.34 L 557.42 614.87 L 561.74 623.79 L 564.64 630.62 L 567.20 637.60 L 569.42 644.75 L 571.30 652.06 L 572.76 659.44 L 573.74 666.94 L 574.24 674.57 L 574.26 682.35 L 573.38 699.83 L 572.16 714.07 L 570.48 727.32 L 568.57 738.09 L 566.24 748.12 L 563.77 756.46 L 560.96 764.30 L 558.05 771.23 L 554.92 777.91 L 551.67 784.43 L 544.94 798.12 L 541.34 805.39 L 537.29 812.59 L 532.79 819.74 L 527.91 826.63 L 522.65 833.13 L 517.02 839.26 L 512.51 843.60 L 507.84 847.56 L 502.99 851.16 L 497.96 854.41 L 492.70 857.27 L 487.29 859.64 L 481.71 861.51 L 475.94 862.91 L 471.17 863.51 L 466.45 863.57 L 461.74 863.10 L 457.01 862.09 L 452.42 860.65 L 447.82 858.78 L 443.21 856.46 L 438.58 853.68 L 432.71 849.57 L 426.88 844.87 L 421.08 839.53 L 415.56 833.90 L 410.18 827.89 L 404.94 821.50 L 397.50 811.59 L 390.59 801.44 L 384.16 791.12 L 378.48 781.21 L 373.28 771.40 L 369.02 762.65 L 365.30 754.28 L 362.67 747.64 L 360.73 741.92 L 358.82 735.35 L 356.94 727.82 L 354.56 716.28 L 352.46 703.51 L 350.80 690.44 L 349.59 676.97 L 348.89 663.49 L 348.75 650.43 L 348.99 641.77 L 349.52 633.68 L 350.31 626.14 L 351.49 618.63 L 352.95 612.06 L 354.67 606.34 L 358.03 595.97 L 361.20 584.65 L 364.04 573.11 L 366.57 561.46 L 368.80 549.86 L 370.64 539.02 L 372.17 528.52 L 373.26 519.60 L 374.02 511.33 L 374.31 505.48 L 374.14 500.90 L 373.58 495.93 L 372.29 486.11 L 372.03 481.44 L 372.32 477.49 L 372.96 475.06 L 374.03 473.09 L 375.54 471.50 L 376.89 470.65 L 378.65 470.03 L 380.92 469.66 L 383.82 469.63 L 387.55 470.07 L 392.53 471.22 L 399.04 473.31 Z" fill="#f5d084" fill-rule="nonzero" node-id="108" stroke-linecap="butt" stroke-width="1" target-height="393.94135" target-width="225.50928" target-x="348.75073" target-y="469.62628"></path><path d="M 354.61 606.25 L 352.90 611.97 L 351.44 618.54 L 350.27 626.06 L 349.48 633.60 L 348.96 641.69 L 348.73 650.35 L 348.87 663.40 L 349.58 676.89 L 350.79 690.36 L 352.44 703.43 L 354.55 716.20 L 356.93 727.74 L 358.81 735.27 L 360.72 741.84 L 362.66 747.56 L 365.19 753.98 L 368.75 762.04 L 372.82 770.45 L 377.77 779.89 L 383.19 789.44 L 389.32 799.42 L 395.90 809.28 L 402.99 818.96 L 407.99 825.23 L 413.13 831.18 L 418.41 836.82 L 423.95 842.19 L 429.53 847.01 L 435.17 851.30 L 441.09 855.16 L 446.99 858.29 L 452.87 860.74 L 457.45 862.13 L 462.00 863.04 L 466.55 863.47 L 471.13 863.43 L 464.97 863.72 L 458.83 863.41 L 452.66 862.49 L 446.44 860.94 L 440.41 858.89 L 434.38 856.34 L 428.36 853.26 L 422.31 849.63 L 416.55 845.68 L 410.86 841.32 L 405.23 836.53 L 399.67 831.30 L 392.66 823.98 L 385.91 816.14 L 379.44 807.76 L 373.40 799.06 L 367.78 790.08 L 362.57 780.82 L 357.82 771.32 L 353.62 761.81 L 349.98 752.29 L 347.42 744.37 L 345.23 736.41 L 343.43 728.42 L 342.00 720.39 L 340.59 709.58 L 339.72 698.91 L 339.39 688.37 L 339.53 677.82 L 340.07 667.64 L 340.99 657.81 L 342.30 648.01 L 343.85 638.84 L 345.63 630.27 L 347.72 621.73 L 349.89 614.10 L 352.12 607.29 Z" fill="#f0a63b" fill-rule="nonzero" node-id="110" stroke-linecap="butt" stroke-width="1" target-height="257.47076" target-width="131.7381" target-x="339.3919" target-y="606.25"></path><path d="M 472.18 856.60 L 475.31 862.76 L 484.01 880.11 L 497.26 906.94 L 514.02 941.53 L 533.26 982.18 L 553.96 1027.17 L 564.50 1050.67 L 575.09 1074.80 L 585.50 1099.08 L 595.62 1123.34 L 605.39 1147.57 L 614.51 1171.10 L 623.12 1194.41 L 630.75 1216.37 L 635.50 1230.95 L 639.67 1244.62 L 643.29 1257.42 L 646.59 1270.33 L 649.18 1282.02 L 651.12 1292.55 L 656.53 1327.39 L 663.12 1372.08 L 670.60 1424.44 L 678.70 1482.25 L 687.14 1543.33 L 695.63 1605.46 L 703.90 1666.45 L 711.66 1724.09 L 718.64 1776.19 L 724.55 1820.54 L 729.13 1854.95 L 732.08 1877.20 L 733.12 1885.11 L 752.46 1884.21 L 751.34 1876.00 L 748.20 1852.92 L 743.36 1817.32 L 737.14 1771.57 L 729.85 1717.99 L 721.83 1658.94 L 713.39 1596.78 L 704.85 1533.84 L 696.54 1472.48 L 688.76 1415.04 L 681.86 1363.88 L 676.14 1321.35 L 671.92 1289.78 L 670.45 1280.63 L 668.30 1270.10 L 665.35 1258.05 L 662.07 1246.13 L 658.17 1233.12 L 653.63 1218.96 L 646.29 1197.58 L 637.85 1174.44 L 628.85 1150.94 L 619.10 1126.42 L 608.98 1101.76 L 598.48 1076.82 L 587.77 1051.97 L 577.07 1027.58 L 555.96 980.62 L 536.24 937.88 L 519.01 901.28 L 505.35 872.74 L 496.36 854.21 L 493.12 847.60 L 491.60 847.11 L 490.00 846.76 L 487.72 846.49 L 485.27 846.53 L 482.50 847.02 L 480.69 847.63 L 478.86 848.60 L 476.98 849.96 L 475.34 851.59 L 473.73 853.76 L 472.18 856.60 Z" fill="#577a5e" fill-rule="nonzero" node-id="112" stroke-linecap="butt" stroke-width="1" target-height="1038.6188" target-width="280.28003" target-x="472.18" target-y="846.4912"></path><path d="M 189.36 684.49 L 193.17 687.57 L 197.23 691.05 L 203.45 696.69 L 210.17 703.17 L 218.45 711.70 L 226.95 721.08 L 236.46 732.41 L 242.68 740.34 L 249.10 749.08 L 255.73 758.66 L 262.03 768.43 L 268.30 778.95 L 274.53 790.28 L 281.57 803.36 L 289.65 817.77 L 298.17 832.43 L 307.40 847.84 L 316.92 863.32 L 326.81 878.98 L 336.87 894.52 L 346.93 909.66 L 357.06 924.50 L 366.81 938.38 L 376.52 951.74 L 385.49 963.60 L 394.32 974.72 L 402.01 983.81 L 407.21 989.52 L 411.65 994.02 L 415.43 997.49 L 430.31 1010.40 L 447.45 1025.46 L 465.21 1041.17 L 481.91 1056.02 L 495.89 1068.50 L 505.50 1077.09 L 509.07 1080.29 L 524.24 1118.69 L 493.03 1100.23 L 472.66 1089.46 L 452.04 1079.23 L 431.16 1069.53 L 410.03 1060.35 L 404.46 1057.79 L 398.62 1054.65 L 392.49 1050.85 L 386.04 1046.36 L 379.97 1041.68 L 373.74 1036.46 L 367.35 1030.64 L 360.77 1024.19 L 352.47 1015.36 L 344.11 1005.65 L 335.68 995.02 L 327.70 984.07 L 319.87 972.40 L 312.20 959.99 L 305.02 947.29 L 298.21 934.06 L 291.77 920.26 L 287.31 909.76 L 283.16 899.05 L 279.33 888.13 L 275.82 876.99 L 270.52 860.19 L 264.51 843.08 L 258.02 826.05 L 251.15 809.23 L 244.00 792.66 L 236.84 776.83 L 229.58 761.41 L 222.67 747.25 L 209.74 721.85 L 199.15 702.01 L 191.99 689.10 L 189.36 684.49 Z" fill="#899f57" fill-rule="nonzero" node-id="114" stroke-linecap="butt" stroke-width="1" target-height="434.19995" target-width="334.87997" target-x="189.36002" target-y="684.49"></path><path d="M 779.69 749.11 L 778.54 747.15 L 775.49 742.51 L 773.46 739.81 L 771.12 737.10 L 768.58 734.65 L 766.03 732.80 L 764.20 731.90 L 762.47 731.49 L 760.79 731.50 L 758.77 732.08 L 757.05 732.98 L 755.59 734.20 L 753.74 736.46 L 752.23 739.08 L 749.92 744.46 L 748.86 746.91 L 747.87 748.64 L 744.64 753.64 L 738.69 763.59 L 731.26 776.99 L 727.41 784.45 L 723.60 792.29 L 720.05 800.25 L 716.95 807.99 L 714.33 815.68 L 712.54 822.56 L 711.30 828.88 L 709.80 837.84 L 708.36 847.60 L 706.87 859.30 L 705.53 871.57 L 704.32 885.11 L 703.37 898.96 L 702.72 913.41 L 702.45 927.93 L 702.64 942.35 L 703.05 951.94 L 703.73 961.18 L 704.65 970.08 L 705.91 978.95 L 707.48 987.17 L 709.32 994.77 L 711.43 1001.27 L 714.14 1007.84 L 717.50 1014.51 L 721.26 1020.98 L 725.45 1027.42 L 730.08 1033.84 L 737.48 1043.12 L 745.36 1052.06 L 753.55 1060.61 L 761.66 1068.49 L 769.80 1075.96 L 777.28 1082.47 L 784.53 1088.50 L 790.54 1093.29 L 799.73 1100.29 L 803.17 1102.77 L 806.19 1104.20 L 814.11 1107.82 L 825.19 1112.61 L 837.71 1117.55 L 844.06 1119.80 L 849.94 1121.64 L 855.63 1123.09 L 860.17 1123.86 L 775.82 1009.06 L 758.45 807.36 Z" fill="#f5d084" fill-rule="nonzero" node-id="116" stroke-linecap="butt" stroke-width="1" target-height="392.3717" target-width="157.71716" target-x="702.4528" target-y="731.4883"></path><path d="M 808.39 728.99 L 810.12 730.31 L 814.51 733.24 L 817.32 734.83 L 820.41 736.28 L 823.60 737.38 L 826.64 737.91 L 828.63 737.88 L 830.41 737.45 L 832.03 736.61 L 834.67 734.38 L 837.61 731.27 L 843.45 724.18 L 846.42 720.53 L 849.27 717.26 L 852.21 714.37 L 854.81 712.45 L 856.66 711.60 L 858.52 711.06 L 860.43 710.84 L 863.29 710.93 L 865.89 711.37 L 868.31 712.04 L 870.02 712.67 L 871.66 713.40 L 874.21 714.40 L 876.78 715.62 L 880.33 717.66 L 883.91 720.19 L 887.71 723.58 L 890.03 726.16 L 892.15 729.15 L 894.07 732.58 L 895.53 736.20 L 896.55 740.33 L 897.09 745.04 L 897.13 752.64 L 896.78 760.21 L 896.05 767.75 L 894.94 775.25 L 893.45 782.67 L 891.58 790.04 L 875.11 808.04 L 847.34 806.32 Z" fill="#f0a63b" fill-rule="nonzero" node-id="118" stroke-linecap="butt" stroke-width="1" target-height="97.19653" target-width="88.73694" target-x="808.38995" target-y="710.84344"></path><path d="M 905.30 734.60 L 906.45 733.63 L 907.65 733.01 L 908.94 732.69 L 910.97 732.65 L 913.05 733.05 L 915.08 733.76 L 916.91 734.62 L 919.76 736.34 L 920.88 737.15 L 923.57 737.48 L 926.36 738.05 L 930.45 739.23 L 934.76 740.94 L 939.78 743.59 L 943.03 745.73 L 946.37 748.41 L 949.80 751.70 L 952.89 755.29 L 955.88 759.61 L 958.75 764.74 L 960.54 768.68 L 962.18 773.15 L 963.63 778.19 L 964.88 783.87 L 968.98 807.31 L 972.76 830.71 L 976.03 852.18 L 978.60 869.85 L 980.28 881.84 L 980.88 886.25 L 981.73 890.06 L 983.76 900.39 L 986.16 915.55 L 987.25 924.28 L 988.16 933.87 L 988.75 943.66 L 988.94 953.68 L 988.62 963.67 L 987.71 973.29 L 986.71 979.62 L 985.36 985.52 L 983.69 991.04 L 979.39 1002.41 L 974.43 1013.84 L 968.93 1025.05 L 963.01 1035.86 L 958.78 1042.90 L 954.47 1049.55 L 950.09 1055.82 L 945.46 1061.93 L 940.87 1067.45 L 936.33 1072.42 L 931.52 1077.14 L 926.88 1081.10 L 922.41 1084.38 L 909.82 1092.68 L 896.06 1101.59 L 882.67 1110.18 L 871.20 1117.49 L 863.18 1122.57 L 860.17 1124.47 L 843.51 826.25 L 870.51 799.00 L 871.76 795.67 L 875.27 786.90 L 880.72 774.55 L 884.03 767.70 L 887.77 760.49 L 891.80 753.37 L 896.07 746.55 L 900.67 740.12 L 905.30 734.60 Z" fill="#f5d084" fill-rule="nonzero" node-id="120" stroke-linecap="butt" stroke-width="1" target-height="391.82092" target-width="145.42615" target-x="843.50995" target-y="732.64905"></path><path d="M 805.96 1074.49 L 801.76 1071.00 L 797.34 1067.07 L 790.75 1060.82 L 783.71 1053.66 L 775.28 1044.41 L 769.71 1037.84 L 763.87 1030.47 L 757.75 1022.22 L 751.95 1013.78 L 746.20 1004.62 L 740.52 994.71 L 735.29 984.56 L 730.43 973.78 L 725.95 962.33 L 723.02 953.63 L 720.45 944.61 L 718.25 935.25 L 716.43 925.55 L 715.11 915.85 L 714.31 905.84 L 714.04 895.50 L 714.31 884.80 L 714.95 876.40 L 716.02 867.79 L 717.54 858.95 L 719.52 849.88 L 721.99 840.55 L 724.79 831.59 L 728.15 822.40 L 732.09 812.95 L 736.64 803.24 L 741.82 793.25 L 746.38 785.49 L 750.78 778.81 L 755.02 773.10 L 759.56 767.57 L 763.61 763.04 L 767.22 759.40 L 772.58 754.51 L 776.19 751.59 L 779.68 749.11 L 779.68 749.11 L 776.11 786.49 Z" fill="#f0a63b" fill-rule="nonzero" node-id="122" stroke-linecap="butt" stroke-width="1" target-height="325.38" target-width="91.92395" target-x="714.0361" target-y="749.11"></path><path d="M 791.82 730.64 L 785.81 740.15 L 779.50 749.44 L 772.89 758.52 L 765.97 767.40 L 760.96 773.78 L 755.02 781.74 L 749.07 790.28 L 742.87 800.04 L 738.95 806.81 L 735.21 813.95 L 731.66 821.46 L 728.50 829.13 L 725.79 837.02 L 723.53 845.14 L 722.21 851.32 L 721.28 857.55 L 720.74 863.85 L 720.59 870.23 L 720.92 879.70 L 721.73 891.02 L 722.97 902.82 L 724.77 915.87 L 727.05 929.17 L 729.94 943.11 L 733.38 957.09 L 737.45 971.11 L 740.53 980.37 L 743.89 989.41 L 747.53 998.22 L 751.54 1006.86 L 755.84 1015.04 L 760.41 1022.78 L 765.43 1030.22 L 770.73 1037.00 L 776.31 1043.15 L 788.01 1055.17 L 797.11 1064.79 L 805.31 1073.73 L 811.32 1080.52 L 820.08 1090.96 L 824.50 1096.76 L 825.72 1098.55 L 860.18 1124.47 L 861.85 1121.95 L 863.48 1119.02 L 865.84 1113.99 L 868.12 1108.14 L 870.67 1099.98 L 872.14 1094.21 L 873.53 1087.37 L 874.83 1079.31 L 875.78 1071.25 L 876.45 1061.98 L 876.81 1051.38 L 876.75 1040.82 L 876.21 1028.92 L 875.12 1015.57 L 872.81 995.69 L 870.11 976.29 L 864.35 938.34 L 861.75 919.74 L 859.67 901.66 L 858.66 889.64 L 858.08 877.84 L 857.92 866.24 L 858.14 857.54 L 858.72 848.95 L 859.65 840.44 L 860.93 832.03 L 862.61 823.70 L 864.77 815.43 L 867.40 807.20 L 870.52 799.00 L 870.67 796.54 L 870.74 790.16 L 870.58 786.08 L 870.17 781.35 L 869.48 776.53 L 868.42 771.61 L 866.91 766.82 L 864.91 762.42 L 863.24 759.70 L 861.31 757.33 L 859.10 755.28 L 855.41 752.64 L 851.67 750.37 L 847.88 748.46 L 842.06 746.03 L 836.41 744.15 L 825.74 741.32 L 820.91 740.10 L 816.97 738.94 L 815.11 738.06 L 813.49 736.89 L 812.08 735.40 L 810.31 732.82 L 808.84 729.98 L 806.48 724.49 L 805.32 722.16 L 804.23 720.73 L 803.38 720.16 L 802.44 720.07 L 801.30 720.49 L 798.53 722.50 L 796.23 724.70 L 794.27 727.00 L 792.97 728.80 L 791.82 730.64 Z" fill="#f5d084" fill-rule="nonzero" node-id="124" stroke-linecap="butt" stroke-width="1" target-height="404.40137" target-width="156.22205" target-x="720.59" target-y="720.0686"></path><path d="M 875.11 1014.96 L 872.81 995.10 L 870.12 975.70 L 864.36 937.75 L 861.76 919.16 L 859.68 901.07 L 858.67 889.05 L 858.08 877.24 L 857.92 865.64 L 858.14 856.94 L 858.72 848.34 L 859.64 839.84 L 860.92 831.43 L 862.60 823.09 L 864.76 814.82 L 867.39 806.59 L 870.51 798.39 L 863.14 809.23 L 859.93 815.52 L 857.24 822.04 L 853.77 833.35 L 851.08 843.72 L 849.10 853.22 L 847.58 862.82 L 846.62 871.82 L 846.18 880.26 L 846.16 888.72 L 846.51 896.90 L 847.22 904.82 L 848.84 916.66 L 850.98 928.53 L 856.18 953.03 L 858.90 965.90 L 861.58 979.97 L 863.18 989.50 L 864.63 999.82 L 865.92 1010.98 L 867.28 1026.98 L 868.08 1041.06 L 868.39 1053.38 L 868.33 1065.73 L 867.97 1076.28 L 867.35 1085.21 L 865.97 1097.94 L 864.50 1107.12 L 862.80 1115.11 L 861.54 1119.79 L 860.17 1123.86 L 861.83 1121.34 L 863.47 1118.40 L 865.83 1113.37 L 868.11 1107.52 L 870.65 1099.35 L 872.12 1093.58 L 873.51 1086.74 L 874.81 1078.68 L 875.76 1070.62 L 876.43 1061.35 L 876.80 1050.75 L 876.74 1040.19 L 876.20 1028.30 L 875.11 1014.96 Z" fill="#f0a63b" fill-rule="nonzero" node-id="126" stroke-linecap="butt" stroke-width="1" target-height="325.46997" target-width="30.637451" target-x="846.15765" target-y="798.39"></path><path d="M 839.92 1115.30 L 841.62 1117.50 L 843.21 1120.14 L 845.40 1124.82 L 846.69 1128.26 L 848.00 1132.70 L 849.30 1138.33 L 850.24 1144.00 L 850.95 1150.87 L 851.35 1159.14 L 851.54 1173.18 L 851.83 1198.59 L 852.18 1233.19 L 852.58 1274.81 L 853.01 1321.27 L 853.47 1370.41 L 853.91 1420.05 L 854.34 1468.01 L 854.73 1512.12 L 855.07 1550.22 L 855.33 1580.12 L 855.50 1599.66 L 855.56 1606.65 L 847.74 1792.74 L 878.19 1792.74 L 874.88 1304.65 L 871.09 1160.05 L 871.51 1156.95 L 872.76 1149.05 L 874.80 1138.40 L 876.11 1132.68 L 877.59 1127.08 L 879.30 1121.69 L 881.10 1117.17 L 882.52 1114.33 L 883.92 1112.23 L 885.28 1110.72 L 881.67 1110.27 L 877.78 1109.99 L 871.87 1109.90 L 865.40 1110.18 L 857.44 1111.08 L 852.03 1112.03 L 846.20 1113.43 L 839.92 1115.30 Z" fill="#577a5e" fill-rule="nonzero" node-id="128" stroke-linecap="butt" stroke-width="1" target-height="682.8425" target-width="45.359985" target-x="839.92" target-y="1109.8975"></path><path d="M 1078.82 1949.98 L 1077.42 1943.78 L 1073.80 1926.43 L 1068.82 1899.81 L 1066.14 1884.00 L 1063.32 1865.82 L 1060.68 1846.92 L 1058.16 1826.33 L 1055.99 1805.29 L 1054.20 1783.24 L 1052.94 1760.98 L 1052.29 1738.43 L 1052.26 1723.37 L 1052.59 1708.49 L 1053.29 1693.79 L 1054.43 1679.11 L 1056.02 1664.92 L 1058.06 1651.19 L 1059.97 1640.90 L 1062.17 1631.03 L 1064.67 1621.58 L 1067.44 1612.53 L 1070.18 1605.03 L 1073.26 1597.72 L 1076.69 1590.59 L 1080.48 1583.63 L 1085.96 1574.60 L 1091.84 1565.84 L 1098.13 1557.34 L 1104.74 1549.08 L 1111.50 1541.08 L 1118.43 1533.32 L 1129.02 1521.98 L 1139.39 1511.21 L 1149.61 1500.64 L 1159.03 1490.65 L 1165.10 1483.92 L 1170.53 1477.47 L 1175.38 1471.29 L 1179.88 1464.86 L 1183.55 1458.70 L 1186.44 1452.79 L 1191.12 1442.14 L 1196.85 1429.70 L 1202.99 1416.80 L 1209.89 1402.74 L 1224.70 1373.57 L 1240.43 1343.82 L 1256.24 1315.14 L 1264.01 1301.52 L 1271.25 1289.17 L 1278.38 1277.43 L 1284.63 1267.56 L 1290.70 1258.53 L 1295.52 1251.94 L 1298.83 1247.91 L 1301.28 1245.38 L 1303.06 1243.96 L 1305.59 1242.64 L 1307.17 1242.31 L 1308.16 1242.55 L 1308.89 1243.29 L 1309.38 1244.55 L 1309.52 1246.60 L 1309.19 1249.91 L 1308.31 1254.28 L 1305.70 1263.76 L 1302.85 1273.21 L 1301.66 1277.55 L 1300.94 1280.82 L 1300.47 1284.22 L 1299.78 1290.98 L 1298.10 1309.19 L 1295.65 1333.52 L 1294.08 1347.16 L 1292.17 1362.03 L 1289.99 1377.16 L 1287.43 1392.81 L 1284.50 1408.47 L 1281.16 1423.93 L 1278.67 1434.17 L 1275.98 1444.01 L 1273.12 1453.47 L 1269.94 1462.83 L 1266.58 1471.49 L 1263.06 1479.49 L 1257.12 1491.64 L 1249.86 1505.75 L 1233.40 1536.49 L 1214.86 1570.55 L 1195.47 1606.77 L 1185.82 1625.32 L 1176.41 1643.97 L 1167.35 1662.66 L 1158.90 1680.98 L 1153.54 1693.25 L 1148.62 1705.14 L 1144.14 1716.65 L 1139.95 1728.29 L 1136.35 1739.33 L 1133.33 1749.80 L 1131.63 1757.23 L 1129.84 1767.46 L 1128.27 1778.54 L 1126.70 1791.60 L 1125.29 1805.19 L 1123.94 1819.92 L 1121.56 1850.15 L 1119.58 1880.00 L 1118.02 1907.19 L 1116.88 1929.44 L 1116.19 1944.46 L 1115.96 1949.98 L 1083.23 1949.98" fill="#899f57" fill-rule="nonzero" node-id="130" stroke-linecap="butt" stroke-width="1" target-height="707.67334" target-width="257.2622" target-x="1052.2568" target-y="1242.3066"></path><path d="M 904.48 1949.98 L 904.80 1942.36 L 905.67 1920.92 L 906.94 1887.83 L 908.45 1845.22 L 910.05 1795.26 L 911.58 1740.10 L 912.91 1681.88 L 913.87 1622.76 L 914.31 1564.89 L 914.29 1536.83 L 914.09 1510.43 L 913.65 1494.13 L 912.77 1478.03 L 911.45 1462.10 L 909.70 1446.35 L 907.54 1430.59 L 905.04 1415.10 L 902.20 1399.86 L 899.03 1384.86 L 894.27 1364.95 L 889.09 1345.65 L 883.50 1326.94 L 877.41 1308.37 L 871.09 1290.57 L 864.55 1273.53 L 857.60 1256.62 L 850.63 1240.66 L 843.63 1225.62 L 836.29 1210.69 L 829.14 1196.89 L 822.17 1184.15 L 814.91 1171.54 L 808.06 1160.22 L 801.60 1150.10 L 794.88 1140.12 L 788.82 1131.61 L 783.37 1124.43 L 758.55 1092.37 L 737.56 1064.68 L 721.03 1042.56 L 709.54 1027.22 L 705.46 1021.94 L 703.71 1019.85 L 702.46 1018.79 L 701.52 1018.36 L 700.79 1018.34 L 699.74 1018.84 L 698.90 1019.87 L 698.28 1021.14 L 697.88 1022.33 L 697.58 1023.62 L 698.76 1029.35 L 701.97 1045.06 L 706.75 1068.48 L 712.63 1097.39 L 719.14 1129.54 L 725.81 1162.68 L 732.17 1194.57 L 737.75 1222.97 L 742.08 1245.62 L 744.69 1260.30 L 756.63 1336.88 L 767.16 1408.37 L 776.86 1478.08 L 785.27 1542.09 L 792.94 1604.09 L 799.42 1659.80 L 805.27 1713.27 L 810.05 1759.84 L 814.30 1803.95 L 817.59 1840.53 L 820.43 1874.47 L 822.44 1900.23 L 825.05 1937.27 L 825.82 1949.98 Z" fill="#899f57" fill-rule="nonzero" node-id="132" stroke-linecap="butt" stroke-width="1" target-height="931.6419" target-width="216.73425" target-x="697.58" target-y="1018.3381"></path><path d="M 464.39 1311.72 L 467.05 1318.65 L 471.42 1329.21 L 476.46 1340.80 L 482.94 1355.15 L 489.99 1370.23 L 498.17 1387.19 L 506.83 1404.59 L 516.31 1423.02 L 526.20 1441.57 L 536.58 1460.31 L 547.31 1478.84 L 558.19 1496.72 L 565.68 1508.45 L 573.07 1519.51 L 580.36 1529.93 L 587.94 1540.17 L 595.25 1549.37 L 602.28 1557.60 L 611.75 1568.46 L 621.16 1579.77 L 630.49 1591.55 L 639.52 1603.56 L 648.31 1615.89 L 656.85 1628.54 L 665.03 1641.42 L 672.80 1654.49 L 680.16 1667.75 L 687.08 1681.24 L 693.43 1694.79 L 699.22 1708.41 L 703.21 1718.78 L 706.81 1729.12 L 710.00 1739.42 L 712.81 1749.70 L 715.24 1760.12 L 717.20 1770.44 L 718.70 1780.67 L 719.74 1790.83 L 721.23 1811.21 L 722.48 1830.95 L 724.42 1868.35 L 725.69 1901.01 L 726.42 1926.86 L 726.77 1943.88 L 726.85 1950.00 L 777.92 1950.00 L 777.82 1944.42 L 777.62 1929.16 L 777.45 1906.46 L 777.45 1878.53 L 777.76 1847.59 L 778.52 1815.89 L 779.12 1800.28 L 779.87 1785.63 L 780.82 1771.45 L 781.93 1759.06 L 783.34 1747.42 L 784.86 1738.38 L 786.30 1729.79 L 787.45 1719.68 L 788.23 1707.89 L 788.55 1696.13 L 788.48 1683.19 L 787.98 1668.99 L 787.08 1654.86 L 785.73 1639.92 L 783.90 1624.14 L 781.68 1608.44 L 778.98 1592.32 L 775.78 1575.78 L 772.15 1559.33 L 768.03 1542.86 L 763.40 1526.36 L 758.28 1510.01 L 752.67 1494.00 L 746.56 1478.32 L 739.67 1462.36 L 731.03 1443.79 L 721.60 1424.59 L 710.82 1403.52 L 699.48 1382.04 L 687.22 1359.43 L 674.60 1336.64 L 661.51 1313.44 L 648.24 1290.28 L 634.97 1267.46 L 608.88 1223.43 L 584.51 1183.25 L 563.16 1148.85 L 546.10 1122.15 L 540.80 1113.69 L 535.40 1104.46 L 529.90 1094.44 L 522.04 1079.09 L 514.22 1062.74 L 506.72 1046.07 L 499.50 1029.19 L 492.61 1012.28 L 486.22 995.95 L 480.17 979.89 L 474.82 965.18 L 465.78 939.03 L 459.55 919.66 L 457.45 912.54 L 456.59 909.21 L 456.15 915.55 L 454.96 932.94 L 453.25 958.95 L 451.24 991.17 L 449.15 1027.16 L 447.20 1064.50 L 445.61 1100.75 L 444.60 1133.50 L 444.38 1148.24 L 444.39 1160.31 L 444.92 1183.35 L 445.89 1204.15 L 447.25 1222.87 L 448.66 1237.11 L 450.27 1250.16 L 452.06 1262.11 L 454.02 1273.01 L 456.41 1284.21 L 458.94 1294.35 L 461.61 1303.49 L 464.39 1311.72 Z" fill="#899f57" fill-rule="nonzero" node-id="134" stroke-linecap="butt" stroke-width="1" target-height="1040.79" target-width="344.17792" target-x="444.3766" target-y="909.20996"></path></svg>